<svg xmlns="http://www.w3.org/2000/svg" viewBox="0 0 101.38 96.51"><defs><style>.cls-1{fill:none;stroke:#000;stroke-linecap:round;stroke-linejoin:round;stroke-width:2px;}</style></defs><g id="Laag_2" data-name="Laag 2"><g id="Laag_1-2" data-name="Laag 1"><path class="cls-1" d="M96.11,95.51h-54"/><path class="cls-1" d="M58.11,14c1.64-4.23,1.16-8.26-2.59-10.87C53.42,1.69,50.39,1.59,48.23,1c-6.57,5.4-7.67,9.66-4.12,14,3.09,3.79,8.25,3.6,13.5-.5"/><path class="cls-1" d="M14.61,67,1,91.51H25.11"/><path class="cls-1" d="M87.11,67l13.27,24.5H86.61"/><path class="cls-1" d="M84.11,22c4.54.79,7.13,3.53,8,8-.83,4.63-3.31,8.35-8,8.84-5.19.53-7.84-3.36-9.43-7.7.73-5.36,3.45-8.65,9-9.14"/><path class="cls-1" d="M20.61,70.51q-2.74,10.5-5.5,21"/><path class="cls-1" d="M80.61,70.51,86.11,91"/><path class="cls-1" d="M43.11,14l-18,12"/><path class="cls-1" d="M73.61,56c-3.5-3.33-7.13-6.55-10.45-10a24.71,24.71,0,0,1-4.47-6.49c-1.48-3.23-3.54-5.39-7.08-6-4-.63-7.23,1.4-8.32,4.56C40.59,45.83,33.73,49.59,28.61,55"/><path class="cls-1" d="M58.61,14.51l17,10.5"/><path class="cls-1" d="M73.61,67,57.76,78.11c-4.48-3.34-9.32-4.19-14.17.13L28.61,67"/><path class="cls-1" d="M82.11,53c4.47,1.07,5.89,4.66,7,8.92-.89,1.5-1.67,3.59-3.1,5-2.64,2.62-5.62,4-9.48,1.64-3.62-2.18-5.15-5.32-4.32-9,.77-3.5,2.93-6.41,7.36-6.06a6.75,6.75,0,0,0,2-.47"/><path class="cls-1" d="M50.61,63V91"/><path class="cls-1" d="M42.11,39l-15-8"/><path class="cls-1" d="M74.11,31l-15,8"/><path class="cls-1" d="M29.11,58.51C28.78,60.68,28.89,63,28,65c-2.1,4.7-6.82,6.06-10.91,3.54a8.39,8.39,0,0,1-3-11.52,7.83,7.83,0,0,1,12-2c.87.78,1.67,1.66,2.5,2.49"/><path class="cls-1" d="M50.61,18.51v26"/><path class="cls-1" d="M52.61,62.51q1,6.75,2,13.5"/><path class="cls-1" d="M48.61,62.51l-1.5,13"/><path class="cls-1" d="M83.61,39.51q-1,6.5-2,13"/><path class="cls-1" d="M18.11,39.51l1.5,13"/><path class="cls-1" d="M59.61,52.51,72.11,58"/><path class="cls-1" d="M41.61,52.51,29.11,58"/><path class="cls-1" d="M76.11,35l-12.5,9"/><path class="cls-1" d="M25.61,35.51l12,8.5"/><path class="cls-1" d="M17.61,22c-5.78,1.64-7.85,3.77-8,8.5-.12,4.19,2.75,6.43,6,7.93,3.88,1.78,8.16-1.11,11-6.93C25.3,25,23.54,23,18.11,22"/><path class="cls-1" d="M57.11,48.51c1.89,3,3,6.16,1,9.48C56,61.55,51,63.13,47.61,61.51c-5-2.41-6.36-5.86-4.52-11a18.31,18.31,0,0,0,.52-3"/><path class="cls-1" d="M45.61,77.51c-.33,3.5-.67,7-1,10.5"/><path class="cls-1" d="M55.61,77.51c.33,3.33.76,6.66.94,10,.05,1-.61,2-.94,3"/><path class="cls-1" d="M43.61,78.51c-1,3-2.29,5.67-.15,9.09s5,4.07,8.16,4.31c3.47.27,7-.23,10.49-.4"/><path class="cls-1" d="M57.61,78.51c1.07,3.23,2.79,6.5-.5,9.5"/><path class="cls-1" d="M55.61,48.51c-2.89,2.05-5.91,2-9,.5"/><path class="cls-1" d="M85.11,61.51c.56,3.89-2.28,4.38-5,5"/><path class="cls-1" d="M21.11,56.51c-3.52-.19-5.18,1.48-5,5"/><path class="cls-1" d="M23.11,30.51c-.51-2.83-1.45-5.21-5-5"/><path class="cls-1" d="M61.61,45.51l-5.25,2.92c-3-3.78-6.21-3.8-9.75-1.91-.85.45-1.67,1-2.5,1.49"/><path class="cls-1" d="M50.11,4.51l-5,5"/><path class="cls-1" d="M78.11,30.51l5,5"/><path class="cls-1" d="M36.11,95.51h-4"/><path class="cls-1" d="M58.61,44c-.33,1.17-.67,2.33-1,3.5"/></g></g></svg>