<svg xmlns="http://www.w3.org/2000/svg" width="49.204" height="47.763" viewBox="0 0 49.204 47.763">
  <g id="Component_95_1" data-name="Component 95 – 1" transform="translate(0.5 0.5)">
    <path id="Path_233" data-name="Path 233" d="M.767,0V23.778H5.523V4.756H29.3V19.022H43.567v4.756h4.756V15.309L34.007,0Z" transform="translate(-0.125 0)" fill="#001a70" stroke="#001a70" stroke-width="1"/>
    <path id="Path_234" data-name="Path 234" d="M8.364,46.762a8.917,8.917,0,0,1-3.413-.628,6.991,6.991,0,0,1-2.6-1.831A8.266,8.266,0,0,1,.7,41.373a12.451,12.451,0,0,1-.575-3.949A12.741,12.741,0,0,1,.7,33.461a8.648,8.648,0,0,1,1.648-3.008,7.183,7.183,0,0,1,2.6-1.909,8.459,8.459,0,0,1,3.413-.667,9.151,9.151,0,0,1,2.472.327,5.9,5.9,0,0,1,2.04,1.007,4.816,4.816,0,0,1,1.385,1.727,5.533,5.533,0,0,1,.511,2.458,7.065,7.065,0,0,1-.209,1.6h-3.61a4.843,4.843,0,0,0,.1-.5,3.765,3.765,0,0,0,.026-.5,2.581,2.581,0,0,0-.745-1.948,2.875,2.875,0,0,0-2.079-.72,3.47,3.47,0,0,0-3.008,1.518,7.78,7.78,0,0,0-1.074,4.5,7.227,7.227,0,0,0,1.2,4.473A3.954,3.954,0,0,0,8.7,43.388a4.128,4.128,0,0,0,2.171-.511,4.874,4.874,0,0,0,1.543-1.66l2.616,1.857a7.073,7.073,0,0,1-2.577,2.746,7.921,7.921,0,0,1-4.093.942" transform="translate(-0.125 0)" fill="#001a70" stroke="#001a70" stroke-width="1"/>
    <path id="Path_235" data-name="Path 235" d="M8.364,46.762a8.917,8.917,0,0,1-3.413-.628,6.991,6.991,0,0,1-2.6-1.831A8.266,8.266,0,0,1,.7,41.373a12.451,12.451,0,0,1-.575-3.949A12.741,12.741,0,0,1,.7,33.461a8.648,8.648,0,0,1,1.648-3.008,7.183,7.183,0,0,1,2.6-1.909,8.459,8.459,0,0,1,3.413-.667,9.151,9.151,0,0,1,2.472.327,5.9,5.9,0,0,1,2.04,1.007,4.816,4.816,0,0,1,1.385,1.727,5.533,5.533,0,0,1,.511,2.458,7.065,7.065,0,0,1-.209,1.6h-3.61a4.843,4.843,0,0,0,.1-.5,3.765,3.765,0,0,0,.026-.5,2.581,2.581,0,0,0-.745-1.948,2.875,2.875,0,0,0-2.079-.72,3.47,3.47,0,0,0-3.008,1.518,7.78,7.78,0,0,0-1.074,4.5,7.227,7.227,0,0,0,1.2,4.473A3.954,3.954,0,0,0,8.7,43.388a4.128,4.128,0,0,0,2.171-.511,4.874,4.874,0,0,0,1.543-1.66l2.616,1.857a7.073,7.073,0,0,1-2.577,2.746A7.921,7.921,0,0,1,8.364,46.762Z" transform="translate(-0.125 0)" fill="#001a70" stroke="#001a70" stroke-miterlimit="10" stroke-width="0.25"/>
    <path id="Path_236" data-name="Path 236" d="M23.43,46.762q-5.047,0-7.3-2.956l2.433-2.589a6.272,6.272,0,0,0,2.222,1.726,6.536,6.536,0,0,0,2.695.549,4.712,4.712,0,0,0,2.523-.523,1.7,1.7,0,0,0,.8-1.517,1.886,1.886,0,0,0-.222-.942,1.966,1.966,0,0,0-.719-.692,5.484,5.484,0,0,0-1.308-.536q-.812-.237-1.962-.472a15.712,15.712,0,0,1-2.236-.614,6.914,6.914,0,0,1-1.87-.995,4.537,4.537,0,0,1-1.3-1.543,4.9,4.9,0,0,1-.484-2.289,5.035,5.035,0,0,1,.484-2.21,5.091,5.091,0,0,1,1.374-1.739,6.416,6.416,0,0,1,2.157-1.137,9.181,9.181,0,0,1,2.811-.406,12.631,12.631,0,0,1,2.525.248,6.376,6.376,0,0,1,2.132.825,4.325,4.325,0,0,1,1.465,1.53,4.628,4.628,0,0,1,.548,2.341c0,.192-.008.378-.026.562a3.46,3.46,0,0,1-.1.563l-3.5-.027a1.458,1.458,0,0,0,.052-.34V33.24a1.692,1.692,0,0,0-.889-1.6,4.28,4.28,0,0,0-2.118-.5q-3.06,0-3.061,2.066a1.59,1.59,0,0,0,.249.915,2.052,2.052,0,0,0,.772.641,6.325,6.325,0,0,0,1.307.484c.523.14,1.151.287,1.883.445a16.566,16.566,0,0,1,2.328.654,6.766,6.766,0,0,1,1.858,1.007A4.425,4.425,0,0,1,30.192,38.9a5.1,5.1,0,0,1,.458,2.262,5.3,5.3,0,0,1-.511,2.354,4.881,4.881,0,0,1-1.451,1.765,6.71,6.71,0,0,1-2.276,1.1,10.886,10.886,0,0,1-2.982.38" transform="translate(-0.125 0)" fill="#001a70" stroke="#001a70" stroke-width="1"/>
    <path id="Path_237" data-name="Path 237" d="M23.43,46.762q-5.047,0-7.3-2.956l2.433-2.589a6.272,6.272,0,0,0,2.222,1.726,6.536,6.536,0,0,0,2.695.549,4.712,4.712,0,0,0,2.523-.523,1.7,1.7,0,0,0,.8-1.517,1.886,1.886,0,0,0-.222-.942,1.966,1.966,0,0,0-.719-.692,5.484,5.484,0,0,0-1.308-.536q-.812-.237-1.962-.472a15.712,15.712,0,0,1-2.236-.614,6.914,6.914,0,0,1-1.87-.995,4.537,4.537,0,0,1-1.3-1.543,4.9,4.9,0,0,1-.484-2.289,5.035,5.035,0,0,1,.484-2.21,5.091,5.091,0,0,1,1.374-1.739,6.416,6.416,0,0,1,2.157-1.137,9.181,9.181,0,0,1,2.811-.406,12.631,12.631,0,0,1,2.525.248,6.376,6.376,0,0,1,2.132.825,4.325,4.325,0,0,1,1.465,1.53,4.628,4.628,0,0,1,.548,2.341c0,.192-.008.378-.026.562a3.46,3.46,0,0,1-.1.563l-3.5-.027a1.458,1.458,0,0,0,.052-.34V33.24a1.692,1.692,0,0,0-.889-1.6,4.28,4.28,0,0,0-2.118-.5q-3.06,0-3.061,2.066a1.59,1.59,0,0,0,.249.915,2.052,2.052,0,0,0,.772.641,6.325,6.325,0,0,0,1.307.484c.523.14,1.151.287,1.883.445a16.566,16.566,0,0,1,2.328.654,6.766,6.766,0,0,1,1.858,1.007A4.425,4.425,0,0,1,30.192,38.9a5.1,5.1,0,0,1,.458,2.262,5.3,5.3,0,0,1-.511,2.354,4.881,4.881,0,0,1-1.451,1.765,6.71,6.71,0,0,1-2.276,1.1A10.886,10.886,0,0,1,23.43,46.762Z" transform="translate(-0.125 0)" fill="#001a70" stroke="#001a70" stroke-miterlimit="10" stroke-width="0.25"/>
    <path id="Path_238" data-name="Path 238" d="M31.225,28.165h4.342l4.211,13.993,4.263-13.993h4.08L41.609,46.474H37.738Z" transform="translate(-0.125 0)" fill="#001a70" stroke="#001a70" stroke-width="1"/>
    <path id="Path_239" data-name="Path 239" d="M31.225,28.165h4.342l4.211,13.993,4.263-13.993h4.08L41.609,46.474H37.738Z" transform="translate(-0.125 0)" fill="#001a70" stroke="#001a70" stroke-miterlimit="10" stroke-width="0.25"/>
  </g>
</svg>
