<svg xmlns="http://www.w3.org/2000/svg" width="52.326" height="47.763" viewBox="0 0 52.326 47.763">
  <g id="Component_100_1" data-name="Component 100 – 1" transform="translate(0.5 0.5)">
    <path id="Path_254" data-name="Path 254" d="M5.522,185.468H29.3v14.267H43.567v4.755h4.755v-8.469L34.006,180.712H.766V204.49H5.522Z" transform="translate(-0.766 -180.712)" fill="#001a70" stroke="#001a70" stroke-width="1"/>
    <path id="Path_255" data-name="Path 255" d="M1.067,208.878H7a13.354,13.354,0,0,1,3.728.5,7.807,7.807,0,0,1,2.969,1.583,7.274,7.274,0,0,1,1.96,2.824,11.3,11.3,0,0,1,.708,4.251,10.707,10.707,0,0,1-.759,4.263,7.813,7.813,0,0,1-2,2.838,7.614,7.614,0,0,1-2.852,1.57,11.439,11.439,0,0,1-3.308.483H1.067Zm5.99,15.117a5.177,5.177,0,0,0,3.871-1.438,5.93,5.93,0,0,0,1.412-4.316,7.138,7.138,0,0,0-1.3-4.525q-1.294-1.647-4.276-1.648H4.938v11.927Z" transform="translate(-0.766 -180.712)" fill="#001a70" stroke="#001a70" stroke-width="1"/>
    <path id="Path_256" data-name="Path 256" d="M1.067,208.878H7a13.354,13.354,0,0,1,3.728.5,7.807,7.807,0,0,1,2.969,1.583,7.274,7.274,0,0,1,1.96,2.824,11.3,11.3,0,0,1,.708,4.251,10.707,10.707,0,0,1-.759,4.263,7.813,7.813,0,0,1-2,2.838,7.614,7.614,0,0,1-2.852,1.57,11.439,11.439,0,0,1-3.308.483H1.067Zm5.99,15.117a5.177,5.177,0,0,0,3.871-1.438,5.93,5.93,0,0,0,1.412-4.316,7.138,7.138,0,0,0-1.3-4.525q-1.294-1.647-4.276-1.648H4.938v11.927Z" transform="translate(-0.766 -180.712)" fill="#001a70" stroke="#001a70" stroke-miterlimit="10" stroke-width="0.25"/>
    <path id="Path_257" data-name="Path 257" d="M26.646,227.475a9.577,9.577,0,0,1-3.257-.55,7.148,7.148,0,0,1-2.668-1.686,8.067,8.067,0,0,1-1.8-2.917,12.069,12.069,0,0,1-.667-4.238,11.814,11.814,0,0,1,.667-4.158,8.5,8.5,0,0,1,1.818-2.969,7.337,7.337,0,0,1,2.693-1.778,9.186,9.186,0,0,1,3.3-.589,9.576,9.576,0,0,1,3.257.549,7,7,0,0,1,2.668,1.714,8.344,8.344,0,0,1,1.805,2.942,12.179,12.179,0,0,1,.667,4.264,11.732,11.732,0,0,1-.667,4.146,8.4,8.4,0,0,1-1.819,2.942,7.276,7.276,0,0,1-2.694,1.752,9.342,9.342,0,0,1-3.3.576m0-3.374a4.575,4.575,0,0,0,1.687-.314,3.564,3.564,0,0,0,1.413-1.034,5.176,5.176,0,0,0,.967-1.87,9.715,9.715,0,0,0,.353-2.824,9.839,9.839,0,0,0-.353-2.852,5.289,5.289,0,0,0-.942-1.856,3.3,3.3,0,0,0-1.386-1.008,4.684,4.684,0,0,0-1.661-.3,4.543,4.543,0,0,0-1.686.315,3.515,3.515,0,0,0-1.4,1.019,5.32,5.32,0,0,0-.968,1.858,9.491,9.491,0,0,0-.366,2.85,9.73,9.73,0,0,0,.353,2.826,5.328,5.328,0,0,0,.941,1.857,3.443,3.443,0,0,0,1.374,1.02,4.465,4.465,0,0,0,1.674.314" transform="translate(-0.766 -180.712)" fill="#001a70" stroke="#001a70" stroke-width="1"/>
    <path id="Path_258" data-name="Path 258" d="M26.646,227.475a9.577,9.577,0,0,1-3.257-.55,7.148,7.148,0,0,1-2.668-1.686,8.067,8.067,0,0,1-1.8-2.917,12.069,12.069,0,0,1-.667-4.238,11.814,11.814,0,0,1,.667-4.158,8.5,8.5,0,0,1,1.818-2.969,7.337,7.337,0,0,1,2.693-1.778,9.186,9.186,0,0,1,3.3-.589,9.576,9.576,0,0,1,3.257.549,7,7,0,0,1,2.668,1.714,8.344,8.344,0,0,1,1.805,2.942,12.179,12.179,0,0,1,.667,4.264,11.732,11.732,0,0,1-.667,4.146,8.4,8.4,0,0,1-1.819,2.942,7.276,7.276,0,0,1-2.694,1.752A9.342,9.342,0,0,1,26.646,227.475Zm0-3.374a4.575,4.575,0,0,0,1.687-.314,3.564,3.564,0,0,0,1.413-1.034,5.176,5.176,0,0,0,.967-1.87,9.715,9.715,0,0,0,.353-2.824,9.839,9.839,0,0,0-.353-2.852,5.289,5.289,0,0,0-.942-1.856,3.3,3.3,0,0,0-1.386-1.008,4.684,4.684,0,0,0-1.661-.3,4.543,4.543,0,0,0-1.686.315,3.515,3.515,0,0,0-1.4,1.019,5.32,5.32,0,0,0-.968,1.858,9.491,9.491,0,0,0-.366,2.85,9.73,9.73,0,0,0,.353,2.826,5.328,5.328,0,0,0,.941,1.857,3.443,3.443,0,0,0,1.374,1.02A4.465,4.465,0,0,0,26.646,224.1Z" transform="translate(-0.766 -180.712)" fill="#001a70" stroke="#001a70" stroke-miterlimit="10" stroke-width="0.25"/>
    <path id="Path_259" data-name="Path 259" d="M45.27,227.475a8.923,8.923,0,0,1-3.414-.628,6.991,6.991,0,0,1-2.6-1.831,8.266,8.266,0,0,1-1.648-2.93,12.48,12.48,0,0,1-.575-3.949,12.771,12.771,0,0,1,.575-3.963,8.648,8.648,0,0,1,1.648-3.008,7.183,7.183,0,0,1,2.6-1.909,8.464,8.464,0,0,1,3.414-.667,9.144,9.144,0,0,1,2.471.327,5.9,5.9,0,0,1,2.04,1.007,4.829,4.829,0,0,1,1.386,1.727,5.547,5.547,0,0,1,.51,2.458,7.065,7.065,0,0,1-.209,1.6h-3.61a4.844,4.844,0,0,0,.1-.5,3.766,3.766,0,0,0,.026-.5,2.581,2.581,0,0,0-.745-1.948,2.874,2.874,0,0,0-2.078-.72,3.471,3.471,0,0,0-3.009,1.518,7.78,7.78,0,0,0-1.074,4.5,7.234,7.234,0,0,0,1.2,4.473,3.956,3.956,0,0,0,3.322,1.569,4.126,4.126,0,0,0,2.171-.511,4.873,4.873,0,0,0,1.543-1.66l2.616,1.857a7.066,7.066,0,0,1-2.577,2.746,7.917,7.917,0,0,1-4.092.942" transform="translate(-0.766 -180.712)" fill="#001a70" stroke="#001a70" stroke-width="1"/>
    <path id="Path_260" data-name="Path 260" d="M45.27,227.475a8.923,8.923,0,0,1-3.414-.628,6.991,6.991,0,0,1-2.6-1.831,8.266,8.266,0,0,1-1.648-2.93,12.48,12.48,0,0,1-.575-3.949,12.771,12.771,0,0,1,.575-3.963,8.648,8.648,0,0,1,1.648-3.008,7.183,7.183,0,0,1,2.6-1.909,8.464,8.464,0,0,1,3.414-.667,9.144,9.144,0,0,1,2.471.327,5.9,5.9,0,0,1,2.04,1.007,4.829,4.829,0,0,1,1.386,1.727,5.547,5.547,0,0,1,.51,2.458,7.065,7.065,0,0,1-.209,1.6h-3.61a4.844,4.844,0,0,0,.1-.5,3.766,3.766,0,0,0,.026-.5,2.581,2.581,0,0,0-.745-1.948,2.874,2.874,0,0,0-2.078-.72,3.471,3.471,0,0,0-3.009,1.518,7.78,7.78,0,0,0-1.074,4.5,7.234,7.234,0,0,0,1.2,4.473,3.956,3.956,0,0,0,3.322,1.569,4.126,4.126,0,0,0,2.171-.511,4.873,4.873,0,0,0,1.543-1.66l2.616,1.857a7.066,7.066,0,0,1-2.577,2.746A7.917,7.917,0,0,1,45.27,227.475Z" transform="translate(-0.766 -180.712)" fill="#001a70" stroke="#001a70" stroke-miterlimit="10" stroke-width="0.25"/>
  </g>
</svg>
