<svg xmlns="http://www.w3.org/2000/svg" viewBox="0 0 57.01 101.52"><defs><style>.cls-1{fill:none;stroke:#000;stroke-linecap:round;stroke-linejoin:round;stroke-width:2px;}</style></defs><g id="Laag_2" data-name="Laag 2"><g id="Laag_1-2" data-name="Laag 1"><path class="cls-1" d="M45,51H21.37"/><path class="cls-1" d="M44,54.5H22"/><path class="cls-1" d="M22,79H44"/><path class="cls-1" d="M21,100V32.25H45V100"/><path class="cls-1" d="M33,1c-.67,3.17-1.27,6.35-2,9.49-.4,1.69-1.07,3.31-1.95,6L37,16"/><path class="cls-1" d="M33,83v17"/><path class="cls-1" d="M38,83v17"/><path class="cls-1" d="M38,59V75.5"/><path class="cls-1" d="M33,59V75.5"/><path class="cls-1" d="M28,59V75.5"/><path class="cls-1" d="M28,84v16"/><path class="cls-1" d="M40.51,25.5H24V32"/><path class="cls-1" d="M33.51,4c2.83,7.5,5.46,15,8.11,22.54.57,1.63.39,3.63.39,5.46"/><path class="cls-1" d="M29.51,17l-2.08,2.5H37.51"/><path class="cls-1" d="M14,100c5.83.17,11.66.42,17.5.48,8.16.08,16.33,0,24.5,0"/><path class="cls-1" d="M22,76H44"/><path class="cls-1" d="M28,19.5l-2,5"/><path class="cls-1" d="M33,38l1,5"/><path class="cls-1" d="M8,100.26l-7,0"/><path class="cls-1" d="M33,35c-4.53,1.31-7,4-5.77,9.25,3.53,4,6.41,4.89,9.27,2.75,4.64-3.47,3.3-8.83-3-12"/><path class="cls-1" d="M41.62,25.5V32"/></g></g></svg>