<svg xmlns="http://www.w3.org/2000/svg" viewBox="0 0 76.16 101"><defs><style>.cls-1{fill:none;stroke:#000;stroke-linecap:round;stroke-linejoin:round;stroke-width:2px;}</style></defs><g id="Laag_2" data-name="Laag 2"><g id="Laag_1-2" data-name="Laag 1"><path class="cls-1" d="M58.16,89c3.09-1,2.14-3.59,1.9-5.48-.35-2.7-1.41-5.31-2.25-8.27H10.63c-.78,2.92-1.73,6.07-2.44,9.26-.52,2.36-.07,4.35,3,4.49"/><path class="cls-1" d="M1.16,100h60"/><path class="cls-1" d="M46.66,76c.31,4,.62,8,1,12.5H58.16v11"/><path class="cls-1" d="M37.16,99.5c-.09-2.86.82-6.13-3.24-7.58-2.49,1.74-3.45,4-2.26,7.08"/><path class="cls-1" d="M18.16,62V74.5"/><path class="cls-1" d="M50.16,62V74.5"/><path class="cls-1" d="M53.66,76q1,6,2,12"/><path class="cls-1" d="M29.66,76q-.26,6-.5,12"/><path class="cls-1" d="M39.16,76q.26,6,.5,12"/><path class="cls-1" d="M22.16,76l-1.5,12"/><path class="cls-1" d="M15.16,76c-1.63,4.41-.36,9.38-3.72,13.72-1.61,2.08-.28,6.45-.28,9.78"/><path class="cls-1" d="M28.16,53l12,.5"/><path class="cls-1" d="M54.16,7.5l3.34,4.69L63.15,4.7l4.13,4.14-5.44,5.82L57.56,11,47,22.93,49.66,27"/><path class="cls-1" d="M15.66,28.5l3.54-1.77c1.06,1.66,2.41,3.8,3.77,5.94l2.13-.21,6.46-8.56c-7.32-7.31-15-15-22.9-22.9L1,8.66,17.66,25.5"/><path class="cls-1" d="M36.16,31.5l-4.75-.65V37c1.58,0,3.84.65,5.13-.19s3.09-3.14.12-4.81"/><path class="cls-1" d="M13.66,88.5h33.5"/><path class="cls-1" d="M75.16,100h-10"/><path class="cls-1" d="M42.66,19l4.69,3.35L39.86,28,44,32.14l5.19-4.67,4.21.91v9.33l-6.25.79"/><path class="cls-1" d="M15.16,31v6.74l6,.76"/><path class="cls-1" d="M38.66,41.5l-2.45,1.08L60.65,66c0,.66,0,1.33,0,2l2-3.5"/><path class="cls-1" d="M13.66,62.5,8.44,68.09l-3.76-3.6,1.21-.76,5.22-5.21,2.55,2"/><path class="cls-1" d="M19.16,42.5l3.34,4.69,5.88-7.79,3.69,5.21L27.66,48.5"/><path class="cls-1" d="M51.16,43.5l17,17-3.45,2"/><path class="cls-1" d="M63.66,4.5,59.48,1.18C51.83,8.83,44.25,16.42,36.41,24.25c1.1,1.37,2.23,2.77,3.59,4.48L36.66,31.5"/><path class="cls-1" d="M20.66,55.5l-4.61-3.66L10.5,59.19,7.16,54.5"/><path class="cls-1" d="M17.16,43.5,1.34,59.32,4.66,63.5"/><path class="cls-1" d="M11.16,11.5l5.5,5"/><path class="cls-1" d="M19.66,56.5c-1.67,1.67-3.33,3.34-5,5"/><path class="cls-1" d="M18.16,39c.17,3.5.33,7,.5,10.5"/><path class="cls-1" d="M50.16,39V52.63l5.5-4.13"/><path class="cls-1" d="M60.66,15.5c-1.33,1.34-2.67,2.67-4,4"/><path class="cls-1" d="M19.16,30l-9,.5"/><path class="cls-1" d="M48.66,55.5l2.85-3.43,5.15,4.43"/><path class="cls-1" d="M61.66,54.5l-7,6.5"/><path class="cls-1" d="M41.66,41.5l3.85,4.33,3.65-3.33"/><path class="cls-1" d="M58.16,58.5l4.5,4"/><path class="cls-1" d="M25.66,50.5c-1.33,1.34-2.67,2.67-4,4"/><path class="cls-1" d="M54.66,21.5c-1.33,1.34-2.67,2.67-4,4"/><path class="cls-1" d="M17.66,17.5c1.33,1.34,2.67,2.67,4,4"/><path class="cls-1" d="M14.66,7.5l-7,7"/><path class="cls-1" d="M5.16,5.5l4.5,4"/><path class="cls-1" d="M19.16,41.5c1.67-1.66,3.33-3.33,5.13-5.13l5.29,3.93c.5-.87,1-1.84,1.58-2.8"/><path class="cls-1" d="M13.16,48.5l3.34,4.69,5.55-7.35,4.61,3.66"/><path class="cls-1" d="M42.66,25.5l-3-2"/><path class="cls-1" d="M28.66,23.5,25,25.33c-.55-.65-1.45-1.74-2.35-2.83"/><path class="cls-1" d="M20.66,13.5l-7,6"/><path class="cls-1" d="M48.66,48.5l-3.24-2.33L42.66,49.5"/><path class="cls-1" d="M37.16,22.5h-6"/><path class="cls-1" d="M49.16,41.5l-5-5-3,3"/><path class="cls-1" d="M48.66,13l2,2.5"/><path class="cls-1" d="M54.66,19.5l-2-2"/><path class="cls-1" d="M25.66,19l-2,2.5"/><path class="cls-1" d="M26.66,26.5c.33.67.67,1.34,1,2"/><path class="cls-1" d="M21.66,23.5l-2,2"/><path class="cls-1" d="M32.16,59c-.42,2.46-.84,4.92-1.33,7.75h6.08V59H32.66"/></g></g></svg>