<svg xmlns="http://www.w3.org/2000/svg" viewBox="0 0 100.78 99.22"><defs><style>.cls-1{fill:none;stroke:#000;stroke-linecap:round;stroke-linejoin:round;stroke-width:2px;}</style></defs><g id="Laag_2" data-name="Laag 2"><g id="Laag_1-2" data-name="Laag 1"><path class="cls-1" d="M96.47,41.72c-1.61,6-6.5,6.9-11.5,6.94-17.84.14-35.67.06-53.5.06"/><path class="cls-1" d="M82.47,73.72h-64"/><path class="cls-1" d="M73.47,24.72c5.1-.34,10-1.11,13.44-6.37-4.06-.58-7.83-.81-11.42-1.74-2.47-.63-4.66-2.3-7-3.37-1.77-.79-3.64-1.89-5.49-1.93-9.49-.2-19-.09-28.25-.09-5.34,6.88-12.65,6.61-20.15,6.46C17,24,22.18,24.49,27,24.61c12.16.31,24.33.11,36.5.11"/><path class="cls-1" d="M20,61.22c-5.06,5.41-11.88,5.41-19,5.63,2.24,4.2,5.32,5.85,9.47,5.91a10.9,10.9,0,0,1,3,1"/><path class="cls-1" d="M22.47,91.72H93.22v6.5H7.72V91.47H22.47v5.75"/><path class="cls-1" d="M75,85.72c1.42,3.84,4.72,1.12,7.25,2.29V80H75v5.25"/><path class="cls-1" d="M21,60.22c8.33-.17,16.66-.41,25-.48q15-.14,30,0c1.67,0,4,0,4.89,1.05C85.57,66,91.58,66.75,98,66.73a9.64,9.64,0,0,1,1.81.39c-2.22,6.12-8,5.09-12.31,6.6"/><path class="cls-1" d="M17.47,48.72c-4.72.05-9.15-.58-12.47-5.41,7.47-1.43,15.22-1.38,20-7.59H76c4.72,6.4,12.55,5.78,19.52,7.5"/><path class="cls-1" d="M30,52.72h59.5"/><path class="cls-1" d="M18.47,27.72h64"/><path class="cls-1" d="M5.47,76.72h91"/><path class="cls-1" d="M15.47,77.72v13"/><path class="cls-1" d="M29.47,77.72v13"/><path class="cls-1" d="M43.47,77.72v13"/><path class="cls-1" d="M57.47,77.72q.24,6.5.5,13"/><path class="cls-1" d="M71.47,77.72v13"/><path class="cls-1" d="M85.47,77.72q.24,6.5.5,13"/><path class="cls-1" d="M62,10.72,50.63,1,39,10.72"/><path class="cls-1" d="M75.47,45.72h-11"/><path class="cls-1" d="M11.47,52.72h18v7"/><path class="cls-1" d="M31.47,69.72h-9"/><path class="cls-1" d="M29.47,28.72v6.5"/><path class="cls-1" d="M43.47,28.72v6.5"/><path class="cls-1" d="M58,28.72q-.26,3.24-.5,6.5"/><path class="cls-1" d="M72,28.72q-.25,3.24-.5,6.5"/><path class="cls-1" d="M43.47,53.22v6.5"/><path class="cls-1" d="M71.47,53.22v6.5"/><path class="cls-1" d="M54.47,18.72h-6"/><path class="cls-1" d="M57.47,53.22v6"/><path class="cls-1" d="M36.47,92.22v5.5"/><path class="cls-1" d="M50.47,92.22v5.5"/><path class="cls-1" d="M64.47,92.22v5.5"/><path class="cls-1" d="M78.47,92.22c.16,1.83.33,3.66.5,5.5"/><path class="cls-1" d="M59.47,45.72h-5"/><path class="cls-1" d="M48.47,6.72l-4.5,4"/><path class="cls-1" d="M41.47,15.72h-5"/><path class="cls-1" d="M43.47,40.72h-4"/><path class="cls-1" d="M63.47,66.72h-4"/><path class="cls-1" d="M68.47,31.72v3.5"/><path class="cls-1" d="M54.47,31.72v3.5"/><path class="cls-1" d="M48.47,79.72c-4.24,1.54.3,5.43-2.94,7.75h8.69V79.72H49"/><path class="cls-1" d="M62.47,79.72l-2.32,7.75h8.07V79.72H63"/><path class="cls-1" d="M20.47,79.72c-4.31,1.73,0,5.2-2,7.75h7.77V79.72H21"/><path class="cls-1" d="M34.47,79.72c-.68,2.46-1.35,4.92-2.12,7.75h7.87V79.72H35"/></g></g></svg>