<svg xmlns="http://www.w3.org/2000/svg" xmlns:xlink="http://www.w3.org/1999/xlink" width="65.088" height="48.387" viewBox="0 0 65.088 48.387">
  <defs>
    <clipPath id="clip-path">
      <rect id="Rectangle_120" data-name="Rectangle 120" width="65.088" height="46.887" transform="translate(0 1)" fill="#001a70"/>
    </clipPath>
  </defs>
  <g id="Component_99_1" data-name="Component 99 – 1" transform="translate(0 0.5)">
    <g id="Group_57" data-name="Group 57" transform="translate(0 0)">
      <path id="Path_298" data-name="Path 298" d="M6.366,0V23.778h4.756V4.756H34.9V19.022H49.166v4.756h4.756v-8.47L39.606,0Z" fill="#001a70" stroke="#001a70" stroke-width="1"/>
      <g id="Group_56" data-name="Group 56">
        <g id="Group_55" data-name="Group 55" clip-path="url(#clip-path)">
          <path id="Path_299" data-name="Path 299" d="M5.025,46.632a6.626,6.626,0,0,1-2.956-.606A5.122,5.122,0,0,1,.16,44.5l2.3-2.7a5.047,5.047,0,0,0,1.058.942,2.618,2.618,0,0,0,1.452.366,2.1,2.1,0,0,0,1.713-.744A3.258,3.258,0,0,0,7.3,40.229V28.166h3.845V40.2a6.712,6.712,0,0,1-1.569,4.748,5.912,5.912,0,0,1-4.551,1.687" fill="#001a70"/>
          <path id="Path_300" data-name="Path 300" d="M5.025,46.632a6.626,6.626,0,0,1-2.956-.606A5.122,5.122,0,0,1,.16,44.5l2.3-2.7a5.047,5.047,0,0,0,1.058.942,2.618,2.618,0,0,0,1.452.366,2.1,2.1,0,0,0,1.713-.744A3.258,3.258,0,0,0,7.3,40.229V28.166h3.845V40.2a6.712,6.712,0,0,1-1.569,4.748A5.912,5.912,0,0,1,5.025,46.632Z" fill="#001a70" stroke="#001a70" stroke-miterlimit="10" stroke-width="0.25"/>
          <path id="Path_301" data-name="Path 301" d="M20.717,46.762q-5.047,0-7.3-2.956l2.433-2.589a6.272,6.272,0,0,0,2.222,1.726,6.536,6.536,0,0,0,2.695.549,4.712,4.712,0,0,0,2.523-.523,1.7,1.7,0,0,0,.8-1.517,1.886,1.886,0,0,0-.222-.942,1.966,1.966,0,0,0-.719-.692,5.484,5.484,0,0,0-1.308-.536q-.811-.237-1.962-.472a15.712,15.712,0,0,1-2.236-.614,6.914,6.914,0,0,1-1.87-.995,4.537,4.537,0,0,1-1.3-1.543,4.9,4.9,0,0,1-.484-2.289,5.035,5.035,0,0,1,.484-2.21,5.091,5.091,0,0,1,1.374-1.739,6.416,6.416,0,0,1,2.157-1.137,9.181,9.181,0,0,1,2.811-.406,12.631,12.631,0,0,1,2.525.248,6.376,6.376,0,0,1,2.132.825,4.325,4.325,0,0,1,1.465,1.53,4.628,4.628,0,0,1,.548,2.341c0,.192-.008.378-.026.562a3.46,3.46,0,0,1-.1.563l-3.5-.027a1.458,1.458,0,0,0,.052-.34V33.24a1.692,1.692,0,0,0-.889-1.6,4.28,4.28,0,0,0-2.118-.5q-3.06,0-3.061,2.066a1.59,1.59,0,0,0,.249.915,2.052,2.052,0,0,0,.772.641,6.325,6.325,0,0,0,1.307.484c.523.14,1.151.287,1.883.445a16.566,16.566,0,0,1,2.328.654,6.766,6.766,0,0,1,1.858,1.007A4.425,4.425,0,0,1,27.479,38.9a5.1,5.1,0,0,1,.458,2.262,5.3,5.3,0,0,1-.511,2.354,4.881,4.881,0,0,1-1.451,1.765,6.71,6.71,0,0,1-2.276,1.1,10.886,10.886,0,0,1-2.982.38" fill="#001a70"/>
          <path id="Path_302" data-name="Path 302" d="M20.717,46.762q-5.047,0-7.3-2.956l2.433-2.589a6.272,6.272,0,0,0,2.222,1.726,6.536,6.536,0,0,0,2.695.549,4.712,4.712,0,0,0,2.523-.523,1.7,1.7,0,0,0,.8-1.517,1.886,1.886,0,0,0-.222-.942,1.966,1.966,0,0,0-.719-.692,5.484,5.484,0,0,0-1.308-.536q-.811-.237-1.962-.472a15.712,15.712,0,0,1-2.236-.614,6.914,6.914,0,0,1-1.87-.995,4.537,4.537,0,0,1-1.3-1.543,4.9,4.9,0,0,1-.484-2.289,5.035,5.035,0,0,1,.484-2.21,5.091,5.091,0,0,1,1.374-1.739,6.416,6.416,0,0,1,2.157-1.137,9.181,9.181,0,0,1,2.811-.406,12.631,12.631,0,0,1,2.525.248,6.376,6.376,0,0,1,2.132.825,4.325,4.325,0,0,1,1.465,1.53,4.628,4.628,0,0,1,.548,2.341c0,.192-.008.378-.026.562a3.46,3.46,0,0,1-.1.563l-3.5-.027a1.458,1.458,0,0,0,.052-.34V33.24a1.692,1.692,0,0,0-.889-1.6,4.28,4.28,0,0,0-2.118-.5q-3.06,0-3.061,2.066a1.59,1.59,0,0,0,.249.915,2.052,2.052,0,0,0,.772.641,6.325,6.325,0,0,0,1.307.484c.523.14,1.151.287,1.883.445a16.566,16.566,0,0,1,2.328.654,6.766,6.766,0,0,1,1.858,1.007A4.425,4.425,0,0,1,27.479,38.9a5.1,5.1,0,0,1,.458,2.262,5.3,5.3,0,0,1-.511,2.354,4.881,4.881,0,0,1-1.451,1.765,6.71,6.71,0,0,1-2.276,1.1A10.886,10.886,0,0,1,20.717,46.762Z" fill="#001a70" stroke="#001a70" stroke-miterlimit="10" stroke-width="0.25"/>
          <path id="Path_303" data-name="Path 303" d="M50.708,28.166h3.427L60.83,39.334l.5,1.1V28.166h3.636V46.475h-3.4L54.736,35.306l-.366-.863V46.475H50.708Z" fill="#001a70"/>
          <path id="Path_304" data-name="Path 304" d="M50.708,28.166h3.427L60.83,39.334l.5,1.1V28.166h3.636V46.475h-3.4L54.736,35.306l-.366-.863V46.475H50.708Z" fill="#001a70" stroke="#001a70" stroke-miterlimit="10" stroke-width="0.25"/>
          <path id="Path_305" data-name="Path 305" d="M38.822,46.3a9.577,9.577,0,0,1-3.257-.55A7.148,7.148,0,0,1,32.9,44.062a8.067,8.067,0,0,1-1.8-2.917,12.069,12.069,0,0,1-.667-4.238,11.814,11.814,0,0,1,.667-4.158,8.5,8.5,0,0,1,1.818-2.969A7.337,7.337,0,0,1,35.6,28a9.186,9.186,0,0,1,3.3-.589,9.576,9.576,0,0,1,3.257.549,7,7,0,0,1,2.668,1.714,8.344,8.344,0,0,1,1.805,2.942,12.179,12.179,0,0,1,.667,4.264,11.732,11.732,0,0,1-.667,4.146,8.4,8.4,0,0,1-1.819,2.942,7.276,7.276,0,0,1-2.694,1.752,9.342,9.342,0,0,1-3.3.576m0-3.374a4.575,4.575,0,0,0,1.687-.314,3.564,3.564,0,0,0,1.413-1.034,5.176,5.176,0,0,0,.967-1.87,9.715,9.715,0,0,0,.353-2.824,9.839,9.839,0,0,0-.353-2.852,5.289,5.289,0,0,0-.942-1.856,3.3,3.3,0,0,0-1.386-1.008,4.684,4.684,0,0,0-1.661-.3,4.542,4.542,0,0,0-1.686.315,3.515,3.515,0,0,0-1.4,1.019,5.32,5.32,0,0,0-.968,1.858,9.491,9.491,0,0,0-.366,2.85,9.73,9.73,0,0,0,.353,2.826,5.328,5.328,0,0,0,.941,1.857,3.443,3.443,0,0,0,1.374,1.02,4.465,4.465,0,0,0,1.674.314" transform="translate(0 0.334)" fill="#001a70" stroke="#001a70" stroke-width="0.25"/>
        </g>
      </g>
    </g>
  </g>
</svg>
