<svg xmlns="http://www.w3.org/2000/svg" width="48.556" height="47.475" viewBox="0 0 48.556 47.475">
  <g id="Component_102_1" data-name="Component 102 – 1" transform="translate(0.5 0.5)">
    <path id="Path_275" data-name="Path 275" d="M7.9,363.8H31.678V378.07H45.945v4.755H50.7v-8.469L36.384,359.047H3.144v23.778H7.9Z" transform="translate(-3.144 -359.047)" fill="#001a70" stroke="#001a70" stroke-width="1"/>
    <path id="Path_276" data-name="Path 276" d="M3.443,387.213H9.878a8.471,8.471,0,0,1,5.309,1.516,5.61,5.61,0,0,1,1.962,4.735,6.561,6.561,0,0,1-.536,2.758,5.307,5.307,0,0,1-1.465,1.923,6.285,6.285,0,0,1-2.184,1.138,9.171,9.171,0,0,1-2.668.379H7.314v5.859H3.443Zm6.251,9.363q3.558,0,3.558-3.086a3.046,3.046,0,0,0-.9-2.289,3.866,3.866,0,0,0-2.785-.876H7.314v6.251Z" transform="translate(-3.144 -359.047)" fill="#001a70" stroke="#001a70" stroke-width="1"/>
    <path id="Path_277" data-name="Path 277" d="M3.443,387.213H9.878a8.471,8.471,0,0,1,5.309,1.516,5.61,5.61,0,0,1,1.962,4.735,6.561,6.561,0,0,1-.536,2.758,5.307,5.307,0,0,1-1.465,1.923,6.285,6.285,0,0,1-2.184,1.138,9.171,9.171,0,0,1-2.668.379H7.314v5.859H3.443Zm6.251,9.363q3.558,0,3.558-3.086a3.046,3.046,0,0,0-.9-2.289,3.866,3.866,0,0,0-2.785-.876H7.314v6.251Z" transform="translate(-3.144 -359.047)" fill="#001a70" stroke="#001a70" stroke-miterlimit="10" stroke-width="0.25"/>
    <path id="Path_278" data-name="Path 278" d="M19.66,387.213H25.6a13.353,13.353,0,0,1,3.728.5,7.807,7.807,0,0,1,2.969,1.583,7.274,7.274,0,0,1,1.96,2.824,11.3,11.3,0,0,1,.708,4.251,10.707,10.707,0,0,1-.759,4.263,7.813,7.813,0,0,1-2,2.838,7.614,7.614,0,0,1-2.852,1.57,11.439,11.439,0,0,1-3.308.483H19.66Zm5.99,15.117a5.177,5.177,0,0,0,3.871-1.438,5.93,5.93,0,0,0,1.412-4.316,7.138,7.138,0,0,0-1.3-4.525q-1.295-1.647-4.276-1.648H23.531V402.33Z" transform="translate(-3.144 -359.047)" fill="#001a70" stroke="#001a70" stroke-width="1"/>
    <path id="Path_279" data-name="Path 279" d="M19.66,387.213H25.6a13.353,13.353,0,0,1,3.728.5,7.807,7.807,0,0,1,2.969,1.583,7.274,7.274,0,0,1,1.96,2.824,11.3,11.3,0,0,1,.708,4.251,10.707,10.707,0,0,1-.759,4.263,7.813,7.813,0,0,1-2,2.838,7.614,7.614,0,0,1-2.852,1.57,11.439,11.439,0,0,1-3.308.483H19.66Zm5.99,15.117a5.177,5.177,0,0,0,3.871-1.438,5.93,5.93,0,0,0,1.412-4.316,7.138,7.138,0,0,0-1.3-4.525q-1.295-1.647-4.276-1.648H23.531V402.33Z" transform="translate(-3.144 -359.047)" fill="#001a70" stroke="#001a70" stroke-miterlimit="10" stroke-width="0.25"/>
    <path id="Path_280" data-name="Path 280" d="M37.812,387.213h11.8v3.53H41.682v4.552h6.644v3.53H41.682v6.7H37.812Z" transform="translate(-3.144 -359.047)" fill="#001a70" stroke="#001a70" stroke-width="1"/>
    <path id="Path_281" data-name="Path 281" d="M37.812,387.213h11.8v3.53H41.682v4.552h6.644v3.53H41.682v6.7H37.812Z" transform="translate(-3.144 -359.047)" fill="#001a70" stroke="#001a70" stroke-miterlimit="10" stroke-width="0.25"/>
  </g>
</svg>
