<svg xmlns="http://www.w3.org/2000/svg" viewBox="0 0 72.96 100.93"><defs><style>.cls-1{fill:none;stroke:#000;stroke-linecap:round;stroke-linejoin:round;stroke-width:2px;}</style></defs><g id="Laag_2" data-name="Laag 2"><g id="Laag_1-2" data-name="Laag 1"><path class="cls-1" d="M20.49,56H52"/><path class="cls-1" d="M1,99.93H72"/><path class="cls-1" d="M43.48,41c-.8-7.15-1.59-14.29-2.42-21.73H31V29.48"/><path class="cls-1" d="M29,59v27"/><path class="cls-1" d="M44,59v27"/><path class="cls-1" d="M34,59v27"/><path class="cls-1" d="M39,59v27"/><path class="cls-1" d="M44,92.43l5,.69V71.2H62V92.43"/><path class="cls-1" d="M20.49,92.93l3.25-.4V71H10.5v21"/><path class="cls-1" d="M24,92.43c13.21,1.39,18.23.89,20.29-2.5-4.79,0-9.29-.08-13.79.09-.69,0-1.34,1.25-2,1.91"/><path class="cls-1" d="M53,70.45V42H19.49V70"/><path class="cls-1" d="M36,1q.26,7.74.5,15.49"/><path class="cls-1" d="M49,95.93H35"/><path class="cls-1" d="M38.48,24C36,21.6,34.3,21.43,33.85,25.49c2.07,1.62,3.65,1.64,4.63-1"/><path class="cls-1" d="M23,88.93H11.49"/><path class="cls-1" d="M50,88.93H61"/><path class="cls-1" d="M41.48,29.48l-12.58.91c.2,3.59.39,7.08.59,10.58"/><path class="cls-1" d="M49,92.43l16,.75v6.25"/><path class="cls-1" d="M20,99.43v-6.5H8v6.5"/><path class="cls-1" d="M24,59v8"/><path class="cls-1" d="M49,59v8"/><path class="cls-1" d="M31,95.93H24"/><path class="cls-1" d="M52,93.43v6"/><path class="cls-1" d="M59,78.94v6"/><path class="cls-1" d="M55,78.94v6"/><path class="cls-1" d="M52,78.94v6"/><path class="cls-1" d="M20,78.94v6"/><path class="cls-1" d="M17,78.94v6"/><path class="cls-1" d="M14,78.94v6"/><path class="cls-1" d="M36,45v5"/><path class="cls-1" d="M23,45v4.49"/><path class="cls-1" d="M27,45v4.49"/><path class="cls-1" d="M32,45v4.49"/><path class="cls-1" d="M41,45v4.49"/><path class="cls-1" d="M45,45v4.49"/><path class="cls-1" d="M50,45v4.49"/><path class="cls-1" d="M52,50H20.49"/><path class="cls-1" d="M40,33l-.47,3.1H38.45c-.15-1-.31-2.07-.47-3.1"/><path class="cls-1" d="M30,36h7.49"/></g></g></svg>