<svg xmlns="http://www.w3.org/2000/svg" width="50.13" height="53.569" viewBox="0 0 50.13 53.569">
  <g id="Component_101_1" data-name="Component 101 – 1" transform="translate(0.5 0.5)">
    <path id="Path_261" data-name="Path 261" d="M5.522,244.913H29.3V259.18H43.567v4.755h4.755v-8.469L34.006,240.157H.766v23.778H5.522Z" transform="translate(-0.766 -240.157)" fill="#001a70" stroke="#001a70" stroke-width="1"/>
    <path id="Path_262" data-name="Path 262" d="M9.354,286.92q-5.048,0-7.3-2.956l2.433-2.589A6.272,6.272,0,0,0,6.712,283.1a6.536,6.536,0,0,0,2.695.549,4.712,4.712,0,0,0,2.523-.523,1.7,1.7,0,0,0,.8-1.517,1.886,1.886,0,0,0-.222-.942,1.966,1.966,0,0,0-.719-.692,5.484,5.484,0,0,0-1.308-.536q-.812-.237-1.962-.472a15.71,15.71,0,0,1-2.236-.614,6.914,6.914,0,0,1-1.87-.995,4.548,4.548,0,0,1-1.295-1.543,4.9,4.9,0,0,1-.484-2.289,5.035,5.035,0,0,1,.484-2.21,5.092,5.092,0,0,1,1.374-1.739,6.416,6.416,0,0,1,2.157-1.137,9.181,9.181,0,0,1,2.811-.406,12.633,12.633,0,0,1,2.525.248,6.376,6.376,0,0,1,2.132.825,4.316,4.316,0,0,1,1.465,1.53,4.628,4.628,0,0,1,.548,2.341c0,.192-.008.378-.026.562a3.46,3.46,0,0,1-.1.563l-3.505-.027a1.458,1.458,0,0,0,.052-.34V273.4a1.692,1.692,0,0,0-.889-1.6,4.28,4.28,0,0,0-2.118-.5q-3.06,0-3.061,2.066a1.59,1.59,0,0,0,.249.915,2.052,2.052,0,0,0,.772.641,6.326,6.326,0,0,0,1.307.484c.523.14,1.151.287,1.883.445a16.564,16.564,0,0,1,2.328.654,6.766,6.766,0,0,1,1.858,1.007,4.425,4.425,0,0,1,1.242,1.543,5.1,5.1,0,0,1,.458,2.262,5.3,5.3,0,0,1-.511,2.354,4.881,4.881,0,0,1-1.451,1.765,6.71,6.71,0,0,1-2.276,1.1,10.886,10.886,0,0,1-2.982.38" transform="translate(-0.766 -240.157)" fill="#001a70" stroke="#001a70" stroke-width="1"/>
    <path id="Path_263" data-name="Path 263" d="M9.354,286.92q-5.048,0-7.3-2.956l2.433-2.589A6.272,6.272,0,0,0,6.712,283.1a6.536,6.536,0,0,0,2.695.549,4.712,4.712,0,0,0,2.523-.523,1.7,1.7,0,0,0,.8-1.517,1.886,1.886,0,0,0-.222-.942,1.966,1.966,0,0,0-.719-.692,5.484,5.484,0,0,0-1.308-.536q-.812-.237-1.962-.472a15.71,15.71,0,0,1-2.236-.614,6.914,6.914,0,0,1-1.87-.995,4.548,4.548,0,0,1-1.295-1.543,4.9,4.9,0,0,1-.484-2.289,5.035,5.035,0,0,1,.484-2.21,5.092,5.092,0,0,1,1.374-1.739,6.416,6.416,0,0,1,2.157-1.137,9.181,9.181,0,0,1,2.811-.406,12.633,12.633,0,0,1,2.525.248,6.376,6.376,0,0,1,2.132.825,4.316,4.316,0,0,1,1.465,1.53,4.628,4.628,0,0,1,.548,2.341c0,.192-.008.378-.026.562a3.46,3.46,0,0,1-.1.563l-3.505-.027a1.458,1.458,0,0,0,.052-.34V273.4a1.692,1.692,0,0,0-.889-1.6,4.28,4.28,0,0,0-2.118-.5q-3.06,0-3.061,2.066a1.59,1.59,0,0,0,.249.915,2.052,2.052,0,0,0,.772.641,6.326,6.326,0,0,0,1.307.484c.523.14,1.151.287,1.883.445a16.564,16.564,0,0,1,2.328.654,6.766,6.766,0,0,1,1.858,1.007,4.425,4.425,0,0,1,1.242,1.543,5.1,5.1,0,0,1,.458,2.262,5.3,5.3,0,0,1-.511,2.354,4.881,4.881,0,0,1-1.451,1.765,6.71,6.71,0,0,1-2.276,1.1A10.886,10.886,0,0,1,9.354,286.92Z" transform="translate(-0.766 -240.157)" fill="#001a70" stroke="#001a70" stroke-miterlimit="10" stroke-width="0.25"/>
    <path id="Path_264" data-name="Path 264" d="M28.919,286.684q.786,2.589,4.447,2.589v3.453a10.143,10.143,0,0,1-3.479-.536,7.748,7.748,0,0,1-2.433-1.374,6.037,6.037,0,0,1-1.491-1.9,7.165,7.165,0,0,1-.679-2.107,8.575,8.575,0,0,1-2.734-.862,6.878,6.878,0,0,1-2.2-1.792,8.351,8.351,0,0,1-1.451-2.785,12.7,12.7,0,0,1-.524-3.846,11.833,11.833,0,0,1,.667-4.158,8.51,8.51,0,0,1,1.819-2.969,7.324,7.324,0,0,1,2.693-1.778,9.16,9.16,0,0,1,3.3-.589,9.552,9.552,0,0,1,3.257.549,6.984,6.984,0,0,1,2.668,1.714,8.319,8.319,0,0,1,1.8,2.942,13.657,13.657,0,0,1,.183,7.82,9.045,9.045,0,0,1-1.32,2.707,7.286,7.286,0,0,1-2,1.87,8.156,8.156,0,0,1-2.525,1.047m-6.486-9.155a9.723,9.723,0,0,0,.353,2.825,5.307,5.307,0,0,0,.941,1.858,3.45,3.45,0,0,0,1.374,1.019,4.462,4.462,0,0,0,1.674.315,4.566,4.566,0,0,0,1.686-.315,3.557,3.557,0,0,0,1.413-1.033,5.178,5.178,0,0,0,.968-1.87,9.72,9.72,0,0,0,.353-2.824,9.839,9.839,0,0,0-.353-2.852A5.289,5.289,0,0,0,29.9,272.8a3.309,3.309,0,0,0-1.386-1.008,4.684,4.684,0,0,0-1.661-.3,4.571,4.571,0,0,0-1.687.314,3.5,3.5,0,0,0-1.4,1.02,5.307,5.307,0,0,0-.968,1.857,9.5,9.5,0,0,0-.366,2.851" transform="translate(-0.766 -240.157)" fill="#001a70" stroke="#001a70" stroke-width="1"/>
    <path id="Path_265" data-name="Path 265" d="M28.919,286.684q.786,2.589,4.447,2.589v3.453a10.143,10.143,0,0,1-3.479-.536,7.748,7.748,0,0,1-2.433-1.374,6.037,6.037,0,0,1-1.491-1.9,7.165,7.165,0,0,1-.679-2.107,8.575,8.575,0,0,1-2.734-.862,6.878,6.878,0,0,1-2.2-1.792,8.351,8.351,0,0,1-1.451-2.785,12.7,12.7,0,0,1-.524-3.846,11.833,11.833,0,0,1,.667-4.158,8.51,8.51,0,0,1,1.819-2.969,7.324,7.324,0,0,1,2.693-1.778,9.16,9.16,0,0,1,3.3-.589,9.552,9.552,0,0,1,3.257.549,6.984,6.984,0,0,1,2.668,1.714,8.319,8.319,0,0,1,1.8,2.942,13.657,13.657,0,0,1,.183,7.82,9.045,9.045,0,0,1-1.32,2.707,7.286,7.286,0,0,1-2,1.87A8.156,8.156,0,0,1,28.919,286.684Zm-6.486-9.155a9.723,9.723,0,0,0,.353,2.825,5.307,5.307,0,0,0,.941,1.858,3.45,3.45,0,0,0,1.374,1.019,4.462,4.462,0,0,0,1.674.315,4.566,4.566,0,0,0,1.686-.315,3.557,3.557,0,0,0,1.413-1.033,5.178,5.178,0,0,0,.968-1.87,9.72,9.72,0,0,0,.353-2.824,9.839,9.839,0,0,0-.353-2.852A5.289,5.289,0,0,0,29.9,272.8a3.309,3.309,0,0,0-1.386-1.008,4.684,4.684,0,0,0-1.661-.3,4.571,4.571,0,0,0-1.687.314,3.5,3.5,0,0,0-1.4,1.02,5.307,5.307,0,0,0-.968,1.857A9.5,9.5,0,0,0,22.433,277.529Z" transform="translate(-0.766 -240.157)" fill="#001a70" stroke="#001a70" stroke-miterlimit="10" stroke-width="0.25"/>
    <path id="Path_266" data-name="Path 266" d="M38.1,268.323h3.871V283.1H49.9v3.532H38.1Z" transform="translate(-0.766 -240.157)" fill="#001a70" stroke="#001a70" stroke-width="1"/>
    <path id="Path_267" data-name="Path 267" d="M38.1,268.323h3.871V283.1H49.9v3.532H38.1Z" transform="translate(-0.766 -240.157)" fill="#001a70" stroke="#001a70" stroke-miterlimit="10" stroke-width="0.25"/>
  </g>
</svg>
