<svg xmlns="http://www.w3.org/2000/svg" width="48.556" height="47.475" viewBox="0 0 48.556 47.475">
  <g id="Component_96_1" data-name="Component 96 – 1" transform="translate(0.5 0.5)">
    <path id="Path_248" data-name="Path 248" d="M7.236,150.586H1.874v-3.53H16.286v3.53H11.107v14.778H7.236Z" transform="translate(-0.766 -118.889)" fill="#001a70" stroke="#001a70" stroke-width="1"/>
    <path id="Path_250" data-name="Path 250" d="M28.657,165.364l-4-6.7-3.923,6.7H16.469l6.042-9.338-5.676-8.971h4.446l3.662,6.147,3.557-6.147h4.29l-5.729,8.893,5.991,9.416Z" transform="translate(-0.766 -118.889)" fill="#001a70" stroke="#001a70" stroke-width="1"/>
    <path id="Path_252" data-name="Path 252" d="M38.675,150.586H33.313v-3.53H47.725v3.53H42.546v14.778H38.675Z" transform="translate(-0.766 -118.889)" fill="#001a70" stroke="#001a70" stroke-width="1"/>
    <g id="Group_42" data-name="Group 42" transform="translate(-1472.766 -316.277)">
      <path id="Path_247" data-name="Path 247" d="M5.522,123.645H29.3v14.267H43.567v4.755h4.755V134.2L34.006,118.889H.766v23.778H5.522Z" transform="translate(1472 197.387)" fill="#001a70" stroke="#001a70" stroke-width="1"/>
      <path id="Path_249" data-name="Path 249" d="M7.236,150.586H1.874v-3.53H16.286v3.53H11.107v14.778H7.236Z" transform="translate(1472 197.387)" fill="#001a70" stroke="#001a70" stroke-miterlimit="10" stroke-width="0.25"/>
      <path id="Path_251" data-name="Path 251" d="M28.657,165.364l-4-6.7-3.923,6.7H16.469l6.042-9.338-5.676-8.971h4.446l3.662,6.147,3.557-6.147h4.29l-5.729,8.893,5.991,9.416Z" transform="translate(1472 197.387)" fill="#001a70" stroke="#001a70" stroke-miterlimit="10" stroke-width="0.25"/>
      <path id="Path_253" data-name="Path 253" d="M38.675,150.586H33.313v-3.53H47.725v3.53H42.546v14.778H38.675Z" transform="translate(1472 197.387)" fill="#001a70" stroke="#001a70" stroke-miterlimit="10" stroke-width="0.25"/>
    </g>
  </g>
</svg>
