<svg xmlns="http://www.w3.org/2000/svg" viewBox="0 0 74.13 100.5"><defs><style>.cls-1{fill:none;stroke:#000;stroke-linecap:round;stroke-linejoin:round;stroke-width:2px;}</style></defs><g id="Laag_2" data-name="Laag 2"><g id="Laag_1-2" data-name="Laag 1"><path class="cls-1" d="M43.5,39.5c-1,9.83-1.83,19.68-5.51,29-.73,1.87-1.55,3.7-2.38,5.68L30,71"/><path class="cls-1" d="M34,39.5,29,43V82.5"/><path class="cls-1" d="M22.5,50c-2.32-1.55-3.22-6.14-6.47-4.13-3.46-1.48-6.19-3.46-9-3.68-3.75-.29-5.27,3-6,6.31"/><path class="cls-1" d="M48.5,53.5,39.77,76.64,36.5,75"/><path class="cls-1" d="M47.5,59.5v22"/><path class="cls-1" d="M24.5,99.5C24.17,96.84,24.76,95,28,95c8.17,0,16.33,0,25,0v4.5"/><path class="cls-1" d="M18.5,21l11,21"/><path class="cls-1" d="M39,16.5c-.24,1.66-.47,3.31-.71,5l4.54,3.37c.79,5.52,1.28,10.36,2.23,15.12s2.33,9.18,3.53,13.77l1.6.2,6.05-9.47L44.5,35"/><path class="cls-1" d="M19.5,1l-4,4.58,3.78,3.27c4.14-2,3-4.35,1.22-6.85"/><path class="cls-1" d="M50,95V82.5H26.86c.23,4.33.44,8.17.64,12"/><path class="cls-1" d="M33,45.5v13"/><path class="cls-1" d="M65,36.5c1.17,0,2.33,0,3.5,0,4.74-.16,5.61-1.8,3.67-6.12L63,26.21,53,32.5"/><path class="cls-1" d="M43.5,35.5l-5,2.49c-6.17-1.76-6.14-6.48-4.91-11.49H29.5"/><path class="cls-1" d="M24.5,19,32,32"/><path class="cls-1" d="M31,85.5v7"/><path class="cls-1" d="M35,85.5v7"/><path class="cls-1" d="M39,85.5v7"/><path class="cls-1" d="M42.5,85.5v7"/><path class="cls-1" d="M46,85.5v7"/><path class="cls-1" d="M45.5,81.5l-6-4.5"/><path class="cls-1" d="M48,25.5l-3.5,1"/><path class="cls-1" d="M33,62.5v4"/><path class="cls-1" d="M23.5,18l-4,2"/><path class="cls-1" d="M45,20.5l-3.5,3"/><path class="cls-1" d="M32,20.5l3.5,3"/><path class="cls-1" d="M49.5,40.5l-1.25,3.12L52,45.5"/><path class="cls-1" d="M22,15.5c-3.4-1.75-4.11.08-4,3"/><path class="cls-1" d="M38.5,22l-5,3.5"/><path class="cls-1" d="M50,49.5l1.5,1"/><path class="cls-1" d="M38,25.5c-2.69,3.7-2.69,3.7.73,7.24,2.78-2.57,4-4.91-.23-7.24"/></g></g></svg>