<svg xmlns="http://www.w3.org/2000/svg" width="48.556" height="47.762" viewBox="0 0 48.556 47.762">
  <g id="Component_97_1" data-name="Component 97 – 1" transform="translate(0.5 0.5)">
    <path id="Path_268" data-name="Path 268" d="M5.522,306.736H29.3V321H43.567v4.755h4.755v-8.469L34.006,301.98H.766v23.778H5.522Z" transform="translate(-0.766 -301.98)" fill="#001a70" stroke="#001a70" stroke-width="1"/>
    <path id="Path_269" data-name="Path 269" d="M13.618,348.454l-4-6.7-3.923,6.7H1.43l6.042-9.338L1.8,330.145H6.242L9.9,336.292l3.557-6.147h4.29l-5.729,8.893,5.991,9.416Z" transform="translate(-0.766 -301.98)" fill="#001a70" stroke="#001a70" stroke-width="1"/>
    <path id="Path_270" data-name="Path 270" d="M13.618,348.454l-4-6.7-3.923,6.7H1.43l6.042-9.338L1.8,330.145H6.242L9.9,336.292l3.557-6.147h4.29l-5.729,8.893,5.991,9.416Z" transform="translate(-0.766 -301.98)" fill="#001a70" stroke="#001a70" stroke-miterlimit="10" stroke-width="0.25"/>
    <path id="Path_271" data-name="Path 271" d="M19.843,330.146h3.871v14.777H31.64v3.532h-11.8Z" transform="translate(-0.766 -301.98)" fill="#001a70" stroke="#001a70" stroke-width="1"/>
    <path id="Path_272" data-name="Path 272" d="M19.843,330.146h3.871v14.777H31.64v3.532h-11.8Z" transform="translate(-0.766 -301.98)" fill="#001a70" stroke="#001a70" stroke-miterlimit="10" stroke-width="0.25"/>
    <path id="Path_273" data-name="Path 273" d="M39.8,348.742q-5.048,0-7.3-2.956l2.433-2.589a6.272,6.272,0,0,0,2.222,1.726,6.536,6.536,0,0,0,2.695.549,4.712,4.712,0,0,0,2.523-.523,1.7,1.7,0,0,0,.8-1.517,1.886,1.886,0,0,0-.222-.942,1.966,1.966,0,0,0-.719-.692,5.484,5.484,0,0,0-1.308-.536q-.812-.237-1.962-.472a15.714,15.714,0,0,1-2.236-.614,6.914,6.914,0,0,1-1.87-.995,4.537,4.537,0,0,1-1.295-1.543,4.9,4.9,0,0,1-.484-2.289,5.035,5.035,0,0,1,.484-2.21,5.091,5.091,0,0,1,1.374-1.739,6.416,6.416,0,0,1,2.157-1.137,9.181,9.181,0,0,1,2.811-.406,12.631,12.631,0,0,1,2.525.248,6.375,6.375,0,0,1,2.132.825,4.325,4.325,0,0,1,1.465,1.53,4.629,4.629,0,0,1,.548,2.341c0,.192-.008.378-.026.562a3.461,3.461,0,0,1-.1.563l-3.505-.027a1.457,1.457,0,0,0,.052-.34v-.339a1.692,1.692,0,0,0-.889-1.6,4.28,4.28,0,0,0-2.118-.5q-3.06,0-3.061,2.066a1.59,1.59,0,0,0,.249.915,2.052,2.052,0,0,0,.772.641,6.324,6.324,0,0,0,1.307.484c.523.14,1.151.287,1.883.445a16.564,16.564,0,0,1,2.328.654,6.766,6.766,0,0,1,1.858,1.007,4.425,4.425,0,0,1,1.242,1.543,5.1,5.1,0,0,1,.458,2.262,5.3,5.3,0,0,1-.511,2.354,4.881,4.881,0,0,1-1.451,1.765,6.71,6.71,0,0,1-2.276,1.1,10.886,10.886,0,0,1-2.982.38" transform="translate(-0.766 -301.98)" fill="#001a70" stroke="#001a70" stroke-width="1"/>
    <path id="Path_274" data-name="Path 274" d="M39.8,348.742q-5.048,0-7.3-2.956l2.433-2.589a6.272,6.272,0,0,0,2.222,1.726,6.536,6.536,0,0,0,2.695.549,4.712,4.712,0,0,0,2.523-.523,1.7,1.7,0,0,0,.8-1.517,1.886,1.886,0,0,0-.222-.942,1.966,1.966,0,0,0-.719-.692,5.484,5.484,0,0,0-1.308-.536q-.812-.237-1.962-.472a15.714,15.714,0,0,1-2.236-.614,6.914,6.914,0,0,1-1.87-.995,4.537,4.537,0,0,1-1.295-1.543,4.9,4.9,0,0,1-.484-2.289,5.035,5.035,0,0,1,.484-2.21,5.091,5.091,0,0,1,1.374-1.739,6.416,6.416,0,0,1,2.157-1.137,9.181,9.181,0,0,1,2.811-.406,12.631,12.631,0,0,1,2.525.248,6.375,6.375,0,0,1,2.132.825,4.325,4.325,0,0,1,1.465,1.53,4.629,4.629,0,0,1,.548,2.341c0,.192-.008.378-.026.562a3.461,3.461,0,0,1-.1.563l-3.505-.027a1.457,1.457,0,0,0,.052-.34v-.339a1.692,1.692,0,0,0-.889-1.6,4.28,4.28,0,0,0-2.118-.5q-3.06,0-3.061,2.066a1.59,1.59,0,0,0,.249.915,2.052,2.052,0,0,0,.772.641,6.324,6.324,0,0,0,1.307.484c.523.14,1.151.287,1.883.445a16.564,16.564,0,0,1,2.328.654,6.766,6.766,0,0,1,1.858,1.007,4.425,4.425,0,0,1,1.242,1.543,5.1,5.1,0,0,1,.458,2.262,5.3,5.3,0,0,1-.511,2.354,4.881,4.881,0,0,1-1.451,1.765,6.71,6.71,0,0,1-2.276,1.1A10.886,10.886,0,0,1,39.8,348.742Z" transform="translate(-0.766 -301.98)" fill="#001a70" stroke="#001a70" stroke-miterlimit="10" stroke-width="0.25"/>
  </g>
</svg>
