<svg xmlns="http://www.w3.org/2000/svg" width="53.757" height="47.475" viewBox="0 0 53.757 47.475">
  <g id="Component_98_1" data-name="Component 98 – 1" transform="translate(0.919 0.5)">
    <path id="Path_282" data-name="Path 282" d="M7.9,418.493H31.678V432.76H45.945v4.755H50.7v-8.469L36.384,413.737H3.144v23.778H7.9Z" transform="translate(-1.43 -413.737)" fill="#001a70" stroke="#001a70" stroke-width="1"/>
    <path id="Path_283" data-name="Path 283" d="M13.618,460.211l-4-6.7-3.923,6.7H1.43l6.042-9.338L1.8,441.9H6.242L9.9,448.049l3.557-6.147h4.29l-5.729,8.893,5.991,9.416Z" transform="translate(-1.43 -413.737)" fill="#001a70" stroke="#001a70" stroke-width="1"/>
    <path id="Path_284" data-name="Path 284" d="M13.618,460.211l-4-6.7-3.923,6.7H1.43l6.042-9.338L1.8,441.9H6.242L9.9,448.049l3.557-6.147h4.29l-5.729,8.893,5.991,9.416Z" transform="translate(-1.43 -413.737)" fill="#001a70" stroke="#001a70" stroke-miterlimit="10" stroke-width="0.25"/>
    <path id="Path_285" data-name="Path 285" d="M19.843,441.9H23.61l5.466,11.639L34.648,441.9h3.5v18.309h-3.61V448.388l-.366.994-3.95,8.58H27.612l-3.819-8.58-.341-.942v11.771H19.843Z" transform="translate(-1.43 -413.737)" fill="#001a70" stroke="#001a70" stroke-width="1"/>
    <path id="Path_286" data-name="Path 286" d="M19.843,441.9H23.61l5.466,11.639L34.648,441.9h3.5v18.309h-3.61V448.388l-.366.994-3.95,8.58H27.612l-3.819-8.58-.341-.942v11.771H19.843Z" transform="translate(-1.43 -413.737)" fill="#001a70" stroke="#001a70" stroke-miterlimit="10" stroke-width="0.25"/>
    <path id="Path_287" data-name="Path 287" d="M41.971,441.9h3.871v14.777h7.926v3.532h-11.8Z" transform="translate(-1.43 -413.737)" fill="#001a70" stroke="#001a70" stroke-width="1"/>
    <path id="Path_288" data-name="Path 288" d="M41.971,441.9h3.871v14.777h7.926v3.532h-11.8Z" transform="translate(-1.43 -413.737)" fill="#001a70" stroke="#001a70" stroke-miterlimit="10" stroke-width="0.25"/>
  </g>
</svg>
