<?xml version="1.0" encoding="UTF-8"?>
<svg xmlns="http://www.w3.org/2000/svg" xmlns:xlink="http://www.w3.org/1999/xlink" version="1.2" >
<font id="AndesNeue Bold">
<font-face  font-family="AndesNeue" units-per-em="1000" ascent="750" descent="-250" font-style="normal" font-weight="700" font-stretch="normal" cap-height="700" x-height="482" underline-position="-75" underline-thickness="50" />
<missing-glyph  horiz-adv-x="530" d="M50 730 L50 0 L480 0 L480 730 L50 730 Z M115 695 L415 695 L265 408 L115 695 Z M243 365 L90 73 L90 657 L243 365 Z M288 365 L440 657 L440 73 L288 365 Z M265 322 L415 35 L115 35 L265 322 Z " />
<glyph glyph-name="NULL" d="" />
<glyph glyph-name="CR" unicode="&#xd;" horiz-adv-x="250" d="" />
<glyph glyph-name="space" unicode="&#x20;" horiz-adv-x="194" d="" />
<glyph glyph-name="exclam" unicode="&#x21;" horiz-adv-x="276" d="M75 216 L200 216 L222 700 L58 700 L75 216 Z M136 -21 C181 -21 218 16 218 61 C218 106 181 143 136 143 C91 143 53 106 53 61 C53 16 91 -21 136 -21 L136 -21 Z " />
<glyph glyph-name="quotedbl" unicode="&#x22;" horiz-adv-x="359" d="M45 563 L151 563 L157 786 L41 786 L45 563 Z M207 563 L314 563 L319 786 L203 786 L207 563 Z " />
<glyph glyph-name="numbersign" unicode="&#x23;" horiz-adv-x="620" d="M103 48 L208 48 L222 116 L333 116 L319 48 L423 48 L438 116 L523 116 L541 195 L454 195 L483 325 L578 325 L596 404 L499 404 L518 492 L415 492 L395 404 L284 404 L302 492 L199 492 L180 404 L97 404 L79 325 L163 325 L135 195 L42 195 L24 116 L118 116 L103 48 Z M239 195 L267 325 L378 325 L351 195 L239 195 Z " />
<glyph glyph-name="dollar" unicode="&#x24;" horiz-adv-x="610" d="M364 408 L364 559 C408 547 434 515 422 459 L556 460 C584 614 471 674 364 685 L364 798 L258 798 L258 686 C126 672 45 604 45 487 C45 349 156 314 258 293 L258 136 C198 146 149 174 116 217 L23 118 C62 62 151 12 258 6 L258 -109 L364 -109 L364 9 C495 27 578 96 578 212 C578 351 466 386 364 408 L364 408 Z M192 495 C192 532 215 553 258 562 L258 431 C216 443 192 460 192 495 L192 495 Z M364 135 L364 271 C407 258 431 241 431 203 C431 165 410 143 364 135 L364 135 Z " />
<glyph glyph-name="percent" unicode="&#x25;" horiz-adv-x="655" d="M150 423 C237 423 281 479 281 562 C281 644 237 701 150 701 C67 701 23 644 23 562 C23 479 67 423 150 423 L150 423 Z M172 0 L271 0 L481 700 L384 700 L172 0 Z M150 493 C118 493 105 517 105 562 C105 605 118 627 150 627 C182 627 196 605 196 562 C196 517 182 493 150 493 L150 493 Z M501 -2 C587 -2 631 54 631 137 C631 219 588 276 501 276 C417 276 374 219 374 137 C374 54 417 -2 501 -2 L501 -2 Z M501 68 C469 68 456 92 456 137 C456 180 469 202 501 202 C533 202 546 180 546 137 C546 92 533 68 501 68 L501 68 Z " />
<glyph glyph-name="ampersand" unicode="&#x26;" horiz-adv-x="713" d="M697 103 C663 114 631 129 600 146 C624 197 637 260 638 334 L508 334 C508 287 503 248 493 216 C441 256 400 294 375 318 C304 389 267 453 267 518 C267 575 297 604 351 604 C398 604 426 576 426 523 C426 504 422 479 415 466 L540 466 C550 485 557 520 557 548 C557 662 478 734 345 734 C215 734 127 649 127 522 C127 486 138 447 156 408 C84 361 41 288 41 204 C41 63 151 -18 309 -18 C396 -18 467 4 521 46 C562 23 605 4 649 -11 L697 103 Z M323 100 C240 100 184 147 184 226 C184 258 192 281 215 310 C239 276 266 246 290 221 C327 185 367 149 411 117 C387 105 357 100 323 100 L323 100 Z " />
<glyph glyph-name="quotesingle" unicode="&#x27;" horiz-adv-x="197" d="M45 563 L151 563 L157 786 L41 786 L45 563 Z " />
<glyph glyph-name="parenleft" unicode="&#x28;" horiz-adv-x="311" d="M189 -244 L305 -188 C218 -58 179 79 179 241 C179 412 218 561 305 691 L189 747 C92 625 33 432 33 241 C33 59 93 -125 189 -244 L189 -244 Z " />
<glyph glyph-name="parenright" unicode="&#x29;" horiz-adv-x="311" d="M122 747 L6 691 C93 561 132 425 132 262 C132 91 93 -58 6 -188 L122 -244 C219 -122 278 72 278 262 C278 445 219 629 122 747 L122 747 Z " />
<glyph glyph-name="asterisk" unicode="&#x2a;" horiz-adv-x="467" d="M262 374 L354 413 L295 534 L430 500 L439 604 L307 608 L403 708 L320 767 L248 653 L210 791 L117 750 L177 625 L42 663 L33 559 L169 555 L70 455 L154 394 L223 501 L262 374 Z " />
<glyph glyph-name="plus" unicode="&#x2b;" horiz-adv-x="457" d="M173 58 L278 58 L278 217 L428 217 L428 321 L278 321 L278 462 L173 462 L173 321 L29 321 L29 217 L173 217 L173 58 Z " />
<glyph glyph-name="comma" unicode="&#x2c;" horiz-adv-x="247" d="M86 -157 C159 -113 211 -53 211 66 C211 125 172 164 119 164 C71 164 34 125 34 78 C34 31 72 -6 119 -6 C118 -41 78 -78 47 -96 L86 -157 Z " />
<glyph glyph-name="hyphen" unicode="&#x2d;" horiz-adv-x="390" d="M50 219 L340 219 L340 324 L50 324 L50 219 Z " />
<glyph glyph-name="period" unicode="&#x2e;" horiz-adv-x="236" d="M118 -6 C165 -6 203 31 203 78 C203 125 165 164 118 164 C71 164 33 125 33 78 C33 31 71 -6 118 -6 L118 -6 Z " />
<glyph glyph-name="slash" unicode="&#x2f;" horiz-adv-x="423" d="M17 -228 L125 -228 L407 706 L300 706 L17 -228 Z " />
<glyph glyph-name="zero" unicode="0" horiz-adv-x="662" d="M329 -6 C532 -6 624 140 624 349 C624 558 531 706 329 706 C132 706 38 558 38 349 C38 140 131 -6 329 -6 L329 -6 Z M329 126 C240 126 200 202 200 349 C200 497 240 574 329 574 C421 574 462 497 462 349 C462 202 421 126 329 126 L329 126 Z " />
<glyph glyph-name="one" unicode="1" horiz-adv-x="412" d="M189 0 L338 0 L338 700 L189 700 C189 637 134 584 17 584 L20 443 C126 443 165 465 189 491 L189 0 Z " />
<glyph glyph-name="two" unicode="2" horiz-adv-x="588" d="M35 0 L555 0 L555 121 L215 121 L215 124 C215 211 538 252 538 484 C538 615 453 706 286 706 C95 706 35 576 35 478 L179 478 C180 519 205 574 285 574 C351 574 387 537 387 478 C387 314 35 312 35 29 L35 0 Z " />
<glyph glyph-name="three" unicode="3" horiz-adv-x="597" d="M289 -6 C455 -6 560 72 560 193 C560 265 532 340 432 364 C497 384 539 438 539 511 C539 636 438 706 292 706 C152 706 41 634 38 485 L185 485 C188 546 231 575 287 575 C346 575 386 546 386 491 C386 438 350 404 267 404 L209 404 L209 295 L273 295 C372 295 402 255 402 207 C402 150 363 118 285 118 C211 118 161 150 132 211 L20 139 C64 38 164 -6 289 -6 L289 -6 Z " />
<glyph glyph-name="four" unicode="4" horiz-adv-x="593" d="M329 0 L477 0 L477 137 L576 137 L576 258 L477 258 L477 404 L337 404 L337 258 L178 258 L418 700 L262 700 L18 258 L18 137 L329 137 L329 0 Z " />
<glyph glyph-name="five" unicode="5" horiz-adv-x="604" d="M299 -7 C472 -7 573 86 573 243 C573 384 490 469 346 469 C286 469 231 453 195 421 L195 567 L534 567 L534 700 L59 700 L59 291 L201 291 C227 315 262 337 316 337 C377 337 423 305 423 233 C423 162 378 125 304 125 C244 125 195 149 160 219 L34 142 C73 53 155 -7 299 -7 L299 -7 Z " />
<glyph glyph-name="six" unicode="6" horiz-adv-x="622" d="M372 428 C308 428 241 408 188 358 C191 526 252 580 336 580 C385 580 423 556 423 502 C423 491 422 483 420 474 L556 474 C560 489 561 504 561 517 C561 656 452 706 338 706 C143 706 39 568 39 339 C39 123 130 -6 324 -6 C501 -6 587 98 587 224 C587 345 519 428 372 428 L372 428 Z M332 121 C265 121 218 152 198 238 C231 276 281 302 338 302 C410 302 444 268 444 214 C444 156 403 121 332 121 L332 121 Z " />
<glyph glyph-name="seven" unicode="7" horiz-adv-x="534" d="M113 0 L263 0 C263 322 518 411 518 636 L518 700 L17 700 L17 564 L351 564 C343 459 113 319 113 0 L113 0 Z " />
<glyph glyph-name="eight" unicode="8" horiz-adv-x="606" d="M462 373 C516 404 546 456 546 520 C546 635 449 706 304 706 C160 706 64 626 64 503 C64 439 95 390 137 356 C76 321 35 260 35 187 C35 63 136 -6 302 -6 C466 -6 569 73 569 200 C569 280 534 338 462 373 L462 373 Z M303 587 C358 587 399 557 399 499 C399 464 385 430 350 410 L281 429 C242 440 211 464 211 506 C211 559 249 587 303 587 L303 587 Z M302 113 C222 113 182 149 182 211 C182 251 203 284 237 308 L345 276 C401 260 422 238 422 194 C422 142 378 113 302 113 L302 113 Z " />
<glyph glyph-name="nine" unicode="9" horiz-adv-x="622" d="M296 706 C126 706 35 601 35 471 C35 329 125 254 253 254 C328 254 389 276 436 324 C428 170 366 120 287 120 C222 120 185 138 147 192 L47 105 C89 35 170 -6 289 -6 C469 -6 583 123 583 356 C583 577 488 706 296 706 L296 706 Z M289 378 C210 378 178 418 178 478 C178 541 222 580 289 580 C352 580 408 541 429 443 C391 405 345 378 289 378 L289 378 Z " />
<glyph glyph-name="colon" unicode="&#x3a;" horiz-adv-x="270" d="M135 412 C182 412 220 449 220 496 C220 543 182 582 135 582 C87 582 50 543 50 496 C50 449 87 412 135 412 L135 412 Z M135 -6 C182 -6 220 31 220 78 C220 125 182 164 135 164 C87 164 50 125 50 78 C50 31 87 -6 135 -6 L135 -6 Z " />
<glyph glyph-name="semicolon" unicode="&#x3b;" horiz-adv-x="260" d="M126 327 C174 327 213 365 213 414 C213 462 174 501 126 501 C77 501 39 462 39 414 C39 365 77 327 126 327 L126 327 Z M95 -157 C95 -157 220 -112 220 66 C220 131 176 164 128 164 C81 164 44 125 44 78 C44 31 81 -6 128 -6 C127 -57 57 -96 57 -96 L95 -157 Z " />
<glyph glyph-name="less" unicode="&#x3c;" horiz-adv-x="424" d="M379 2 L379 128 L152 255 L379 383 L379 508 L25 312 L25 198 L379 2 Z " />
<glyph glyph-name="equal" unicode="&#x3d;" horiz-adv-x="509" d="M53 314 L457 314 L457 418 L53 418 L53 314 Z M53 102 L457 102 L457 206 L53 206 L53 102 Z " />
<glyph glyph-name="greater" unicode="&#x3e;" horiz-adv-x="424" d="M45 5 L399 200 L399 314 L45 511 L45 385 L272 257 L45 130 L45 5 Z " />
<glyph glyph-name="question" unicode="&#x3f;" horiz-adv-x="496" d="M170 214 L308 214 C310 326 466 345 466 510 C466 608 404 711 245 711 C118 711 23 633 23 485 L166 485 C166 536 195 566 241 566 C286 566 312 540 312 493 C312 386 168 377 170 214 L170 214 Z M232 -23 C278 -23 316 14 316 60 C316 107 279 144 232 144 C186 144 149 107 149 60 C149 14 186 -23 232 -23 L232 -23 Z " />
<glyph glyph-name="at" unicode="&#x40;" horiz-adv-x="902" d="M583 458 L574 424 C558 441 527 458 472 458 C347 458 240 351 240 200 C240 85 302 35 377 35 C436 35 482 62 512 111 C521 64 560 36 627 36 C785 36 877 185 877 334 C877 545 733 670 523 670 C232 670 37 456 37 182 C37 -46 194 -185 421 -185 C571 -185 687 -129 750 -68 L684 20 C630 -25 538 -68 425 -68 C277 -68 166 15 166 185 C166 392 312 554 513 554 C676 554 754 461 754 331 C754 222 703 137 644 137 C626 137 617 148 617 168 C617 189 651 316 690 458 L583 458 Z M422 141 C385 141 366 170 366 216 C366 297 412 355 479 355 C515 355 537 339 539 330 C509 197 481 141 422 141 L422 141 Z " />
<glyph glyph-name="A" unicode="A" horiz-adv-x="664" d="M511 0 L665 0 L408 700 L256 700 L-1 0 L152 0 L206 162 L458 162 L511 0 Z M244 277 L332 543 L420 277 L244 277 Z " />
<glyph glyph-name="B" unicode="B" horiz-adv-x="635" d="M472 381 C532 404 571 456 571 524 C571 645 486 700 338 700 L73 700 L73 0 L345 0 C491 0 603 63 603 203 C603 310 544 360 472 381 L472 381 Z M221 591 L317 591 C390 591 424 558 424 501 C424 447 392 412 316 412 L221 412 L221 591 Z M337 109 L221 109 L221 305 L339 305 C411 305 455 275 455 208 C455 139 413 109 337 109 L337 109 Z " />
<glyph glyph-name="C" unicode="C" horiz-adv-x="629" d="M352 -11 C479 -11 556 39 607 130 L507 201 C471 143 432 118 365 118 C257 118 192 202 192 349 C192 500 250 579 348 579 C416 579 456 539 456 477 C456 461 455 455 451 439 L589 439 C594 460 597 481 597 500 C597 645 485 711 352 711 C159 711 37 570 37 346 C37 120 159 -11 352 -11 L352 -11 Z " />
<glyph glyph-name="D" unicode="D" horiz-adv-x="694" d="M73 0 L317 0 C491 0 658 93 658 350 C658 605 505 700 300 700 L73 700 L73 0 Z M221 122 L221 578 L291 578 C443 578 504 489 504 342 C504 196 427 122 302 122 L221 122 Z " />
<glyph glyph-name="E" unicode="E" horiz-adv-x="570" d="M73 0 L530 0 L530 126 L221 126 L221 291 L486 291 L486 417 L221 417 L221 575 L528 575 L528 700 L73 700 L73 0 Z " />
<glyph glyph-name="F" unicode="F" horiz-adv-x="549" d="M73 0 L221 0 L221 256 L475 256 L475 390 L221 390 L221 564 L524 564 L524 700 L73 700 L73 0 Z " />
<glyph glyph-name="G" unicode="G" horiz-adv-x="669" d="M359 -11 C502 -11 593 44 625 80 L625 361 L362 361 L362 243 L493 243 L493 149 C472 132 430 116 364 116 C251 116 192 193 192 350 C192 499 249 579 355 579 C433 579 470 537 470 482 C470 467 470 461 469 454 L609 454 C612 470 614 487 614 504 C614 637 509 711 360 711 C156 711 36 566 36 348 C36 116 150 -11 359 -11 L359 -11 Z " />
<glyph glyph-name="H" unicode="H" horiz-adv-x="701" d="M73 0 L221 0 L221 286 L480 286 L480 0 L628 0 L628 700 L480 700 L480 422 L221 422 L221 700 L73 700 L73 0 Z " />
<glyph glyph-name="I" unicode="I" horiz-adv-x="295" d="M73 0 L221 0 L221 700 L73 700 L73 0 Z " />
<glyph glyph-name="J" unicode="J" horiz-adv-x="488" d="M187 -6 C338 -6 421 85 421 240 L421 700 L274 700 L274 238 C274 168 241 128 185 128 C140 128 114 149 89 178 L1 75 C35 29 100 -6 187 -6 L187 -6 Z " />
<glyph glyph-name="K" unicode="K" horiz-adv-x="668" d="M623 122 C533 122 539 269 447 340 C548 409 604 538 604 700 L458 700 C458 483 372 410 261 410 L221 410 L221 700 L73 700 L73 0 L221 0 L221 284 L254 284 C422 284 359 -7 581 -7 C615 -7 645 -3 655 0 L655 122 L623 122 Z " />
<glyph glyph-name="L" unicode="L" horiz-adv-x="537" d="M73 0 L524 0 L524 134 L221 134 L221 700 L73 700 L73 0 Z " />
<glyph glyph-name="M" unicode="M" horiz-adv-x="846" d="M73 0 L211 0 L211 450 L224 414 L370 86 L470 86 L621 414 L635 452 L635 0 L773 0 L773 700 L639 700 L426 255 L217 700 L73 700 L73 0 Z " />
<glyph glyph-name="N" unicode="N" horiz-adv-x="691" d="M73 0 L213 0 L213 460 L227 427 L488 0 L618 0 L618 700 L479 700 L479 231 L460 273 L204 700 L73 700 L73 0 Z " />
<glyph glyph-name="O" unicode="O" horiz-adv-x="717" d="M357 -11 C535 -11 681 107 681 349 C681 601 537 711 360 711 C182 711 36 591 36 348 C36 97 180 -11 357 -11 L357 -11 Z M357 118 C267 118 191 177 191 348 C191 520 270 579 360 579 C449 579 526 522 526 349 C526 179 448 118 357 118 L357 118 Z " />
<glyph glyph-name="P" unicode="P" horiz-adv-x="620" d="M73 0 L221 0 L221 224 L335 224 C480 224 597 299 597 461 C597 625 490 700 319 700 L73 700 L73 0 Z M221 342 L221 581 L307 581 C403 581 448 532 448 460 C448 383 402 342 312 342 L221 342 Z " />
<glyph glyph-name="Q" unicode="Q" horiz-adv-x="717" d="M439 -2 C578 30 681 146 681 349 C681 601 537 711 360 711 C182 711 36 591 36 348 C36 125 150 14 300 -7 C316 -114 403 -233 609 -233 L609 -101 C516 -101 459 -67 439 -2 L439 -2 Z M191 348 C191 520 270 579 360 579 C449 579 526 522 526 349 C526 179 448 118 357 118 C267 118 191 177 191 348 L191 348 Z " />
<glyph glyph-name="R" unicode="R" horiz-adv-x="661" d="M562 -7 C594 -7 626 -4 639 0 L639 121 L607 121 C525 121 524 262 453 299 C541 323 591 396 591 479 C591 630 503 700 323 700 L73 700 L73 0 L221 0 L221 257 L270 257 C406 257 360 -7 562 -7 L562 -7 Z M221 369 L221 581 L317 581 C400 581 446 541 446 473 C446 405 394 369 307 369 L221 369 Z " />
<glyph glyph-name="S" unicode="S" horiz-adv-x="608" d="M299 -11 C468 -11 575 69 575 203 C575 340 477 384 350 412 C239 437 189 450 189 507 C189 560 229 586 306 586 C368 586 421 562 421 506 C421 496 421 490 419 480 L553 479 C557 494 558 507 558 522 C558 664 437 711 303 711 C145 711 42 624 42 501 C42 362 148 318 267 293 C385 268 428 249 428 192 C428 142 389 114 301 114 C227 114 164 141 113 201 L20 102 C78 26 169 -11 299 -11 L299 -11 Z " />
<glyph glyph-name="T" unicode="T" horiz-adv-x="575" d="M218 0 L366 0 L366 566 L564 566 L564 700 L13 700 L13 566 L218 566 L218 0 Z " />
<glyph glyph-name="U" unicode="U" horiz-adv-x="677" d="M340 -6 C488 -6 610 67 610 290 L610 700 L464 700 L464 278 C464 189 432 126 341 126 C249 126 214 189 214 278 L214 700 L67 700 L66 290 C65 67 191 -6 340 -6 L340 -6 Z " />
<glyph glyph-name="V" unicode="V" horiz-adv-x="647" d="M249 0 L397 0 L646 700 L490 700 L327 165 L166 700 L0 700 L249 0 Z " />
<glyph glyph-name="W" unicode="W" horiz-adv-x="947" d="M187 0 L355 0 L476 492 L591 0 L761 0 L940 700 L780 700 L674 158 L546 700 L409 700 L277 158 L176 700 L8 700 L187 0 Z " />
<glyph glyph-name="X" unicode="X" horiz-adv-x="627" d="M630 0 L401 360 L620 700 L456 700 L320 465 L180 700 L10 700 L227 357 L-4 0 L159 0 L309 256 L462 0 L630 0 Z " />
<glyph glyph-name="Y" unicode="Y" horiz-adv-x="631" d="M242 0 L389 0 L389 283 L629 700 L465 700 L320 414 L175 700 L2 700 L242 280 L242 0 Z " />
<glyph glyph-name="Z" unicode="Z" horiz-adv-x="602" d="M206 123 L563 584 L563 700 L38 700 L38 577 L392 577 L33 116 L33 0 L570 0 L570 123 L206 123 Z " />
<glyph glyph-name="bracketleft" unicode="&#x5b;" horiz-adv-x="377" d="M68 -244 L359 -244 L359 -123 L207 -123 L207 605 L359 605 L359 726 L68 726 L68 -244 Z " />
<glyph glyph-name="backslash" unicode="&#x5c;" horiz-adv-x="453" d="M298 -228 L437 -228 L154 706 L16 706 L298 -228 Z " />
<glyph glyph-name="bracketright" unicode="&#x5d;" horiz-adv-x="377" d="M18 -244 L309 -244 L309 726 L18 726 L18 605 L171 605 L171 -123 L18 -123 L18 -244 Z " />
<glyph glyph-name="asciicircum" unicode="&#x5e;" horiz-adv-x="399" d="M29 505 L155 505 L199 629 L244 505 L370 505 L279 734 L121 734 L29 505 Z " />
<glyph glyph-name="underscore" unicode="&#x5f;" horiz-adv-x="485" d="M38 -104 L447 -104 L447 0 L38 0 L38 -104 Z " />
<glyph glyph-name="grave" unicode="&#x60;" horiz-adv-x="308" d="M155 568 L281 568 L200 768 L25 768 L155 568 Z " />
<glyph glyph-name="a" unicode="a" horiz-adv-x="524" d="M458 152 L458 308 C458 426 396 496 252 496 C121 496 51 438 51 352 C51 317 60 300 62 297 L193 297 C189 304 186 315 186 328 C186 365 207 383 247 383 C289 383 312 360 312 313 L312 259 L217 259 C83 259 24 207 24 120 C24 43 80 -12 179 -12 C266 -12 310 30 331 69 C335 30 359 -8 434 -8 C457 -8 483 -4 498 0 L498 110 C468 110 458 124 458 152 L458 152 Z M223 97 C190 97 170 113 170 139 C170 165 189 184 231 184 L312 185 L312 165 C298 123 268 97 223 97 L223 97 Z " />
<glyph glyph-name="b" unicode="b" horiz-adv-x="560" d="M321 -13 C439 -13 529 90 529 245 C529 397 452 496 336 496 C255 496 217 457 202 436 L202 726 L56 726 L56 0 L184 0 L184 49 C210 14 251 -13 321 -13 L321 -13 Z M290 109 C232 109 210 150 201 179 L201 300 C211 337 237 374 290 374 C344 374 381 328 381 242 C381 154 347 109 290 109 L290 109 Z " />
<glyph glyph-name="c" unicode="c" horiz-adv-x="493" d="M270 -13 C367 -13 436 30 471 90 L387 166 C364 134 338 109 283 109 C216 109 177 156 177 245 C177 332 208 374 267 374 C311 374 335 354 335 311 C335 296 333 283 330 274 L454 275 C460 289 463 314 463 335 C463 442 387 496 269 496 C122 496 30 402 30 241 C30 81 121 -13 270 -13 L270 -13 Z " />
<glyph glyph-name="d" unicode="d" horiz-adv-x="574" d="M223 -13 C301 -13 347 19 374 70 L374 67 C381 20 415 -8 476 -8 C504 -8 529 -5 542 0 L542 110 C514 110 502 122 502 153 L502 726 L356 726 L356 446 C334 475 298 496 240 496 C119 496 31 392 31 237 C31 87 108 -13 223 -13 L223 -13 Z M272 109 C214 109 179 155 179 239 C179 325 209 374 272 374 C326 374 351 335 359 303 L359 184 C348 140 317 109 272 109 L272 109 Z " />
<glyph glyph-name="e" unicode="e" horiz-adv-x="503" d="M389 161 C366 129 340 106 282 106 C218 106 183 142 177 217 L469 217 C471 234 471 243 471 265 C471 412 397 496 266 496 C119 496 30 398 30 238 C30 83 121 -13 268 -13 C365 -13 441 31 474 92 L389 161 Z M261 381 C308 381 331 348 331 297 L180 297 C189 352 213 381 261 381 L261 381 Z " />
<glyph glyph-name="f" unicode="f" horiz-adv-x="359" d="M90 0 L236 0 L236 366 L347 366 L347 482 L236 482 L236 516 C236 577 262 602 306 602 C329 602 347 596 362 585 L412 693 C385 716 342 732 289 732 C171 732 91 652 91 521 L91 482 L20 482 L20 366 L90 366 L90 0 Z " />
<glyph glyph-name="g" unicode="g" horiz-adv-x="522" d="M250 -240 C467 -240 523 -159 523 -74 C523 24 450 70 348 70 L201 70 C173 70 154 77 154 99 C154 120 169 129 192 130 C212 125 238 120 269 120 C383 120 480 186 480 307 C480 371 454 418 417 446 C476 450 528 488 528 565 L407 589 C407 503 341 488 325 488 C305 492 290 494 267 494 C149 494 54 426 54 307 C54 251 75 207 99 182 C63 167 31 138 31 83 C31 40 53 11 87 -10 C52 -26 20 -61 20 -115 C20 -196 88 -240 250 -240 L250 -240 Z M267 229 C218 229 190 260 190 307 C190 353 220 384 268 384 C316 384 346 353 346 307 C346 260 316 229 267 229 L267 229 Z M258 -141 C174 -141 150 -126 150 -92 C150 -60 171 -43 216 -43 L325 -42 C373 -42 393 -56 393 -88 C393 -124 352 -141 258 -141 L258 -141 Z " />
<glyph glyph-name="h" unicode="h" horiz-adv-x="559" d="M469 -7 C494 -7 521 -3 533 1 L533 111 C505 111 493 124 493 153 L493 304 C493 410 445 496 322 496 C264 496 223 471 202 444 L202 726 L56 726 L56 0 L202 0 L202 288 C202 322 223 365 279 365 C320 365 347 335 347 289 L347 118 C347 32 387 -7 469 -7 L469 -7 Z " />
<glyph glyph-name="i" unicode="i" horiz-adv-x="260" d="M130 552 C179 552 219 591 219 640 C219 689 179 730 130 730 C82 730 40 689 40 640 C40 591 82 552 130 552 L130 552 Z M57 0 L203 0 L203 482 L57 482 L57 0 Z " />
<glyph glyph-name="j" unicode="j" horiz-adv-x="264" d="M134 552 C183 552 222 591 222 640 C222 689 183 730 134 730 C85 730 44 689 44 640 C44 591 85 552 134 552 L134 552 Z M9 -247 C149 -247 207 -158 207 -30 L207 482 L61 482 L61 -23 C61 -82 40 -118 -7 -118 C-32 -118 -48 -108 -48 -108 L-91 -215 C-91 -215 -61 -247 9 -247 L9 -247 Z " />
<glyph glyph-name="k" unicode="k" horiz-adv-x="541" d="M511 113 C434 113 449 201 379 243 C473 304 489 402 490 482 L353 482 C352 374 311 310 226 310 L202 310 L202 726 L56 726 L56 0 L202 0 L202 188 L210 188 C347 188 289 -9 463 -9 C485 -9 510 -3 522 1 L522 113 L511 113 Z " />
<glyph glyph-name="l" unicode="l" horiz-adv-x="276" d="M182 -7 C208 -7 235 -3 249 2 L249 111 C209 111 202 125 202 162 L202 726 L56 726 L56 122 C56 29 96 -7 182 -7 L182 -7 Z " />
<glyph glyph-name="m" unicode="m" horiz-adv-x="861" d="M771 -7 C795 -7 823 -3 835 1 L835 111 C807 111 795 124 795 153 L795 304 C795 421 740 496 626 496 C548 496 505 454 485 413 C458 467 408 496 338 496 C270 496 221 462 199 419 L199 420 C187 467 150 489 97 489 C73 489 45 486 32 481 L32 371 C60 371 72 359 72 330 L72 0 L218 0 L218 285 C218 328 244 365 292 365 C337 365 362 334 362 289 L362 0 L509 0 L509 285 C509 331 536 365 581 365 C624 365 649 335 649 288 L649 118 C649 32 688 -7 771 -7 L771 -7 Z " />
<glyph glyph-name="n" unicode="n" horiz-adv-x="574" d="M484 -7 C509 -7 536 -3 548 1 L548 111 C521 111 509 124 509 153 L509 304 C509 426 447 496 339 496 C263 496 219 457 199 419 L199 420 C192 459 159 489 99 489 C71 489 45 486 32 481 L32 371 C60 371 72 359 72 330 L72 0 L218 0 L218 284 C218 333 248 365 293 365 C335 365 362 337 362 288 L362 118 C362 32 402 -7 484 -7 L484 -7 Z " />
<glyph glyph-name="o" unicode="o" horiz-adv-x="543" d="M269 -13 C425 -13 513 94 513 242 C513 392 430 496 275 496 C119 496 30 391 30 241 C30 91 112 -13 269 -13 L269 -13 Z M272 109 C209 109 179 158 179 241 C179 324 211 374 272 374 C332 374 365 324 365 241 C365 158 334 109 272 109 L272 109 Z " />
<glyph glyph-name="p" unicode="p" horiz-adv-x="575" d="M72 -229 L218 -229 L218 29 C239 6 276 -13 336 -13 C456 -13 545 90 545 245 C545 397 468 496 352 496 C272 496 228 461 200 411 L200 412 C195 464 157 490 98 490 C70 490 45 487 32 483 L32 373 C60 373 72 360 72 331 L72 -229 Z M304 109 C256 109 228 139 216 179 L216 300 C228 342 257 374 305 374 C359 374 396 330 396 243 C396 153 363 109 304 109 L304 109 Z " />
<glyph glyph-name="q" unicode="q" horiz-adv-x="559" d="M356 -240 L502 -240 L502 482 L375 482 L375 426 C357 452 319 496 240 496 C128 496 31 402 31 239 C31 70 124 -13 222 -13 C310 -13 344 27 356 45 L356 -240 Z M272 109 C219 109 179 149 179 241 C179 328 212 374 272 374 C326 374 352 333 359 303 L359 183 C351 154 327 109 272 109 L272 109 Z " />
<glyph glyph-name="r" unicode="r" horiz-adv-x="396" d="M72 0 L218 0 L218 249 C218 314 247 354 300 354 C321 354 337 350 349 342 L400 476 C387 487 358 494 330 494 C265 494 218 463 199 414 L198 417 C197 454 165 489 97 489 C71 489 45 486 32 481 L32 371 C60 371 72 359 72 330 L72 0 Z " />
<glyph glyph-name="s" unicode="s" horiz-adv-x="495" d="M243 -13 C381 -13 464 37 464 140 C463 241 377 265 300 281 C221 298 181 305 181 341 C181 369 204 385 251 385 C294 385 317 368 317 337 C317 326 315 313 313 306 L445 306 C450 317 454 337 454 352 C454 445 378 496 253 496 C116 496 40 429 40 339 C40 228 129 201 218 181 C295 164 323 160 323 133 C323 112 302 100 250 100 C200 100 148 109 90 164 L17 64 C82 2 170 -13 243 -13 L243 -13 Z " />
<glyph glyph-name="t" unicode="t" horiz-adv-x="432" d="M291 -6 C342 -6 400 14 431 40 L386 148 C369 136 341 125 315 125 C266 125 242 156 242 221 L242 365 L402 365 L402 482 L242 482 L242 623 L100 623 L100 482 L13 482 L13 365 L96 365 L96 212 C96 64 158 -6 291 -6 L291 -6 Z " />
<glyph glyph-name="u" unicode="u" horiz-adv-x="561" d="M209 -13 C288 -13 332 16 361 70 L362 69 C368 21 400 -8 465 -8 C493 -8 519 -4 529 0 L529 110 C501 110 490 124 490 152 L490 482 L344 482 L344 201 C344 157 314 117 266 117 C223 117 199 139 199 197 L199 482 L53 482 L53 161 C53 46 107 -13 209 -13 L209 -13 Z " />
<glyph glyph-name="v" unicode="v" horiz-adv-x="507" d="M353 482 L277 229 L257 126 L238 229 L161 482 L4 482 L180 -1 L327 -1 L502 482 L353 482 Z " />
<glyph glyph-name="w" unicode="w" horiz-adv-x="773" d="M618 482 L562 235 L543 125 L524 235 L468 482 L315 482 L258 235 L239 125 L220 235 L164 482 L6 482 L152 0 L306 0 L372 258 L390 350 L405 258 L463 0 L621 0 L767 482 L618 482 Z " />
<glyph glyph-name="x" unicode="x" horiz-adv-x="485" d="M485 0 L326 249 L476 482 L325 482 L244 337 L165 482 L8 482 L158 245 L2 0 L152 0 L240 156 L330 0 L485 0 Z " />
<glyph glyph-name="y" unicode="y" horiz-adv-x="525" d="M105 -247 C205 -247 264 -200 305 -93 L523 482 L369 482 L286 226 L269 160 L248 226 L156 482 L1 482 L198 0 L181 -46 C160 -102 134 -123 91 -123 C74 -123 51 -118 40 -109 L8 -227 C30 -239 71 -247 105 -247 L105 -247 Z " />
<glyph glyph-name="z" unicode="z" horiz-adv-x="478" d="M38 0 L447 0 L447 115 L214 115 L436 367 L436 482 L35 482 L35 367 L267 367 L38 115 L38 0 Z " />
<glyph glyph-name="braceleft" unicode="&#x7b;" horiz-adv-x="352" d="M328 -234 L328 -106 C265 -126 226 -81 226 -4 L226 149 C226 208 188 239 178 242 C192 246 226 266 226 333 L226 486 C226 563 265 608 328 588 L328 716 C208 736 96 681 96 512 L96 367 C96 319 63 300 32 300 L22 300 L22 182 L32 182 C63 182 96 163 96 115 L96 -30 C96 -199 208 -254 328 -234 L328 -234 Z " />
<glyph glyph-name="bar" unicode="&#x7c;" horiz-adv-x="259" d="M68 -254 L191 -254 L191 736 L68 736 L68 -254 Z " />
<glyph glyph-name="braceright" unicode="&#x7d;" horiz-adv-x="352" d="M24 716 L24 588 C87 608 126 563 126 486 L126 333 C126 274 163 243 173 240 C160 236 126 216 126 149 L126 -4 C126 -81 87 -126 24 -106 L24 -234 C143 -254 256 -199 256 -30 L256 115 C256 163 288 182 320 182 L330 182 L330 300 L320 300 C288 300 256 319 256 367 L256 512 C256 681 143 736 24 716 L24 716 Z " />
<glyph glyph-name="asciitilde" unicode="&#x7e;" horiz-adv-x="479" d="M64 171 L159 171 C159 171 144 186 144 211 C144 228 155 238 172 238 C207 238 253 195 334 195 C399 195 431 243 431 298 C431 332 418 360 418 360 L321 360 C321 360 336 337 336 314 C336 300 329 289 314 289 C272 289 217 333 149 333 C81 333 48 286 48 233 C48 193 64 171 64 171 L64 171 Z " />
<glyph glyph-name="exclamdown" unicode="&#xa1;" horiz-adv-x="263" d="M135 503 C89 503 52 466 52 421 C52 376 89 339 135 339 C180 339 217 376 217 421 C217 466 180 503 135 503 L135 503 Z M195 266 L70 266 L49 -218 L212 -218 L195 266 Z " />
<glyph glyph-name="cent" unicode="&#xa2;" horiz-adv-x="508" d="M227 0 L314 0 L314 107 C400 112 463 176 483 212 L392 293 C380 274 355 238 305 234 L305 476 C337 471 358 446 362 433 L472 512 C450 554 389 599 314 607 L314 700 L228 700 L228 605 C118 586 37 501 37 359 C37 220 111 129 227 109 L227 0 Z M238 246 C205 263 181 298 181 359 C181 425 202 462 238 474 L238 246 Z " />
<glyph glyph-name="sterling" unicode="&#xa3;" horiz-adv-x="611" d="M238 126 C266 158 276 194 276 226 L276 227 L460 227 L460 324 L256 324 C237 371 211 406 211 463 C211 522 246 561 322 561 C369 561 420 541 420 478 C420 472 419 465 418 457 L562 457 C566 476 568 493 568 509 C568 644 441 700 326 700 C146 700 57 598 57 474 C57 413 80 368 99 324 L45 324 L45 227 L126 227 L126 220 C124 168 93 114 45 89 L45 -1 L578 -1 L578 126 L238 126 Z " />
<glyph glyph-name="currency" unicode="&#xa4;" horiz-adv-x="579" d="M110 97 L188 176 C218 157 253 146 292 146 C330 146 365 157 394 176 L466 104 L540 177 L467 249 C484 278 493 311 493 347 C493 383 484 416 467 445 L544 521 L470 595 L394 519 C364 538 330 549 292 549 C253 549 218 538 188 518 L112 595 L40 521 L116 444 C100 416 91 383 91 347 C91 312 100 279 116 251 L36 171 L110 97 Z M292 258 C242 258 202 298 202 347 C202 397 242 437 292 437 C342 437 382 397 382 347 C382 298 342 258 292 258 L292 258 Z " />
<glyph glyph-name="yen" unicode="&#xa5;" horiz-adv-x="676" d="M264 0 L412 0 L412 124 L568 124 L568 218 L412 218 L412 261 L421 277 L568 277 L568 372 L463 372 L657 700 L491 700 L342 415 L195 700 L21 700 L212 372 L103 372 L103 277 L256 277 L264 261 L264 218 L103 218 L103 124 L264 124 L264 0 Z " />
<glyph glyph-name="brokenbar" unicode="&#xa6;" horiz-adv-x="259" d="M68 324 L191 324 L191 736 L68 736 L68 324 Z M68 -254 L191 -254 L191 165 L68 165 L68 -254 Z " />
<glyph glyph-name="section" unicode="&#xa7;" horiz-adv-x="620" d="M290 -247 C464 -247 572 -164 572 -35 C572 12 561 47 538 77 C567 109 582 153 582 198 C582 475 209 361 209 500 C209 546 243 579 327 579 C407 579 460 531 475 505 L576 576 C551 632 470 706 316 706 C166 706 60 614 60 507 C60 454 74 413 113 381 C67 344 50 287 50 253 C50 -15 423 95 423 -43 C423 -90 387 -121 302 -121 C219 -121 153 -88 116 -42 L26 -141 C70 -203 167 -247 290 -247 L290 -247 Z M421 151 C272 182 199 197 199 261 C199 278 205 294 217 305 C357 270 435 266 435 193 C435 176 430 162 421 151 L421 151 Z " />
<glyph glyph-name="dieresis" unicode="&#xa8;" horiz-adv-x="400" d="M95 566 C135 566 168 598 168 638 C168 678 135 711 95 711 C55 711 22 678 22 638 C22 598 55 566 95 566 L95 566 Z M307 566 C347 566 379 598 379 638 C379 678 347 711 307 711 C266 711 233 678 233 638 C233 598 266 566 307 566 L307 566 Z " />
<glyph glyph-name="copyright" unicode="&#xa9;" horiz-adv-x="865" d="M432 -37 C656 -37 832 139 832 363 C832 587 656 763 432 763 C208 763 32 587 32 363 C32 139 208 -37 432 -37 L432 -37 Z M432 61 C263 61 132 193 132 363 C132 534 263 666 432 666 C601 666 733 534 733 363 C733 193 602 61 432 61 L432 61 Z M436 131 C545 131 591 189 598 200 L541 269 C536 263 506 230 444 230 C377 230 342 284 342 365 C342 463 388 498 432 498 C500 498 503 436 507 419 L606 437 C606 481 579 597 431 597 C309 597 227 513 227 363 C227 229 303 131 436 131 L436 131 Z " />
<glyph glyph-name="ordfeminine" unicode="&#xaa;" horiz-adv-x="370" d="M130 400 C173 400 205 417 220 444 L221 443 C227 416 248 401 280 401 C303 401 324 407 333 413 L333 493 C319 493 312 498 312 510 L312 604 C312 679 265 717 178 717 C94 717 47 685 47 630 C47 616 51 602 54 598 L152 598 C151 598 150 603 150 608 C150 622 160 630 178 630 C197 630 207 621 207 597 L207 572 L153 572 C69 572 31 543 31 484 C31 434 69 400 130 400 L130 400 Z M160 473 C143 473 131 481 131 496 C131 512 143 521 162 521 L207 521 L207 501 C201 486 182 473 160 473 L160 473 Z " />
<glyph glyph-name="guillemotleft" unicode="&#xab;" horiz-adv-x="549" d="M200 60 L273 142 L145 261 L273 381 L200 463 L34 320 L34 202 L200 60 Z M445 60 L517 142 L390 261 L517 381 L445 463 L278 320 L278 202 L445 60 Z " />
<glyph glyph-name="registered" unicode="&#xae;" horiz-adv-x="865" d="M432 -37 C656 -37 832 139 832 363 C832 587 656 763 432 763 C208 763 32 587 32 363 C32 139 208 -37 432 -37 L432 -37 Z M432 61 C262 61 132 193 132 363 C132 534 263 666 432 666 C602 666 733 533 733 363 C733 194 602 61 432 61 L432 61 Z M579 144 C609 144 624 148 626 149 L626 234 L608 234 C553 234 560 306 512 345 C528 351 589 378 589 453 C589 550 531 591 422 591 L260 591 L260 150 L365 150 L365 303 L395 303 C483 303 443 144 579 144 L579 144 Z M365 389 L365 501 L415 501 C462 501 486 485 486 445 C486 410 458 389 409 389 L365 389 Z " />
<glyph glyph-name="macron" unicode="&#xaf;" horiz-adv-x="423" d="M43 586 L380 586 L380 689 L43 689 L43 586 Z " />
<glyph glyph-name="degree" unicode="&#xb0;" horiz-adv-x="319" d="M159 453 C232 453 293 513 293 587 C293 660 232 722 159 722 C85 722 26 660 26 587 C26 513 85 453 159 453 L159 453 Z M159 530 C128 530 102 556 102 587 C102 619 128 645 159 645 C191 645 217 619 217 587 C217 556 191 530 159 530 L159 530 Z " />
<glyph glyph-name="plusminus" unicode="&#xb1;" horiz-adv-x="495" d="M193 161 L298 161 L298 317 L448 317 L448 421 L298 421 L298 565 L193 565 L193 421 L48 421 L48 317 L193 317 L193 161 Z M42 12 L451 12 L451 116 L42 116 L42 12 Z " />
<glyph glyph-name="acute" unicode="&#xb4;" horiz-adv-x="308" d="M26 568 L152 568 L282 768 L107 768 L26 568 Z " />
<glyph glyph-name="paragraph" unicode="&#xb6;" horiz-adv-x="658" d="M319 0 L405 0 L405 632 L495 632 L495 0 L581 0 L581 700 L249 700 C101 700 26 603 26 465 C26 328 101 232 249 232 L319 232 L319 0 Z " />
<glyph glyph-name="periodcentered" unicode="&#xb7;" horiz-adv-x="242" d="M121 271 C168 271 206 308 206 355 C206 402 168 440 121 440 C73 440 36 402 36 355 C36 308 73 271 121 271 L121 271 Z " />
<glyph glyph-name="cedilla" unicode="&#xb8;" horiz-adv-x="290" d="M143 -190 C197 -190 247 -163 247 -101 C247 -52 209 -27 182 -27 L198 7 L129 7 L99 -66 C161 -66 177 -82 177 -98 C177 -114 166 -125 140 -125 C101 -125 76 -95 76 -95 L43 -147 C43 -147 78 -190 143 -190 L143 -190 Z " />
<glyph glyph-name="ordmasculine" unicode="&#xba;" horiz-adv-x="364" d="M183 400 C283 400 335 468 335 558 C335 648 283 715 183 715 C83 715 29 648 29 558 C29 467 81 400 183 400 L183 400 Z M183 490 C146 490 136 520 136 557 C136 592 148 626 183 626 C217 626 227 592 227 557 C227 521 217 490 183 490 L183 490 Z " />
<glyph glyph-name="guillemotright" unicode="&#xbb;" horiz-adv-x="549" d="M104 60 L270 202 L270 320 L104 463 L31 381 L159 261 L31 141 L104 60 Z M348 60 L515 202 L515 320 L348 463 L276 381 L403 261 L276 141 L348 60 Z " />
<glyph glyph-name="onequarter" unicode="&#xbc;" horiz-adv-x="688" d="M156 0 L258 0 L477 727 L376 727 L156 0 Z M111 318 L210 318 L210 700 L111 700 C105 657 70 628 12 628 L18 535 C63 535 97 548 111 564 L111 318 Z M536 0 L637 0 L637 76 L687 76 L687 162 L637 162 L637 239 L545 239 L545 162 L464 162 L572 382 L466 382 L351 145 L351 76 L536 76 L536 0 Z " />
<glyph glyph-name="onehalf" unicode="&#xbd;" horiz-adv-x="696" d="M153 0 L254 0 L473 727 L373 727 L153 0 Z M108 318 L207 318 L207 700 L108 700 C102 657 67 628 9 628 L15 535 C60 535 94 548 108 564 L108 318 Z M375 0 L679 0 L679 80 L499 80 L499 82 C499 114 668 148 668 266 C668 343 616 386 526 386 C415 386 374 318 374 252 L465 252 C465 269 473 296 520 296 C555 296 569 281 569 257 C569 187 375 163 375 34 L375 0 Z " />
<glyph glyph-name="threequarters" unicode="&#xbe;" horiz-adv-x="744" d="M219 0 L320 0 L539 727 L439 727 L219 0 Z M157 315 C253 315 310 359 310 426 C310 473 289 504 246 517 C277 528 298 556 298 596 C298 662 244 707 156 707 C82 707 12 668 12 583 L104 583 C104 609 126 620 152 620 C181 620 197 608 197 583 C197 559 181 545 147 545 L117 545 L117 474 L157 474 C194 474 209 458 209 433 C209 409 192 394 157 394 C125 394 103 403 81 441 L6 392 C32 338 81 315 157 315 L157 315 Z M598 0 L700 0 L700 76 L750 76 L750 162 L700 162 L700 239 L607 239 L607 162 L526 162 L635 382 L528 382 L413 145 L413 76 L598 76 L598 0 Z " />
<glyph glyph-name="questiondown" unicode="&#xbf;" horiz-adv-x="488" d="M259 501 C213 501 175 464 175 417 C175 371 212 334 259 334 C305 334 342 371 342 417 C342 464 305 501 259 501 L259 501 Z M321 264 L183 264 C181 152 25 133 25 -32 C25 -130 87 -233 245 -233 C373 -233 468 -155 468 -7 L325 -7 C325 -58 296 -88 250 -88 C205 -88 179 -62 179 -15 C179 92 323 101 321 264 L321 264 Z " />
<glyph glyph-name="Agrave" unicode="&#xc0;" horiz-adv-x="664" d="M401 741 L319 902 L142 902 L271 741 L401 741 Z M511 0 L665 0 L408 700 L256 700 L-1 0 L152 0 L206 162 L458 162 L511 0 Z M244 277 L332 543 L420 277 L244 277 Z " />
<glyph glyph-name="Aacute" unicode="&#xc1;" horiz-adv-x="664" d="M513 902 L336 902 L255 741 L384 741 L513 902 Z M511 0 L665 0 L408 700 L256 700 L-1 0 L152 0 L206 162 L458 162 L511 0 Z M244 277 L332 543 L420 277 L244 277 Z " />
<glyph glyph-name="Acircumflex" unicode="&#xc2;" horiz-adv-x="664" d="M332 812 L374 741 L500 741 L411 902 L253 902 L164 741 L289 741 L332 812 Z M511 0 L665 0 L408 700 L256 700 L-1 0 L152 0 L206 162 L458 162 L511 0 Z M244 277 L332 543 L420 277 L244 277 Z " />
<glyph glyph-name="Atilde" unicode="&#xc3;" horiz-adv-x="664" d="M258 742 C255 747 252 754 252 762 C252 776 262 784 277 784 C306 784 347 744 414 744 C477 744 514 783 514 843 C514 861 508 885 499 900 L405 900 C409 895 411 888 411 881 C411 867 402 859 386 859 C352 859 309 899 249 899 C189 899 150 859 150 803 C150 780 156 757 164 742 L258 742 Z M511 0 L665 0 L408 700 L256 700 L-1 0 L152 0 L206 162 L458 162 L511 0 Z M244 277 L332 543 L420 277 L244 277 Z " />
<glyph glyph-name="Adieresis" unicode="&#xc4;" horiz-adv-x="664" d="M208 741 C256 741 295 779 295 827 C295 875 256 915 208 915 C160 915 122 875 122 827 C122 779 160 741 208 741 L208 741 Z M459 741 C508 741 545 779 545 827 C545 875 508 915 459 915 C411 915 372 875 372 827 C372 779 411 741 459 741 L459 741 Z M511 0 L665 0 L408 700 L256 700 L-1 0 L152 0 L206 162 L458 162 L511 0 Z M244 277 L332 543 L420 277 L244 277 Z " />
<glyph glyph-name="Aring" unicode="&#xc5;" horiz-adv-x="664" d="M332 710 C403 710 458 765 458 836 C458 907 403 962 332 962 C261 962 206 907 206 836 C206 765 261 710 332 710 L332 710 Z M332 880 C357 880 375 862 375 836 C375 810 357 791 332 791 C307 791 289 810 289 836 C289 862 307 880 332 880 L332 880 Z M511 0 L665 0 L408 700 L256 700 L-1 0 L152 0 L206 162 L458 162 L511 0 Z M244 277 L332 543 L420 277 L244 277 Z " />
<glyph glyph-name="AE" unicode="&#xc6;" horiz-adv-x="863" d="M-2 0 L159 0 L215 168 L451 168 L508 0 L825 0 L825 125 L624 125 L567 278 L755 278 L755 401 L522 401 L458 575 L825 575 L825 700 L255 700 L-2 0 Z M254 285 L333 521 L413 285 L254 285 Z " />
<glyph glyph-name="Ccedilla" unicode="&#xc7;" horiz-adv-x="628" d="M607 130 L506 201 C470 143 432 118 364 118 C256 118 192 202 192 349 C192 500 249 579 348 579 C415 579 455 539 455 477 C455 461 455 455 451 439 L588 439 C594 460 596 481 596 500 C596 645 485 711 351 711 C159 711 36 570 36 346 C36 134 143 6 316 -9 L290 -82 C334 -85 361 -97 361 -119 C361 -137 348 -145 325 -145 C304 -145 286 -136 272 -123 L229 -187 C251 -209 294 -221 333 -221 C417 -221 467 -183 467 -121 C467 -68 432 -44 385 -38 L395 -9 C496 2 561 50 607 130 L607 130 Z " />
<glyph glyph-name="Egrave" unicode="&#xc8;" horiz-adv-x="570" d="M251 741 L380 741 L299 902 L122 902 L251 741 Z M73 0 L530 0 L530 126 L221 126 L221 291 L486 291 L486 417 L221 417 L221 575 L528 575 L528 700 L73 700 L73 0 Z " />
<glyph glyph-name="Eacute" unicode="&#xc9;" horiz-adv-x="570" d="M235 741 L364 741 L493 902 L316 902 L235 741 Z M73 0 L530 0 L530 126 L221 126 L221 291 L486 291 L486 417 L221 417 L221 575 L528 575 L528 700 L73 700 L73 0 Z " />
<glyph glyph-name="Ecircumflex" unicode="&#xca;" horiz-adv-x="570" d="M144 741 L269 741 L312 812 L354 741 L480 741 L391 902 L233 902 L144 741 Z M73 0 L530 0 L530 126 L221 126 L221 291 L486 291 L486 417 L221 417 L221 575 L528 575 L528 700 L73 700 L73 0 Z " />
<glyph glyph-name="Edieresis" unicode="&#xcb;" horiz-adv-x="570" d="M188 741 C236 741 274 779 274 827 C274 875 236 915 188 915 C140 915 101 875 101 827 C101 779 140 741 188 741 L188 741 Z M439 741 C487 741 525 779 525 827 C525 875 487 915 439 915 C391 915 352 875 352 827 C352 779 391 741 439 741 L439 741 Z M73 0 L530 0 L530 126 L221 126 L221 291 L486 291 L486 417 L221 417 L221 575 L528 575 L528 700 L73 700 L73 0 Z " />
<glyph glyph-name="Igrave" unicode="&#xcc;" horiz-adv-x="295" d="M87 741 L216 741 L135 902 L-43 902 L87 741 Z M73 0 L221 0 L221 700 L73 700 L73 0 Z " />
<glyph glyph-name="Iacute" unicode="&#xcd;" horiz-adv-x="295" d="M71 741 L199 741 L329 902 L152 902 L71 741 Z M73 0 L221 0 L221 700 L73 700 L73 0 Z " />
<glyph glyph-name="Icircumflex" unicode="&#xce;" horiz-adv-x="295" d="M-21 741 L105 741 L147 812 L190 741 L316 741 L227 902 L69 902 L-21 741 Z M73 0 L221 0 L221 700 L73 700 L73 0 Z " />
<glyph glyph-name="Idieresis" unicode="&#xcf;" horiz-adv-x="295" d="M24 741 C72 741 110 779 110 827 C110 875 72 915 24 915 C-24 915 -63 875 -63 827 C-63 779 -24 741 24 741 L24 741 Z M275 741 C323 741 361 779 361 827 C361 875 323 915 275 915 C227 915 188 875 188 827 C188 779 227 741 275 741 L275 741 Z M73 0 L221 0 L221 700 L73 700 L73 0 Z " />
<glyph glyph-name="Eth" unicode="&#xd0;" horiz-adv-x="706" d="M312 700 L85 700 L85 407 L13 407 L13 302 L85 302 L85 0 L329 0 C503 0 670 93 670 350 C670 605 517 700 312 700 L312 700 Z M314 122 L233 122 L233 302 L336 302 L336 407 L233 407 L233 578 L303 578 C455 578 516 489 516 342 C516 196 439 122 314 122 L314 122 Z " />
<glyph glyph-name="Ntilde" unicode="&#xd1;" horiz-adv-x="691" d="M184 742 L278 742 C274 747 272 754 272 762 C272 776 281 784 296 784 C325 784 367 744 433 744 C496 744 533 783 533 843 C533 861 528 885 519 900 L425 900 C428 895 431 888 431 881 C431 867 421 859 405 859 C372 859 328 899 268 899 C208 899 169 859 169 803 C169 780 175 757 184 742 L184 742 Z M73 0 L213 0 L213 460 L227 427 L488 0 L618 0 L618 700 L479 700 L479 231 L460 273 L204 700 L73 700 L73 0 Z " />
<glyph glyph-name="Ograve" unicode="&#xd2;" horiz-adv-x="717" d="M298 741 L427 741 L346 902 L168 902 L298 741 Z M357 -11 C535 -11 681 107 681 349 C681 601 537 711 360 711 C182 711 36 591 36 348 C36 97 180 -11 357 -11 L357 -11 Z M357 118 C267 118 191 177 191 348 C191 520 270 579 360 579 C449 579 526 522 526 349 C526 179 448 118 357 118 L357 118 Z " />
<glyph glyph-name="Oacute" unicode="&#xd3;" horiz-adv-x="717" d="M282 741 L410 741 L540 902 L363 902 L282 741 Z M357 -11 C535 -11 681 107 681 349 C681 601 537 711 360 711 C182 711 36 591 36 348 C36 97 180 -11 357 -11 L357 -11 Z M357 118 C267 118 191 177 191 348 C191 520 270 579 360 579 C449 579 526 522 526 349 C526 179 448 118 357 118 L357 118 Z " />
<glyph glyph-name="Ocircumflex" unicode="&#xd4;" horiz-adv-x="717" d="M191 741 L316 741 L359 812 L401 741 L527 741 L438 902 L280 902 L191 741 Z M357 -11 C535 -11 681 107 681 349 C681 601 537 711 360 711 C182 711 36 591 36 348 C36 97 180 -11 357 -11 L357 -11 Z M357 118 C267 118 191 177 191 348 C191 520 270 579 360 579 C449 579 526 522 526 349 C526 179 448 118 357 118 L357 118 Z " />
<glyph glyph-name="Otilde" unicode="&#xd5;" horiz-adv-x="717" d="M191 742 L285 742 C282 747 279 754 279 762 C279 776 289 784 304 784 C333 784 374 744 441 744 C503 744 541 783 541 843 C541 861 535 885 526 900 L432 900 C436 895 438 888 438 881 C438 867 428 859 413 859 C379 859 336 899 276 899 C215 899 177 859 177 803 C177 780 183 757 191 742 L191 742 Z M357 -11 C535 -11 681 107 681 349 C681 601 537 711 360 711 C182 711 36 591 36 348 C36 97 180 -11 357 -11 L357 -11 Z M357 118 C267 118 191 177 191 348 C191 520 270 579 360 579 C449 579 526 522 526 349 C526 179 448 118 357 118 L357 118 Z " />
<glyph glyph-name="Odieresis" unicode="&#xd6;" horiz-adv-x="717" d="M235 741 C283 741 321 779 321 827 C321 875 283 915 235 915 C187 915 148 875 148 827 C148 779 187 741 235 741 L235 741 Z M486 741 C534 741 572 779 572 827 C572 875 534 915 486 915 C438 915 399 875 399 827 C399 779 438 741 486 741 L486 741 Z M357 -11 C535 -11 681 107 681 349 C681 601 537 711 360 711 C182 711 36 591 36 348 C36 97 180 -11 357 -11 L357 -11 Z M357 118 C267 118 191 177 191 348 C191 520 270 579 360 579 C449 579 526 522 526 349 C526 179 448 118 357 118 L357 118 Z " />
<glyph glyph-name="multiply" unicode="&#xd7;" horiz-adv-x="491" d="M109 55 L245 191 L381 55 L455 128 L319 265 L455 401 L381 474 L245 339 L109 474 L35 401 L171 265 L35 128 L109 55 Z " />
<glyph glyph-name="Oslash" unicode="&#xd8;" horiz-adv-x="717" d="M593 618 L657 716 L536 716 L512 679 C467 701 415 711 360 711 C182 711 36 591 36 348 C36 228 69 141 123 82 L59 -16 L182 -16 L206 21 C251 -1 303 -11 358 -11 C535 -11 681 107 681 349 C681 470 648 559 593 618 L593 618 Z M191 348 C191 520 270 579 360 579 C387 579 413 574 436 562 L212 218 C199 252 191 294 191 348 L191 348 Z M358 118 C330 118 304 123 281 136 L505 482 C519 448 527 405 527 349 C527 179 448 118 358 118 L358 118 Z " />
<glyph glyph-name="Ugrave" unicode="&#xd9;" horiz-adv-x="677" d="M278 741 L407 741 L326 902 L148 902 L278 741 Z M340 -6 C488 -6 610 67 610 290 L610 700 L464 700 L464 278 C464 189 432 126 341 126 C249 126 214 189 214 278 L214 700 L67 700 L66 290 C65 67 191 -6 340 -6 L340 -6 Z " />
<glyph glyph-name="Uacute" unicode="&#xda;" horiz-adv-x="677" d="M262 741 L390 741 L520 902 L343 902 L262 741 Z M340 -6 C488 -6 610 67 610 290 L610 700 L464 700 L464 278 C464 189 432 126 341 126 C249 126 214 189 214 278 L214 700 L67 700 L66 290 C65 67 191 -6 340 -6 L340 -6 Z " />
<glyph glyph-name="Ucircumflex" unicode="&#xdb;" horiz-adv-x="677" d="M170 741 L296 741 L338 812 L380 741 L507 741 L418 902 L260 902 L170 741 Z M340 -6 C488 -6 610 67 610 290 L610 700 L464 700 L464 278 C464 189 432 126 341 126 C249 126 214 189 214 278 L214 700 L67 700 L66 290 C65 67 191 -6 340 -6 L340 -6 Z " />
<glyph glyph-name="Udieresis" unicode="&#xdc;" horiz-adv-x="677" d="M215 741 C263 741 301 779 301 827 C301 875 263 915 215 915 C166 915 128 875 128 827 C128 779 166 741 215 741 L215 741 Z M466 741 C514 741 552 779 552 827 C552 875 514 915 466 915 C418 915 378 875 378 827 C378 779 418 741 466 741 L466 741 Z M340 -6 C488 -6 610 67 610 290 L610 700 L464 700 L464 278 C464 189 432 126 341 126 C249 126 214 189 214 278 L214 700 L67 700 L66 290 C65 67 191 -6 340 -6 L340 -6 Z " />
<glyph glyph-name="Yacute" unicode="&#xdd;" horiz-adv-x="631" d="M239 741 L368 741 L497 902 L320 902 L239 741 Z M242 0 L389 0 L389 283 L629 700 L465 700 L320 414 L175 700 L2 700 L242 280 L242 0 Z " />
<glyph glyph-name="Thorn" unicode="&#xde;" horiz-adv-x="634" d="M73 0 L229 0 L229 114 L343 114 C484 114 603 187 603 351 C603 516 495 594 322 594 L229 594 L229 700 L73 700 L73 0 Z M229 238 L229 470 L309 470 C403 470 446 421 446 351 C446 276 400 238 315 238 L229 238 Z " />
<glyph glyph-name="germandbls" unicode="&#xdf;" horiz-adv-x="619" d="M400 -13 C531 -13 604 49 604 145 C604 281 444 295 444 364 C444 436 535 454 535 561 C535 668 454 734 327 734 C177 734 90 646 90 505 L90 482 L20 482 L20 367 L90 367 L90 0 L236 0 L236 504 C236 565 267 599 318 599 C365 599 392 571 392 530 C392 461 296 432 296 338 C296 230 457 217 457 155 C457 122 428 111 384 111 C359 111 332 118 311 132 L265 15 C293 -2 347 -13 400 -13 L400 -13 Z " />
<glyph glyph-name="agrave" unicode="&#xe0;" horiz-adv-x="524" d="M320 541 L239 741 L68 741 L198 541 L320 541 Z M458 152 L458 308 C458 426 396 496 252 496 C121 496 51 438 51 352 C51 317 60 300 62 297 L193 297 C189 304 186 315 186 328 C186 365 207 383 247 383 C289 383 312 360 312 313 L312 259 L217 259 C83 259 24 207 24 120 C24 43 80 -12 179 -12 C266 -12 310 30 331 69 C335 30 359 -8 434 -8 C457 -8 483 -4 498 0 L498 110 C468 110 458 124 458 152 L458 152 Z M223 97 C190 97 170 113 170 139 C170 165 189 184 231 184 L312 185 L312 165 C298 123 268 97 223 97 L223 97 Z " />
<glyph glyph-name="aacute" unicode="&#xe1;" horiz-adv-x="524" d="M432 741 L261 741 L180 541 L302 541 L432 741 Z M458 152 L458 308 C458 426 396 496 252 496 C121 496 51 438 51 352 C51 317 60 300 62 297 L193 297 C189 304 186 315 186 328 C186 365 207 383 247 383 C289 383 312 360 312 313 L312 259 L217 259 C83 259 24 207 24 120 C24 43 80 -12 179 -12 C266 -12 310 30 331 69 C335 30 359 -8 434 -8 C457 -8 483 -4 498 0 L498 110 C468 110 458 124 458 152 L458 152 Z M223 97 C190 97 170 113 170 139 C170 165 189 184 231 184 L312 185 L312 165 C298 123 268 97 223 97 L223 97 Z " />
<glyph glyph-name="acircumflex" unicode="&#xe2;" horiz-adv-x="524" d="M257 639 L299 543 L425 543 L336 737 L180 737 L90 543 L215 543 L257 639 Z M458 152 L458 308 C458 426 396 496 252 496 C121 496 51 438 51 352 C51 317 60 300 62 297 L193 297 C189 304 186 315 186 328 C186 365 207 383 247 383 C289 383 312 360 312 313 L312 259 L217 259 C83 259 24 207 24 120 C24 43 80 -12 179 -12 C266 -12 310 30 331 69 C335 30 359 -8 434 -8 C457 -8 483 -4 498 0 L498 110 C468 110 458 124 458 152 L458 152 Z M223 97 C190 97 170 113 170 139 C170 165 189 184 231 184 L312 185 L312 165 C298 123 268 97 223 97 L223 97 Z " />
<glyph glyph-name="atilde" unicode="&#xe3;" horiz-adv-x="524" d="M189 549 C185 554 182 563 182 571 C182 585 193 594 210 594 C235 594 273 551 334 551 C396 551 433 591 433 651 C433 670 428 694 418 710 L330 710 C334 705 336 694 336 687 C336 673 325 666 311 666 C279 666 238 708 184 708 C121 708 83 668 83 611 C83 587 89 564 99 549 L189 549 Z M458 152 L458 308 C458 426 396 496 252 496 C121 496 51 438 51 352 C51 317 60 300 62 297 L193 297 C189 304 186 315 186 328 C186 365 207 383 247 383 C289 383 312 360 312 313 L312 259 L217 259 C83 259 24 207 24 120 C24 43 80 -12 179 -12 C266 -12 310 30 331 69 C335 30 359 -8 434 -8 C457 -8 483 -4 498 0 L498 110 C468 110 458 124 458 152 L458 152 Z M223 97 C190 97 170 113 170 139 C170 165 189 184 231 184 L312 185 L312 165 C298 123 268 97 223 97 L223 97 Z " />
<glyph glyph-name="adieresis" unicode="&#xe4;" horiz-adv-x="524" d="M145 552 C193 552 230 591 230 638 C230 684 193 724 145 724 C98 724 60 684 60 638 C60 591 98 552 145 552 L145 552 Z M371 552 C418 552 456 591 456 638 C456 684 418 724 371 724 C324 724 285 684 285 638 C285 591 324 552 371 552 L371 552 Z M458 152 L458 308 C458 426 396 496 252 496 C121 496 51 438 51 352 C51 317 60 300 62 297 L193 297 C189 304 186 315 186 328 C186 365 207 383 247 383 C289 383 312 360 312 313 L312 259 L217 259 C83 259 24 207 24 120 C24 43 80 -12 179 -12 C266 -12 310 30 331 69 C335 30 359 -8 434 -8 C457 -8 483 -4 498 0 L498 110 C468 110 458 124 458 152 L458 152 Z M223 97 C190 97 170 113 170 139 C170 165 189 184 231 184 L312 185 L312 165 C298 123 268 97 223 97 L223 97 Z " />
<glyph glyph-name="aring" unicode="&#xe5;" horiz-adv-x="524" d="M258 520 C326 520 378 573 378 641 C378 709 326 762 258 762 C189 762 137 709 137 641 C137 573 189 520 258 520 L258 520 Z M258 685 C282 685 300 666 300 641 C300 616 283 597 258 597 C233 597 216 616 216 641 C216 666 233 685 258 685 L258 685 Z M458 152 L458 308 C458 426 396 496 252 496 C121 496 51 438 51 352 C51 317 60 300 62 297 L193 297 C189 304 186 315 186 328 C186 365 207 383 247 383 C289 383 312 360 312 313 L312 259 L217 259 C83 259 24 207 24 120 C24 43 80 -12 179 -12 C266 -12 310 30 331 69 C335 30 359 -8 434 -8 C457 -8 483 -4 498 0 L498 110 C468 110 458 124 458 152 L458 152 Z M223 97 C190 97 170 113 170 139 C170 165 189 184 231 184 L312 185 L312 165 C298 123 268 97 223 97 L223 97 Z " />
<glyph glyph-name="ae" unicode="&#xe6;" horiz-adv-x="783" d="M677 165 C669 154 631 106 563 106 C501 106 465 141 460 219 L748 219 C750 239 750 249 750 265 C750 405 682 496 547 496 C487 496 439 475 402 443 C369 475 319 496 252 496 C121 496 51 438 51 352 C51 317 60 300 62 297 L193 297 C191 299 186 310 186 328 C186 365 207 383 247 383 C289 383 312 362 312 315 L312 259 L217 259 C83 259 24 208 24 121 C24 44 79 -12 178 -12 C256 -12 313 18 356 83 C395 22 462 -13 550 -13 C685 -13 742 74 752 90 L677 165 Z M543 381 C587 381 612 351 612 298 L463 298 C471 350 493 381 543 381 L543 381 Z M222 98 C187 98 171 115 171 141 C171 167 189 186 231 186 L312 186 L312 164 C299 126 270 98 222 98 L222 98 Z " />
<glyph glyph-name="ccedilla" unicode="&#xe7;" horiz-adv-x="494" d="M472 90 L387 166 C365 134 339 109 284 109 C216 109 178 156 178 245 C178 332 209 374 268 374 C312 374 336 354 336 311 C336 296 334 283 331 274 L455 275 C460 289 464 314 464 335 C464 442 387 496 270 496 C123 496 31 402 31 241 C31 94 108 3 236 -11 L210 -82 C255 -85 282 -97 282 -119 C282 -137 269 -145 246 -145 C225 -145 207 -136 192 -123 L150 -187 C172 -209 215 -221 254 -221 C338 -221 387 -183 387 -121 C387 -68 352 -44 306 -38 L316 -10 C389 1 443 40 472 90 L472 90 Z " />
<glyph glyph-name="egrave" unicode="&#xe8;" horiz-adv-x="503" d="M322 541 L241 741 L70 741 L200 541 L322 541 Z M389 161 C366 129 340 106 282 106 C218 106 183 142 177 217 L469 217 C471 234 471 243 471 265 C471 412 397 496 266 496 C119 496 30 398 30 238 C30 83 121 -13 268 -13 C365 -13 441 31 474 92 L389 161 Z M261 381 C308 381 331 348 331 297 L180 297 C189 352 213 381 261 381 L261 381 Z " />
<glyph glyph-name="eacute" unicode="&#xe9;" horiz-adv-x="503" d="M435 741 L264 741 L182 541 L305 541 L435 741 Z M389 161 C366 129 340 106 282 106 C218 106 183 142 177 217 L469 217 C471 234 471 243 471 265 C471 412 397 496 266 496 C119 496 30 398 30 238 C30 83 121 -13 268 -13 C365 -13 441 31 474 92 L389 161 Z M261 381 C308 381 331 348 331 297 L180 297 C189 352 213 381 261 381 L261 381 Z " />
<glyph glyph-name="ecircumflex" unicode="&#xea;" horiz-adv-x="503" d="M260 639 L302 543 L427 543 L338 737 L182 737 L92 543 L218 543 L260 639 Z M389 161 C366 129 340 106 282 106 C218 106 183 142 177 217 L469 217 C471 234 471 243 471 265 C471 412 397 496 266 496 C119 496 30 398 30 238 C30 83 121 -13 268 -13 C365 -13 441 31 474 92 L389 161 Z M261 381 C308 381 331 348 331 297 L180 297 C189 352 213 381 261 381 L261 381 Z " />
<glyph glyph-name="edieresis" unicode="&#xeb;" horiz-adv-x="503" d="M148 552 C195 552 233 591 233 638 C233 684 195 724 148 724 C101 724 62 684 62 638 C62 591 101 552 148 552 L148 552 Z M374 552 C420 552 458 591 458 638 C458 684 420 724 374 724 C326 724 288 684 288 638 C288 591 326 552 374 552 L374 552 Z M389 161 C366 129 340 106 282 106 C218 106 183 142 177 217 L469 217 C471 234 471 243 471 265 C471 412 397 496 266 496 C119 496 30 398 30 238 C30 83 121 -13 268 -13 C365 -13 441 31 474 92 L389 161 Z M261 381 C308 381 331 348 331 297 L180 297 C189 352 213 381 261 381 L261 381 Z " />
<glyph glyph-name="igrave" unicode="&#xec;" horiz-adv-x="260" d="M70 541 L192 541 L111 741 L-60 741 L70 541 Z M57 0 L203 0 L203 482 L57 482 L57 0 Z " />
<glyph glyph-name="iacute" unicode="&#xed;" horiz-adv-x="260" d="M52 541 L175 541 L304 741 L133 741 L52 541 Z M57 0 L203 0 L203 482 L57 482 L57 0 Z " />
<glyph glyph-name="icircumflex" unicode="&#xee;" horiz-adv-x="260" d="M-38 543 L87 543 L129 639 L171 543 L297 543 L208 737 L52 737 L-38 543 Z M57 0 L203 0 L203 482 L57 482 L57 0 Z " />
<glyph glyph-name="idieresis" unicode="&#xef;" horiz-adv-x="260" d="M17 552 C65 552 102 591 102 638 C102 684 65 724 17 724 C-30 724 -68 684 -68 638 C-68 591 -30 552 17 552 L17 552 Z M243 552 C290 552 328 591 328 638 C328 684 290 724 243 724 C196 724 157 684 157 638 C157 591 196 552 243 552 L243 552 Z M57 0 L203 0 L203 482 L57 482 L57 0 Z " />
<glyph glyph-name="eth" unicode="&#xf0;" horiz-adv-x="555" d="M419 622 L489 664 L446 729 L352 673 C290 707 212 726 118 727 L118 607 C154 607 189 603 219 594 L157 557 L201 490 L304 552 C345 520 371 472 374 409 C344 437 305 456 241 456 C115 456 30 355 30 223 C30 90 104 -15 266 -15 C433 -15 518 104 518 335 C518 460 485 556 419 622 L419 622 Z M269 109 C212 109 176 154 176 226 C176 290 210 332 272 332 C314 332 344 319 371 291 C371 198 353 109 269 109 L269 109 Z " />
<glyph glyph-name="ntilde" unicode="&#xf1;" horiz-adv-x="574" d="M127 549 L217 549 C213 554 210 563 210 571 C210 585 221 594 237 594 C263 594 300 551 362 551 C424 551 461 591 461 651 C461 670 456 694 446 710 L358 710 C362 705 364 694 364 687 C364 673 353 666 339 666 C307 666 266 708 212 708 C149 708 111 668 111 611 C111 587 117 564 127 549 L127 549 Z M484 -7 C509 -7 536 -3 548 1 L548 111 C521 111 509 124 509 153 L509 304 C509 426 447 496 339 496 C263 496 219 457 199 419 L199 420 C192 459 159 489 99 489 C71 489 45 486 32 481 L32 371 C60 371 72 359 72 330 L72 0 L218 0 L218 284 C218 333 248 365 293 365 C335 365 362 337 362 288 L362 118 C362 32 402 -7 484 -7 L484 -7 Z " />
<glyph glyph-name="ograve" unicode="&#xf2;" horiz-adv-x="543" d="M212 541 L334 541 L253 741 L82 741 L212 541 Z M269 -13 C425 -13 513 94 513 242 C513 392 430 496 275 496 C119 496 30 391 30 241 C30 91 112 -13 269 -13 L269 -13 Z M272 109 C209 109 179 158 179 241 C179 324 211 374 272 374 C332 374 365 324 365 241 C365 158 334 109 272 109 L272 109 Z " />
<glyph glyph-name="oacute" unicode="&#xf3;" horiz-adv-x="543" d="M194 541 L316 541 L446 741 L275 741 L194 541 Z M269 -13 C425 -13 513 94 513 242 C513 392 430 496 275 496 C119 496 30 391 30 241 C30 91 112 -13 269 -13 L269 -13 Z M272 109 C209 109 179 158 179 241 C179 324 211 374 272 374 C332 374 365 324 365 241 C365 158 334 109 272 109 L272 109 Z " />
<glyph glyph-name="ocircumflex" unicode="&#xf4;" horiz-adv-x="543" d="M104 543 L229 543 L271 639 L313 543 L439 543 L349 737 L193 737 L104 543 Z M269 -13 C425 -13 513 94 513 242 C513 392 430 496 275 496 C119 496 30 391 30 241 C30 91 112 -13 269 -13 L269 -13 Z M272 109 C209 109 179 158 179 241 C179 324 211 374 272 374 C332 374 365 324 365 241 C365 158 334 109 272 109 L272 109 Z " />
<glyph glyph-name="otilde" unicode="&#xf5;" horiz-adv-x="543" d="M112 549 L203 549 C199 554 196 563 196 571 C196 585 207 594 223 594 C249 594 286 551 348 551 C410 551 447 591 447 651 C447 670 442 694 432 710 L343 710 C348 705 350 694 350 687 C350 673 339 666 324 666 C293 666 252 708 198 708 C135 708 97 668 97 611 C97 587 103 564 112 549 L112 549 Z M269 -13 C425 -13 513 94 513 242 C513 392 430 496 275 496 C119 496 30 391 30 241 C30 91 112 -13 269 -13 L269 -13 Z M272 109 C209 109 179 158 179 241 C179 324 211 374 272 374 C332 374 365 324 365 241 C365 158 334 109 272 109 L272 109 Z " />
<glyph glyph-name="odieresis" unicode="&#xf6;" horiz-adv-x="543" d="M159 552 C207 552 244 591 244 638 C244 684 207 724 159 724 C112 724 74 684 74 638 C74 591 112 552 159 552 L159 552 Z M385 552 C432 552 469 591 469 638 C469 684 432 724 385 724 C337 724 299 684 299 638 C299 591 337 552 385 552 L385 552 Z M269 -13 C425 -13 513 94 513 242 C513 392 430 496 275 496 C119 496 30 391 30 241 C30 91 112 -13 269 -13 L269 -13 Z M272 109 C209 109 179 158 179 241 C179 324 211 374 272 374 C332 374 365 324 365 241 C365 158 334 109 272 109 L272 109 Z " />
<glyph glyph-name="divide" unicode="&#xf7;" horiz-adv-x="439" d="M220 359 C272 359 314 401 314 453 C314 504 272 545 220 545 C169 545 129 504 129 453 C129 401 169 359 220 359 L220 359 Z M31 214 L408 214 L408 318 L31 318 L31 214 Z M221 -23 C273 -23 315 20 315 71 C315 122 273 164 221 164 C170 164 129 122 129 71 C129 20 170 -23 221 -23 L221 -23 Z " />
<glyph glyph-name="oslash" unicode="&#xf8;" horiz-adv-x="543" d="M446 432 L503 517 L410 517 L382 475 C352 489 316 496 275 496 C119 496 30 391 30 241 C30 162 53 96 97 51 L39 -35 L133 -35 L161 7 C192 -6 228 -13 269 -13 C425 -13 513 94 513 242 C513 321 490 387 446 432 L446 432 Z M179 241 C179 324 211 374 272 374 C286 374 298 371 309 366 L185 183 C181 200 179 219 179 241 L179 241 Z M272 109 C258 109 245 111 234 116 L358 301 C363 283 365 263 365 241 C365 158 334 109 272 109 L272 109 Z " />
<glyph glyph-name="ugrave" unicode="&#xf9;" horiz-adv-x="561" d="M212 541 L334 541 L253 741 L82 741 L212 541 Z M209 -13 C288 -13 332 16 361 70 L362 69 C368 21 400 -8 465 -8 C493 -8 519 -4 529 0 L529 110 C501 110 490 124 490 152 L490 482 L344 482 L344 201 C344 157 314 117 266 117 C223 117 199 139 199 197 L199 482 L53 482 L53 161 C53 46 107 -13 209 -13 L209 -13 Z " />
<glyph glyph-name="uacute" unicode="&#xfa;" horiz-adv-x="561" d="M194 541 L317 541 L447 741 L276 741 L194 541 Z M209 -13 C288 -13 332 16 361 70 L362 69 C368 21 400 -8 465 -8 C493 -8 519 -4 529 0 L529 110 C501 110 490 124 490 152 L490 482 L344 482 L344 201 C344 157 314 117 266 117 C223 117 199 139 199 197 L199 482 L53 482 L53 161 C53 46 107 -13 209 -13 L209 -13 Z " />
<glyph glyph-name="ucircumflex" unicode="&#xfb;" horiz-adv-x="561" d="M104 543 L229 543 L272 639 L314 543 L439 543 L350 737 L194 737 L104 543 Z M209 -13 C288 -13 332 16 361 70 L362 69 C368 21 400 -8 465 -8 C493 -8 519 -4 529 0 L529 110 C501 110 490 124 490 152 L490 482 L344 482 L344 201 C344 157 314 117 266 117 C223 117 199 139 199 197 L199 482 L53 482 L53 161 C53 46 107 -13 209 -13 L209 -13 Z " />
<glyph glyph-name="udieresis" unicode="&#xfc;" horiz-adv-x="561" d="M160 552 C207 552 245 591 245 638 C245 684 207 724 160 724 C113 724 74 684 74 638 C74 591 113 552 160 552 L160 552 Z M385 552 C432 552 470 591 470 638 C470 684 432 724 385 724 C338 724 299 684 299 638 C299 591 338 552 385 552 L385 552 Z M209 -13 C288 -13 332 16 361 70 L362 69 C368 21 400 -8 465 -8 C493 -8 519 -4 529 0 L529 110 C501 110 490 124 490 152 L490 482 L344 482 L344 201 C344 157 314 117 266 117 C223 117 199 139 199 197 L199 482 L53 482 L53 161 C53 46 107 -13 209 -13 L209 -13 Z " />
<glyph glyph-name="yacute" unicode="&#xfd;" horiz-adv-x="525" d="M186 541 L308 541 L438 741 L267 741 L186 541 Z M105 -247 C205 -247 264 -200 305 -93 L523 482 L369 482 L286 226 L269 160 L248 226 L156 482 L1 482 L198 0 L181 -46 C160 -102 134 -123 91 -123 C74 -123 51 -118 40 -109 L8 -227 C30 -239 71 -247 105 -247 L105 -247 Z " />
<glyph glyph-name="thorn" unicode="&#xfe;" horiz-adv-x="559" d="M56 -229 L202 -229 L202 29 C223 5 262 -13 320 -13 C438 -13 529 90 529 245 C529 396 452 496 335 496 C273 496 230 474 202 436 L202 726 L56 726 L56 -229 Z M289 109 C240 109 212 139 200 179 L200 300 C211 340 241 374 289 374 C343 374 380 329 380 242 C380 155 347 109 289 109 L289 109 Z " />
<glyph glyph-name="ydieresis" unicode="&#xff;" horiz-adv-x="525" d="M151 552 C199 552 236 591 236 638 C236 684 199 724 151 724 C104 724 66 684 66 638 C66 591 104 552 151 552 L151 552 Z M377 552 C424 552 461 591 461 638 C461 684 424 724 377 724 C329 724 291 684 291 638 C291 591 329 552 377 552 L377 552 Z M105 -247 C205 -247 264 -200 305 -93 L523 482 L369 482 L286 226 L269 160 L248 226 L156 482 L1 482 L198 0 L181 -46 C160 -102 134 -123 91 -123 C74 -123 51 -118 40 -109 L8 -227 C30 -239 71 -247 105 -247 L105 -247 Z " />
<glyph glyph-name="Amacron" unicode="&#x100;" horiz-adv-x="664" d="M490 870 L174 870 L174 765 L490 765 L490 870 Z M511 0 L665 0 L408 700 L256 700 L-1 0 L152 0 L206 162 L458 162 L511 0 Z M244 277 L332 543 L420 277 L244 277 Z " />
<glyph glyph-name="amacron" unicode="&#x101;" horiz-adv-x="524" d="M408 693 L108 693 L108 584 L408 584 L408 693 Z M458 152 L458 308 C458 426 396 496 252 496 C121 496 51 438 51 352 C51 317 60 300 62 297 L193 297 C189 304 186 315 186 328 C186 365 207 383 247 383 C289 383 312 360 312 313 L312 259 L217 259 C83 259 24 207 24 120 C24 43 80 -12 179 -12 C266 -12 310 30 331 69 C335 30 359 -8 434 -8 C457 -8 483 -4 498 0 L498 110 C468 110 458 124 458 152 L458 152 Z M223 97 C190 97 170 113 170 139 C170 165 189 184 231 184 L312 185 L312 165 C298 123 268 97 223 97 L223 97 Z " />
<glyph glyph-name="Abreve" unicode="&#x102;" horiz-adv-x="664" d="M331 743 C440 743 487 819 487 901 L380 901 C380 866 365 844 331 844 C298 844 282 866 282 901 L176 901 C176 819 221 743 331 743 L331 743 Z M511 0 L665 0 L408 700 L256 700 L-1 0 L152 0 L206 162 L458 162 L511 0 Z M244 277 L332 543 L420 277 L244 277 Z " />
<glyph glyph-name="abreve" unicode="&#x103;" horiz-adv-x="524" d="M259 557 C380 557 413 640 413 723 L307 723 C307 682 292 663 258 663 C225 663 209 682 209 723 L102 723 C102 640 135 557 259 557 L259 557 Z M458 152 L458 308 C458 426 396 496 252 496 C121 496 51 438 51 352 C51 317 60 300 62 297 L193 297 C189 304 186 315 186 328 C186 365 207 383 247 383 C289 383 312 360 312 313 L312 259 L217 259 C83 259 24 207 24 120 C24 43 80 -12 179 -12 C266 -12 310 30 331 69 C335 30 359 -8 434 -8 C457 -8 483 -4 498 0 L498 110 C468 110 458 124 458 152 L458 152 Z M223 97 C190 97 170 113 170 139 C170 165 189 184 231 184 L312 185 L312 165 C298 123 268 97 223 97 L223 97 Z " />
<glyph glyph-name="Aogonek" unicode="&#x104;" horiz-adv-x="664" d="M633 -108 C627 -113 619 -118 606 -118 C587 -118 575 -108 575 -81 C575 -50 598 -18 640 0 L665 0 L408 700 L256 700 L-1 0 L152 0 L206 162 L458 162 L511 0 L517 0 C484 -30 464 -68 464 -106 C464 -168 503 -203 578 -203 C616 -203 648 -193 667 -176 L633 -108 Z M244 277 L332 543 L420 277 L244 277 Z " />
<glyph glyph-name="aogonek" unicode="&#x105;" horiz-adv-x="524" d="M491 -108 C485 -113 477 -118 463 -118 C445 -118 433 -107 433 -80 C433 -50 455 -18 498 0 L498 110 C468 110 458 124 458 152 L458 308 C458 426 396 496 252 496 C121 496 51 438 51 352 C51 317 60 300 62 297 L193 297 C189 304 186 315 186 328 C186 365 207 383 247 383 C289 383 312 360 312 313 L312 259 L217 259 C83 259 24 207 24 120 C24 43 80 -12 179 -12 C266 -12 310 30 331 69 C334 42 346 16 378 2 C342 -29 321 -67 321 -106 C321 -168 361 -202 436 -202 C474 -202 506 -192 524 -176 L491 -108 Z M223 97 C190 97 170 113 170 139 C170 165 189 184 231 184 L312 185 L312 165 C298 123 268 97 223 97 L223 97 Z " />
<glyph glyph-name="Cacute" unicode="&#x106;" horiz-adv-x="629" d="M272 741 L401 741 L531 902 L354 902 L272 741 Z M352 -11 C479 -11 556 39 607 130 L507 201 C471 143 432 118 365 118 C257 118 192 202 192 349 C192 500 250 579 348 579 C416 579 456 539 456 477 C456 461 455 455 451 439 L589 439 C594 460 597 481 597 500 C597 645 485 711 352 711 C159 711 37 570 37 346 C37 120 159 -11 352 -11 L352 -11 Z " />
<glyph glyph-name="cacute" unicode="&#x107;" horiz-adv-x="493" d="M185 541 L308 541 L437 741 L266 741 L185 541 Z M270 -13 C367 -13 436 30 471 90 L387 166 C364 134 338 109 283 109 C216 109 177 156 177 245 C177 332 208 374 267 374 C311 374 335 354 335 311 C335 296 333 283 330 274 L454 275 C460 289 463 314 463 335 C463 442 387 496 269 496 C122 496 30 402 30 241 C30 81 121 -13 270 -13 L270 -13 Z " />
<glyph glyph-name="Ccircumflex" unicode="&#x108;" horiz-adv-x="629" d="M181 741 L307 741 L349 812 L391 741 L518 741 L429 902 L271 902 L181 741 Z M352 -11 C479 -11 556 39 607 130 L507 201 C471 143 432 118 365 118 C257 118 192 202 192 349 C192 500 250 579 348 579 C416 579 456 539 456 477 C456 461 455 455 451 439 L589 439 C594 460 597 481 597 500 C597 645 485 711 352 711 C159 711 37 570 37 346 C37 120 159 -11 352 -11 L352 -11 Z " />
<glyph glyph-name="ccircumflex" unicode="&#x109;" horiz-adv-x="493" d="M95 543 L220 543 L262 639 L304 543 L430 543 L341 737 L185 737 L95 543 Z M270 -13 C367 -13 436 30 471 90 L387 166 C364 134 338 109 283 109 C216 109 177 156 177 245 C177 332 208 374 267 374 C311 374 335 354 335 311 C335 296 333 283 330 274 L454 275 C460 289 463 314 463 335 C463 442 387 496 269 496 C122 496 30 402 30 241 C30 81 121 -13 270 -13 L270 -13 Z " />
<glyph glyph-name="Cdotaccent" unicode="&#x10a;" horiz-adv-x="629" d="M352 739 C400 739 439 778 439 827 C439 874 400 915 352 915 C304 915 263 874 263 827 C263 778 304 739 352 739 L352 739 Z M352 -11 C479 -11 556 39 607 130 L507 201 C471 143 432 118 365 118 C257 118 192 202 192 349 C192 500 250 579 348 579 C416 579 456 539 456 477 C456 461 455 455 451 439 L589 439 C594 460 597 481 597 500 C597 645 485 711 352 711 C159 711 37 570 37 346 C37 120 159 -11 352 -11 L352 -11 Z " />
<glyph glyph-name="cdotaccent" unicode="&#x10b;" horiz-adv-x="493" d="M263 552 C312 552 352 591 352 640 C352 689 312 730 263 730 C215 730 173 689 173 640 C173 591 215 552 263 552 L263 552 Z M270 -13 C367 -13 436 30 471 90 L387 166 C364 134 338 109 283 109 C216 109 177 156 177 245 C177 332 208 374 267 374 C311 374 335 354 335 311 C335 296 333 283 330 274 L454 275 C460 289 463 314 463 335 C463 442 387 496 269 496 C122 496 30 402 30 241 C30 81 121 -13 270 -13 L270 -13 Z " />
<glyph glyph-name="Ccaron" unicode="&#x10c;" horiz-adv-x="629" d="M271 741 L429 741 L518 902 L392 902 L350 830 L308 902 L181 902 L271 741 Z M352 -11 C479 -11 556 39 607 130 L507 201 C471 143 432 118 365 118 C257 118 192 202 192 349 C192 500 250 579 348 579 C416 579 456 539 456 477 C456 461 455 455 451 439 L589 439 C594 460 597 481 597 500 C597 645 485 711 352 711 C159 711 37 570 37 346 C37 120 159 -11 352 -11 L352 -11 Z " />
<glyph glyph-name="ccaron" unicode="&#x10d;" horiz-adv-x="493" d="M185 543 L341 543 L430 737 L305 737 L263 641 L221 737 L95 737 L185 543 Z M270 -13 C367 -13 436 30 471 90 L387 166 C364 134 338 109 283 109 C216 109 177 156 177 245 C177 332 208 374 267 374 C311 374 335 354 335 311 C335 296 333 283 330 274 L454 275 C460 289 463 314 463 335 C463 442 387 496 269 496 C122 496 30 402 30 241 C30 81 121 -13 270 -13 L270 -13 Z " />
<glyph glyph-name="Dcaron" unicode="&#x10e;" horiz-adv-x="694" d="M258 741 L416 741 L506 902 L380 902 L338 830 L295 902 L169 902 L258 741 Z M73 0 L317 0 C491 0 658 93 658 350 C658 605 505 700 300 700 L73 700 L73 0 Z M221 122 L221 578 L291 578 C443 578 504 489 504 342 C504 196 427 122 302 122 L221 122 Z " />
<glyph glyph-name="dcaron" unicode="&#x10f;" horiz-adv-x="612" d="M223 -13 C301 -13 347 19 374 70 L374 67 C381 20 415 -8 476 -8 C504 -8 529 -5 542 0 L542 110 C514 110 502 122 502 153 L502 726 L356 726 L356 446 C334 475 298 496 240 496 C119 496 31 392 31 237 C31 87 108 -13 223 -13 L223 -13 Z M577 470 C655 493 699 558 699 637 C699 693 667 726 619 726 C573 726 542 693 542 652 C542 617 559 586 602 582 C601 564 592 541 551 527 L577 470 Z M272 109 C214 109 179 155 179 239 C179 325 209 374 272 374 C326 374 351 335 359 303 L359 184 C348 140 317 109 272 109 L272 109 Z " />
<glyph glyph-name="Dcroat" unicode="&#x110;" horiz-adv-x="706" d="M312 700 L85 700 L85 407 L13 407 L13 302 L85 302 L85 0 L329 0 C503 0 670 93 670 350 C670 605 517 700 312 700 L312 700 Z M314 122 L233 122 L233 302 L336 302 L336 407 L233 407 L233 578 L303 578 C455 578 516 489 516 342 C516 196 439 122 314 122 L314 122 Z " />
<glyph glyph-name="dcroat" unicode="&#x111;" horiz-adv-x="574" d="M591 551 L591 656 L502 656 L502 726 L356 726 L356 656 L268 656 L268 551 L356 551 L356 446 C334 475 298 496 240 496 C119 496 31 392 31 237 C31 87 108 -13 223 -13 C301 -13 347 19 374 70 L374 67 C381 20 415 -8 476 -8 C504 -8 529 -5 542 0 L542 110 C514 110 502 122 502 153 L502 551 L591 551 Z M359 184 C348 140 317 109 272 109 C214 109 179 155 179 239 C179 325 209 374 272 374 C326 374 351 335 359 303 L359 184 Z " />
<glyph glyph-name="Emacron" unicode="&#x112;" horiz-adv-x="570" d="M154 765 L470 765 L470 870 L154 870 L154 765 Z M73 0 L530 0 L530 126 L221 126 L221 291 L486 291 L486 417 L221 417 L221 575 L528 575 L528 700 L73 700 L73 0 Z " />
<glyph glyph-name="emacron" unicode="&#x113;" horiz-adv-x="503" d="M410 693 L110 693 L110 584 L410 584 L410 693 Z M389 161 C366 129 340 106 282 106 C218 106 183 142 177 217 L469 217 C471 234 471 243 471 265 C471 412 397 496 266 496 C119 496 30 398 30 238 C30 83 121 -13 268 -13 C365 -13 441 31 474 92 L389 161 Z M261 381 C308 381 331 348 331 297 L180 297 C189 352 213 381 261 381 L261 381 Z " />
<glyph glyph-name="Ebreve" unicode="&#x114;" horiz-adv-x="570" d="M311 743 C420 743 466 819 466 901 L359 901 C359 866 345 844 311 844 C277 844 262 866 262 901 L156 901 C156 819 201 743 311 743 L311 743 Z M73 0 L530 0 L530 126 L221 126 L221 291 L486 291 L486 417 L221 417 L221 575 L528 575 L528 700 L73 700 L73 0 Z " />
<glyph glyph-name="ebreve" unicode="&#x115;" horiz-adv-x="503" d="M261 557 C382 557 416 640 416 723 L309 723 C309 682 294 663 261 663 C227 663 212 682 212 723 L105 723 C105 640 137 557 261 557 L261 557 Z M389 161 C366 129 340 106 282 106 C218 106 183 142 177 217 L469 217 C471 234 471 243 471 265 C471 412 397 496 266 496 C119 496 30 398 30 238 C30 83 121 -13 268 -13 C365 -13 441 31 474 92 L389 161 Z M261 381 C308 381 331 348 331 297 L180 297 C189 352 213 381 261 381 L261 381 Z " />
<glyph glyph-name="Edotaccent" unicode="&#x116;" horiz-adv-x="570" d="M314 739 C362 739 402 778 402 827 C402 874 362 915 314 915 C267 915 225 874 225 827 C225 778 267 739 314 739 L314 739 Z M73 0 L530 0 L530 126 L221 126 L221 291 L486 291 L486 417 L221 417 L221 575 L528 575 L528 700 L73 700 L73 0 Z " />
<glyph glyph-name="edotaccent" unicode="&#x117;" horiz-adv-x="503" d="M260 552 C309 552 349 591 349 640 C349 689 309 730 260 730 C212 730 171 689 171 640 C171 591 212 552 260 552 L260 552 Z M389 161 C366 129 340 106 282 106 C218 106 183 142 177 217 L469 217 C471 234 471 243 471 265 C471 412 397 496 266 496 C119 496 30 398 30 238 C30 83 121 -13 268 -13 C365 -13 441 31 474 92 L389 161 Z M261 381 C308 381 331 348 331 297 L180 297 C189 352 213 381 261 381 L261 381 Z " />
<glyph glyph-name="Eogonek" unicode="&#x118;" horiz-adv-x="570" d="M523 -108 C517 -113 509 -118 495 -118 C477 -118 465 -108 465 -81 C465 -50 487 -18 530 0 L530 126 L221 126 L221 291 L486 291 L486 417 L221 417 L221 575 L528 575 L528 700 L73 700 L73 0 L407 0 C373 -30 353 -68 353 -106 C353 -168 393 -203 468 -203 C506 -203 538 -193 556 -176 L523 -108 Z " />
<glyph glyph-name="eogonek" unicode="&#x119;" horiz-adv-x="504" d="M355 0 C410 17 453 51 475 92 L390 161 C367 129 341 106 283 106 C219 106 184 142 178 217 L470 217 C472 234 472 243 472 265 C472 412 398 496 267 496 C120 496 31 398 31 238 C31 98 104 7 227 -10 C201 -38 186 -71 186 -104 C186 -165 226 -200 300 -200 C338 -200 370 -190 389 -174 L356 -106 C350 -111 341 -115 328 -115 C310 -115 297 -105 297 -78 C297 -49 317 -19 355 0 L355 0 Z M262 381 C308 381 332 348 332 297 L181 297 C189 352 213 381 262 381 L262 381 Z " />
<glyph glyph-name="Ecaron" unicode="&#x11a;" horiz-adv-x="570" d="M233 741 L391 741 L480 902 L355 902 L312 830 L270 902 L144 902 L233 741 Z M73 0 L530 0 L530 126 L221 126 L221 291 L486 291 L486 417 L221 417 L221 575 L528 575 L528 700 L73 700 L73 0 Z " />
<glyph glyph-name="ecaron" unicode="&#x11b;" horiz-adv-x="503" d="M338 543 L428 737 L302 737 L260 641 L218 737 L93 737 L182 543 L338 543 Z M389 161 C366 129 340 106 282 106 C218 106 183 142 177 217 L469 217 C471 234 471 243 471 265 C471 412 397 496 266 496 C119 496 30 398 30 238 C30 83 121 -13 268 -13 C365 -13 441 31 474 92 L389 161 Z M261 381 C308 381 331 348 331 297 L180 297 C189 352 213 381 261 381 L261 381 Z " />
<glyph glyph-name="Gcircumflex" unicode="&#x11c;" horiz-adv-x="669" d="M179 741 L305 741 L347 812 L389 741 L516 741 L427 902 L269 902 L179 741 Z M359 -11 C502 -11 593 44 625 80 L625 361 L362 361 L362 243 L493 243 L493 149 C472 132 430 116 364 116 C251 116 192 193 192 350 C192 499 249 579 355 579 C433 579 470 537 470 482 C470 467 470 461 469 454 L609 454 C612 470 614 487 614 504 C614 637 509 711 360 711 C156 711 36 566 36 348 C36 116 150 -11 359 -11 L359 -11 Z " />
<glyph glyph-name="gcircumflex" unicode="&#x11d;" horiz-adv-x="522" d="M348 70 L201 70 C173 70 154 77 154 99 C154 120 169 129 192 130 C212 125 238 120 269 120 C383 120 480 186 480 307 C480 371 454 418 417 446 C476 450 528 488 528 565 L407 589 C407 583 407 578 406 573 L331 737 L175 737 L85 543 L211 543 L253 639 L295 543 L399 543 C381 497 338 488 325 488 C305 492 290 494 267 494 C149 494 54 426 54 307 C54 251 75 207 99 182 C63 167 31 138 31 83 C31 40 53 11 87 -10 C52 -26 20 -61 20 -115 C20 -196 88 -240 250 -240 C467 -240 523 -159 523 -74 C523 24 450 70 348 70 L348 70 Z M268 384 C316 384 346 353 346 307 C346 260 316 229 267 229 C218 229 190 260 190 307 C190 353 220 384 268 384 L268 384 Z M258 -141 C174 -141 150 -126 150 -92 C150 -60 171 -43 216 -43 L325 -42 C373 -42 393 -56 393 -88 C393 -124 352 -141 258 -141 L258 -141 Z " />
<glyph glyph-name="Gbreve" unicode="&#x11e;" horiz-adv-x="669" d="M347 743 C456 743 502 819 502 901 L395 901 C395 866 380 844 346 844 C313 844 298 866 298 901 L191 901 C191 819 237 743 347 743 L347 743 Z M359 -11 C502 -11 593 44 625 80 L625 361 L362 361 L362 243 L493 243 L493 149 C472 132 430 116 364 116 C251 116 192 193 192 350 C192 499 249 579 355 579 C433 579 470 537 470 482 C470 467 470 461 469 454 L609 454 C612 470 614 487 614 504 C614 637 509 711 360 711 C156 711 36 566 36 348 C36 116 150 -11 359 -11 L359 -11 Z " />
<glyph glyph-name="gbreve" unicode="&#x11f;" horiz-adv-x="522" d="M254 557 C375 557 409 640 409 723 L302 723 C302 682 287 663 254 663 C220 663 205 682 205 723 L98 723 C98 640 130 557 254 557 L254 557 Z M250 -240 C467 -240 523 -159 523 -74 C523 24 450 70 348 70 L201 70 C173 70 154 77 154 99 C154 120 169 129 192 130 C212 125 238 120 269 120 C383 120 480 186 480 307 C480 371 454 418 417 446 C476 450 528 488 528 565 L407 589 C407 503 341 488 325 488 C305 492 290 494 267 494 C149 494 54 426 54 307 C54 251 75 207 99 182 C63 167 31 138 31 83 C31 40 53 11 87 -10 C52 -26 20 -61 20 -115 C20 -196 88 -240 250 -240 L250 -240 Z M267 229 C218 229 190 260 190 307 C190 353 220 384 268 384 C316 384 346 353 346 307 C346 260 316 229 267 229 L267 229 Z M258 -141 C174 -141 150 -126 150 -92 C150 -60 171 -43 216 -43 L325 -42 C373 -42 393 -56 393 -88 C393 -124 352 -141 258 -141 L258 -141 Z " />
<glyph glyph-name="Gdotaccent" unicode="&#x120;" horiz-adv-x="669" d="M350 739 C398 739 437 778 437 827 C437 874 398 915 350 915 C302 915 261 874 261 827 C261 778 302 739 350 739 L350 739 Z M359 -11 C502 -11 593 44 625 80 L625 361 L362 361 L362 243 L493 243 L493 149 C472 132 430 116 364 116 C251 116 192 193 192 350 C192 499 249 579 355 579 C433 579 470 537 470 482 C470 467 470 461 469 454 L609 454 C612 470 614 487 614 504 C614 637 509 711 360 711 C156 711 36 566 36 348 C36 116 150 -11 359 -11 L359 -11 Z " />
<glyph glyph-name="gdotaccent" unicode="&#x121;" horiz-adv-x="522" d="M253 552 C302 552 342 591 342 640 C342 689 302 730 253 730 C205 730 164 689 164 640 C164 591 205 552 253 552 L253 552 Z M250 -240 C467 -240 523 -159 523 -74 C523 24 450 70 348 70 L201 70 C173 70 154 77 154 99 C154 120 169 129 192 130 C212 125 238 120 269 120 C383 120 480 186 480 307 C480 371 454 418 417 446 C476 450 528 488 528 565 L407 589 C407 503 341 488 325 488 C305 492 290 494 267 494 C149 494 54 426 54 307 C54 251 75 207 99 182 C63 167 31 138 31 83 C31 40 53 11 87 -10 C52 -26 20 -61 20 -115 C20 -196 88 -240 250 -240 L250 -240 Z M267 229 C218 229 190 260 190 307 C190 353 220 384 268 384 C316 384 346 353 346 307 C346 260 316 229 267 229 L267 229 Z M258 -141 C174 -141 150 -126 150 -92 C150 -60 171 -43 216 -43 L325 -42 C373 -42 393 -56 393 -88 C393 -124 352 -141 258 -141 L258 -141 Z " />
<glyph glyph-name="uni0122" unicode="&#x122;" horiz-adv-x="669" d="M359 -11 C502 -11 593 44 625 80 L625 361 L362 361 L362 243 L493 243 L493 149 C472 132 430 116 364 116 C251 116 192 193 192 350 C192 499 249 579 355 579 C433 579 470 537 470 482 C470 467 470 461 469 454 L609 454 C612 470 614 487 614 504 C614 637 509 711 360 711 C156 711 36 566 36 348 C36 116 150 -11 359 -11 L359 -11 Z M324 -274 C397 -254 443 -197 443 -119 C443 -64 411 -32 361 -32 C317 -32 285 -63 285 -106 C285 -146 311 -172 346 -175 C345 -194 328 -210 298 -220 L324 -274 Z " />
<glyph glyph-name="uni0123" unicode="&#x123;" horiz-adv-x="522" d="M253 544 C296 544 325 575 325 613 C325 652 303 679 264 681 C265 696 284 719 316 728 L283 783 C219 764 172 694 172 629 C172 574 203 544 253 544 L253 544 Z M250 -240 C467 -240 523 -159 523 -74 C523 24 450 70 348 70 L201 70 C173 70 154 77 154 99 C154 120 169 129 192 130 C212 125 238 120 269 120 C383 120 480 186 480 307 C480 371 454 418 417 446 C476 450 528 488 528 565 L407 589 C407 503 341 488 325 488 C305 492 290 494 267 494 C149 494 54 426 54 307 C54 251 75 207 99 182 C63 167 31 138 31 83 C31 40 53 11 87 -10 C52 -26 20 -61 20 -115 C20 -196 88 -240 250 -240 L250 -240 Z M267 229 C218 229 190 260 190 307 C190 353 220 384 268 384 C316 384 346 353 346 307 C346 260 316 229 267 229 L267 229 Z M258 -141 C174 -141 150 -126 150 -92 C150 -60 171 -43 216 -43 L325 -42 C373 -42 393 -56 393 -88 C393 -124 352 -141 258 -141 L258 -141 Z " />
<glyph glyph-name="Hcircumflex" unicode="&#x124;" horiz-adv-x="701" d="M183 741 L308 741 L351 812 L393 741 L519 741 L430 902 L272 902 L183 741 Z M73 0 L221 0 L221 286 L480 286 L480 0 L628 0 L628 700 L480 700 L480 422 L221 422 L221 700 L73 700 L73 0 Z " />
<glyph glyph-name="hcircumflex" unicode="&#x125;" horiz-adv-x="559" d="M-38 741 L87 741 L130 812 L172 741 L298 741 L209 902 L51 902 L-38 741 Z M469 -7 C494 -7 521 -3 533 1 L533 111 C505 111 493 124 493 153 L493 304 C493 410 445 496 322 496 C264 496 223 471 202 444 L202 726 L56 726 L56 0 L202 0 L202 288 C202 322 223 365 279 365 C320 365 347 335 347 289 L347 118 C347 32 387 -7 469 -7 L469 -7 Z " />
<glyph glyph-name="Hbar" unicode="&#x126;" horiz-adv-x="734" d="M714 592 L644 592 L644 700 L496 700 L496 592 L237 592 L237 700 L90 700 L90 592 L20 592 L20 496 L90 496 L90 0 L237 0 L237 286 L496 286 L496 0 L644 0 L644 496 L714 496 L714 592 Z M496 422 L237 422 L237 496 L496 496 L496 422 Z " />
<glyph glyph-name="hbar" unicode="&#x127;" horiz-adv-x="559" d="M493 153 L493 304 C493 410 445 496 322 496 C264 496 223 471 202 444 L202 551 L317 551 L317 656 L202 656 L202 726 L56 726 L56 656 L-6 656 L-6 551 L56 551 L56 0 L202 0 L202 288 C202 322 223 365 279 365 C320 365 347 335 347 289 L347 118 C347 32 387 -7 469 -7 C494 -7 521 -3 533 1 L533 111 C505 111 493 124 493 153 L493 153 Z " />
<glyph glyph-name="Itilde" unicode="&#x128;" horiz-adv-x="295" d="M-20 742 L74 742 C70 747 68 754 68 762 C68 776 78 784 93 784 C122 784 163 744 230 744 C292 744 329 783 329 843 C329 861 324 885 315 900 L221 900 C225 895 227 888 227 881 C227 867 217 859 202 859 C168 859 124 899 64 899 C4 899 -35 859 -35 803 C-35 780 -28 757 -20 742 L-20 742 Z M73 0 L221 0 L221 700 L73 700 L73 0 Z " />
<glyph glyph-name="itilde" unicode="&#x129;" horiz-adv-x="260" d="M-29 549 L61 549 C57 554 54 563 54 571 C54 585 65 594 82 594 C107 594 145 551 206 551 C268 551 305 591 305 651 C305 670 300 694 290 710 L202 710 C206 705 208 694 208 687 C208 673 197 666 183 666 C152 666 110 708 56 708 C-7 708 -45 668 -45 611 C-45 587 -38 564 -29 549 L-29 549 Z M57 0 L203 0 L203 482 L57 482 L57 0 Z " />
<glyph glyph-name="Imacron" unicode="&#x12a;" horiz-adv-x="295" d="M-11 765 L306 765 L306 870 L-11 870 L-11 765 Z M73 0 L221 0 L221 700 L73 700 L73 0 Z " />
<glyph glyph-name="imacron" unicode="&#x12b;" horiz-adv-x="260" d="M-20 584 L280 584 L280 693 L-20 693 L-20 584 Z M57 0 L203 0 L203 482 L57 482 L57 0 Z " />
<glyph glyph-name="Ibreve" unicode="&#x12c;" horiz-adv-x="295" d="M147 743 C256 743 302 819 302 901 L195 901 C195 866 180 844 147 844 C113 844 98 866 98 901 L-9 901 C-9 819 37 743 147 743 L147 743 Z M73 0 L221 0 L221 700 L73 700 L73 0 Z " />
<glyph glyph-name="ibreve" unicode="&#x12d;" horiz-adv-x="260" d="M131 557 C252 557 285 640 285 723 L179 723 C179 682 164 663 130 663 C97 663 81 682 81 723 L-26 723 C-26 640 7 557 131 557 L131 557 Z M57 0 L203 0 L203 482 L57 482 L57 0 Z " />
<glyph glyph-name="Iogonek" unicode="&#x12e;" horiz-adv-x="295" d="M214 -108 C208 -113 200 -118 186 -118 C168 -118 155 -108 155 -81 C155 -50 178 -18 220 0 L221 0 L221 700 L73 700 L73 0 L98 0 C64 -30 44 -68 44 -106 C44 -168 84 -203 159 -203 C197 -203 228 -193 247 -176 L214 -108 Z " />
<glyph glyph-name="iogonek" unicode="&#x12f;" horiz-adv-x="260" d="M130 552 C179 552 219 591 219 640 C219 689 179 730 130 730 C82 730 40 689 40 640 C40 591 82 552 130 552 L130 552 Z M190 -108 C184 -113 176 -118 162 -118 C144 -118 132 -108 132 -81 C132 -50 154 -18 197 0 L203 0 L203 482 L57 482 L57 0 L74 0 C41 -30 21 -68 21 -106 C21 -168 60 -203 135 -203 C173 -203 205 -193 224 -176 L190 -108 Z " />
<glyph glyph-name="Idotaccent" unicode="&#x130;" horiz-adv-x="295" d="M150 739 C198 739 238 778 238 827 C238 874 198 915 150 915 C102 915 61 874 61 827 C61 778 102 739 150 739 L150 739 Z M73 0 L221 0 L221 700 L73 700 L73 0 Z " />
<glyph glyph-name="dotlessi" unicode="&#x131;" horiz-adv-x="260" d="M57 0 L203 0 L203 482 L57 482 L57 0 Z " />
<glyph glyph-name="IJ" unicode="&#x132;" horiz-adv-x="778" d="M73 0 L221 0 L221 700 L73 700 L73 0 Z M476 -6 C627 -6 711 85 711 240 L711 700 L563 700 L563 238 C563 168 531 128 474 128 C430 128 404 149 379 178 L291 75 C325 29 390 -6 476 -6 L476 -6 Z " />
<glyph glyph-name="ij" unicode="&#x133;" horiz-adv-x="529" d="M130 552 C179 552 219 591 219 640 C219 689 179 730 130 730 C82 730 40 689 40 640 C40 591 82 552 130 552 L130 552 Z M393 552 C442 552 481 591 481 640 C481 689 442 730 393 730 C344 730 303 689 303 640 C303 591 344 552 393 552 L393 552 Z M57 0 L203 0 L203 482 L57 482 L57 0 Z M268 -247 C408 -247 466 -158 466 -30 L466 482 L320 482 L320 -23 C320 -82 299 -118 252 -118 C226 -118 211 -108 211 -108 L168 -215 C168 -215 198 -247 268 -247 L268 -247 Z " />
<glyph glyph-name="Jcircumflex" unicode="&#x134;" horiz-adv-x="488" d="M172 741 L297 741 L340 812 L382 741 L508 741 L419 902 L261 902 L172 741 Z M187 -6 C338 -6 421 85 421 240 L421 700 L274 700 L274 238 C274 168 241 128 185 128 C140 128 114 149 89 178 L1 75 C35 29 100 -6 187 -6 L187 -6 Z " />
<glyph glyph-name="jcircumflex" unicode="&#x135;" horiz-adv-x="264" d="M-34 543 L91 543 L133 639 L175 543 L301 543 L211 737 L55 737 L-34 543 Z M9 -247 C149 -247 207 -158 207 -30 L207 482 L61 482 L61 -23 C61 -82 40 -118 -7 -118 C-32 -118 -48 -108 -48 -108 L-91 -215 C-91 -215 -61 -247 9 -247 L9 -247 Z " />
<glyph glyph-name="uni0136" unicode="&#x136;" horiz-adv-x="668" d="M623 122 C533 122 539 269 447 340 C548 409 604 538 604 700 L458 700 C458 483 372 410 261 410 L221 410 L221 700 L73 700 L73 0 L221 0 L221 284 L254 284 C422 284 359 -7 581 -7 C615 -7 645 -3 655 0 L655 122 L623 122 Z M348 -32 C303 -32 271 -63 271 -106 C271 -146 297 -172 332 -175 C332 -194 315 -210 284 -220 L310 -274 C383 -254 429 -197 429 -119 C429 -64 397 -32 348 -32 L348 -32 Z " />
<glyph glyph-name="uni0137" unicode="&#x137;" horiz-adv-x="541" d="M511 113 C434 113 449 201 379 243 C473 304 489 402 490 482 L353 482 C352 374 311 310 226 310 L202 310 L202 726 L56 726 L56 0 L202 0 L202 188 L210 188 C347 188 289 -9 463 -9 C485 -9 510 -3 522 1 L522 113 L511 113 Z M295 -32 C251 -32 219 -63 219 -106 C219 -146 245 -172 279 -175 C279 -194 262 -210 231 -220 L257 -274 C331 -254 377 -197 377 -119 C377 -64 345 -32 295 -32 L295 -32 Z " />
<glyph glyph-name="kgreenlandic" unicode="&#x138;" horiz-adv-x="541" d="M511 115 C434 115 449 198 379 240 C473 302 489 402 490 482 L353 482 C352 371 311 306 226 306 L202 306 L202 482 L56 482 L56 0 L202 0 L202 184 L210 184 C347 184 289 -9 463 -9 C485 -9 510 -3 522 1 L522 115 L511 115 Z " />
<glyph glyph-name="Lacute" unicode="&#x139;" horiz-adv-x="537" d="M82 741 L210 741 L340 902 L163 902 L82 741 Z M73 0 L524 0 L524 134 L221 134 L221 700 L73 700 L73 0 Z " />
<glyph glyph-name="lacute" unicode="&#x13a;" horiz-adv-x="276" d="M43 752 L171 752 L301 912 L124 912 L43 752 Z M182 -7 C208 -7 235 -3 249 2 L249 111 C209 111 202 125 202 162 L202 726 L56 726 L56 122 C56 29 96 -7 182 -7 L182 -7 Z " />
<glyph glyph-name="uni013B" unicode="&#x13b;" horiz-adv-x="537" d="M73 0 L524 0 L524 134 L221 134 L221 700 L73 700 L73 0 Z M274 -274 C347 -254 393 -197 393 -119 C393 -64 361 -32 311 -32 C267 -32 235 -63 235 -106 C235 -146 261 -172 296 -175 C295 -194 278 -210 248 -220 L274 -274 Z " />
<glyph glyph-name="uni013C" unicode="&#x13c;" horiz-adv-x="276" d="M182 -7 C208 -7 235 -3 249 2 L249 111 C209 111 202 125 202 162 L202 726 L56 726 L56 122 C56 29 96 -7 182 -7 L182 -7 Z M112 -274 C185 -254 231 -197 231 -119 C231 -64 199 -32 150 -32 C105 -32 74 -63 74 -106 C74 -146 99 -172 134 -175 C134 -194 117 -210 86 -220 L112 -274 Z " />
<glyph glyph-name="Lcaron" unicode="&#x13d;" horiz-adv-x="545" d="M372 451 C450 474 495 539 495 619 C495 675 462 707 414 707 C368 707 337 674 337 633 C337 598 355 567 398 563 C397 545 388 522 347 508 L372 451 Z M73 0 L524 0 L524 134 L221 134 L221 700 L73 700 L73 0 Z " />
<glyph glyph-name="lcaron" unicode="&#x13e;" horiz-adv-x="314" d="M182 -7 C208 -7 235 -3 249 2 L249 111 C209 111 202 125 202 162 L202 726 L56 726 L56 122 C56 29 96 -7 182 -7 L182 -7 Z M272 470 C350 493 395 558 395 637 C395 693 362 726 314 726 C268 726 237 693 237 652 C237 617 255 586 298 582 C297 564 287 541 247 527 L272 470 Z " />
<glyph glyph-name="Ldot" unicode="&#x13f;" horiz-adv-x="545" d="M73 0 L524 0 L524 134 L221 134 L221 700 L73 700 L73 0 Z M414 325 C461 325 499 362 499 409 C499 456 461 494 414 494 C367 494 330 456 330 409 C330 362 367 325 414 325 L414 325 Z " />
<glyph glyph-name="ldot" unicode="&#x140;" horiz-adv-x="363" d="M182 -7 C208 -7 235 -3 249 2 L249 111 C209 111 202 125 202 162 L202 726 L56 726 L56 122 C56 29 96 -7 182 -7 L182 -7 Z M310 301 C357 301 395 339 395 386 C395 432 357 471 310 471 C263 471 226 432 226 386 C226 339 263 301 310 301 L310 301 Z " />
<glyph glyph-name="Lslash" unicode="&#x141;" horiz-adv-x="574" d="M259 134 L259 313 L407 398 L350 494 L259 442 L259 700 L111 700 L111 358 L2 296 L57 198 L111 229 L111 0 L562 0 L562 134 L259 134 Z " />
<glyph glyph-name="lslash" unicode="&#x142;" horiz-adv-x="372" d="M258 162 L258 353 L370 418 L314 511 L258 478 L258 726 L112 726 L112 391 L0 325 L52 233 L112 268 L112 122 C112 29 152 -7 238 -7 C264 -7 291 -3 305 2 L305 111 C265 111 258 125 258 162 L258 162 Z " />
<glyph glyph-name="Nacute" unicode="&#x143;" horiz-adv-x="691" d="M274 741 L403 741 L533 902 L356 902 L274 741 Z M73 0 L213 0 L213 460 L227 427 L488 0 L618 0 L618 700 L479 700 L479 231 L460 273 L204 700 L73 700 L73 0 Z " />
<glyph glyph-name="nacute" unicode="&#x144;" horiz-adv-x="574" d="M208 541 L330 541 L460 741 L289 741 L208 541 Z M484 -7 C509 -7 536 -3 548 1 L548 111 C521 111 509 124 509 153 L509 304 C509 426 447 496 339 496 C263 496 219 457 199 419 L199 420 C192 459 159 489 99 489 C71 489 45 486 32 481 L32 371 C60 371 72 359 72 330 L72 0 L218 0 L218 284 C218 333 248 365 293 365 C335 365 362 337 362 288 L362 118 C362 32 402 -7 484 -7 L484 -7 Z " />
<glyph glyph-name="uni0145" unicode="&#x145;" horiz-adv-x="691" d="M73 0 L213 0 L213 460 L227 427 L488 0 L618 0 L618 700 L479 700 L479 231 L460 273 L204 700 L73 700 L73 0 Z M315 -274 C388 -254 434 -197 434 -119 C434 -64 402 -32 353 -32 C308 -32 277 -63 277 -106 C277 -146 302 -172 337 -175 C337 -194 320 -210 289 -220 L315 -274 Z " />
<glyph glyph-name="uni0146" unicode="&#x146;" horiz-adv-x="574" d="M484 -7 C509 -7 536 -3 548 1 L548 111 C521 111 509 124 509 153 L509 304 C509 426 447 496 339 496 C263 496 219 457 199 419 L199 420 C192 459 159 489 99 489 C71 489 45 486 32 481 L32 371 C60 371 72 359 72 330 L72 0 L218 0 L218 284 C218 333 248 365 293 365 C335 365 362 337 362 288 L362 118 C362 32 402 -7 484 -7 L484 -7 Z M262 -274 C336 -254 382 -197 382 -119 C382 -64 350 -32 300 -32 C256 -32 224 -63 224 -106 C224 -146 250 -172 284 -175 C284 -194 267 -210 236 -220 L262 -274 Z " />
<glyph glyph-name="Ncaron" unicode="&#x147;" horiz-adv-x="691" d="M272 741 L430 741 L520 902 L394 902 L352 830 L309 902 L183 902 L272 741 Z M73 0 L213 0 L213 460 L227 427 L488 0 L618 0 L618 700 L479 700 L479 231 L460 273 L204 700 L73 700 L73 0 Z " />
<glyph glyph-name="ncaron" unicode="&#x148;" horiz-adv-x="574" d="M208 543 L363 543 L453 737 L328 737 L286 641 L244 737 L118 737 L208 543 Z M484 -7 C509 -7 536 -3 548 1 L548 111 C521 111 509 124 509 153 L509 304 C509 426 447 496 339 496 C263 496 219 457 199 419 L199 420 C192 459 159 489 99 489 C71 489 45 486 32 481 L32 371 C60 371 72 359 72 330 L72 0 L218 0 L218 284 C218 333 248 365 293 365 C335 365 362 337 362 288 L362 118 C362 32 402 -7 484 -7 L484 -7 Z " />
<glyph glyph-name="napostrophe" unicode="&#x149;" horiz-adv-x="689" d="M50 483 C50 483 151 515 151 638 C151 692 114 717 76 717 C38 717 8 686 8 649 C8 610 38 580 76 580 C75 554 19 533 19 533 L50 483 Z M599 -5 C641 -5 663 2 663 2 L663 113 C633 113 624 127 624 154 L624 296 C624 402 575 488 452 488 C364 488 327 448 313 411 L313 419 C313 434 293 487 211 487 C169 487 147 480 147 480 L147 369 C177 369 186 354 186 328 L186 0 L333 0 L333 276 C334 310 353 357 408 357 C451 357 477 328 477 280 L477 129 C477 38 519 -5 599 -5 L599 -5 Z " />
<glyph glyph-name="Eng" unicode="&#x14a;" horiz-adv-x="691" d="M479 700 L479 231 L460 273 L204 700 L73 700 L73 0 L213 0 L213 460 L227 427 L472 26 L472 -9 C472 -73 440 -95 403 -95 C376 -95 358 -88 344 -71 L259 -184 C289 -221 343 -238 401 -238 C534 -238 618 -158 618 -12 L618 700 L479 700 Z " />
<glyph glyph-name="eng" unicode="&#x14b;" horiz-adv-x="556" d="M340 496 C265 496 219 457 199 419 L199 420 C192 459 159 489 99 489 C71 489 45 486 32 481 L32 371 C60 371 72 359 72 330 L72 0 L218 0 L218 283 C218 333 248 365 293 365 C335 365 362 336 362 288 L362 -9 C362 -73 331 -95 293 -95 C267 -95 249 -88 235 -74 L150 -188 C179 -221 234 -238 292 -238 C425 -238 509 -158 509 -12 L509 304 C509 426 448 496 340 496 L340 496 Z " />
<glyph glyph-name="Omacron" unicode="&#x14c;" horiz-adv-x="717" d="M201 765 L517 765 L517 870 L201 870 L201 765 Z M357 -11 C535 -11 681 107 681 349 C681 601 537 711 360 711 C182 711 36 591 36 348 C36 97 180 -11 357 -11 L357 -11 Z M357 118 C267 118 191 177 191 348 C191 520 270 579 360 579 C449 579 526 522 526 349 C526 179 448 118 357 118 L357 118 Z " />
<glyph glyph-name="omacron" unicode="&#x14d;" horiz-adv-x="543" d="M122 584 L421 584 L421 693 L122 693 L122 584 Z M269 -13 C425 -13 513 94 513 242 C513 392 430 496 275 496 C119 496 30 391 30 241 C30 91 112 -13 269 -13 L269 -13 Z M272 109 C209 109 179 158 179 241 C179 324 211 374 272 374 C332 374 365 324 365 241 C365 158 334 109 272 109 L272 109 Z " />
<glyph glyph-name="Obreve" unicode="&#x14e;" horiz-adv-x="717" d="M358 743 C467 743 513 819 513 901 L406 901 C406 866 392 844 358 844 C324 844 309 866 309 901 L203 901 C203 819 248 743 358 743 L358 743 Z M357 -11 C535 -11 681 107 681 349 C681 601 537 711 360 711 C182 711 36 591 36 348 C36 97 180 -11 357 -11 L357 -11 Z M357 118 C267 118 191 177 191 348 C191 520 270 579 360 579 C449 579 526 522 526 349 C526 179 448 118 357 118 L357 118 Z " />
<glyph glyph-name="obreve" unicode="&#x14f;" horiz-adv-x="543" d="M272 557 C393 557 427 640 427 723 L321 723 C321 682 306 663 272 663 C239 663 223 682 223 723 L116 723 C116 640 149 557 272 557 L272 557 Z M269 -13 C425 -13 513 94 513 242 C513 392 430 496 275 496 C119 496 30 391 30 241 C30 91 112 -13 269 -13 L269 -13 Z M272 109 C209 109 179 158 179 241 C179 324 211 374 272 374 C332 374 365 324 365 241 C365 158 334 109 272 109 L272 109 Z " />
<glyph glyph-name="Ohungarumlaut" unicode="&#x150;" horiz-adv-x="717" d="M186 741 L298 741 L417 902 L254 902 L186 741 Z M390 741 L502 741 L621 902 L458 902 L390 741 Z M357 -11 C535 -11 681 107 681 349 C681 601 537 711 360 711 C182 711 36 591 36 348 C36 97 180 -11 357 -11 L357 -11 Z M357 118 C267 118 191 177 191 348 C191 520 270 579 360 579 C449 579 526 522 526 349 C526 179 448 118 357 118 L357 118 Z " />
<glyph glyph-name="ohungarumlaut" unicode="&#x151;" horiz-adv-x="543" d="M98 541 L209 541 L321 741 L162 741 L98 541 Z M303 541 L413 541 L525 741 L366 741 L303 541 Z M269 -13 C425 -13 513 94 513 242 C513 392 430 496 275 496 C119 496 30 391 30 241 C30 91 112 -13 269 -13 L269 -13 Z M272 109 C209 109 179 158 179 241 C179 324 211 374 272 374 C332 374 365 324 365 241 C365 158 334 109 272 109 L272 109 Z " />
<glyph glyph-name="OE" unicode="&#x152;" horiz-adv-x="1007" d="M346 -6 C418 -6 480 15 523 64 L523 0 L966 0 L966 126 L671 126 L671 292 L921 292 L921 416 L671 416 L671 573 L966 573 L966 700 L523 700 L523 640 C481 687 419 706 346 706 C170 706 36 579 36 349 C36 115 170 -6 346 -6 L346 -6 Z M355 128 C263 128 198 195 198 349 C198 504 264 569 355 569 C446 569 510 503 510 349 C510 195 446 128 355 128 L355 128 Z " />
<glyph glyph-name="oe" unicode="&#x153;" horiz-adv-x="817" d="M259 -6 C326 -6 379 16 417 55 C457 14 514 -6 579 -6 C733 -6 789 97 789 97 L715 173 C715 173 677 121 600 121 C552 121 499 145 490 216 L490 219 L782 219 L782 262 C782 396 723 488 579 488 C507 488 452 468 414 430 C377 467 324 488 259 488 C113 488 31 387 31 242 C31 95 112 -6 259 -6 L259 -6 Z M493 297 C503 346 531 367 570 367 C619 367 643 340 643 297 L493 297 Z M259 123 C197 123 176 168 176 241 C176 314 198 359 259 359 C320 359 343 314 343 240 C343 167 321 123 259 123 L259 123 Z " />
<glyph glyph-name="Racute" unicode="&#x154;" horiz-adv-x="661" d="M248 741 L376 741 L506 902 L329 902 L248 741 Z M562 -7 C594 -7 626 -4 639 0 L639 121 L607 121 C525 121 524 262 453 299 C541 323 591 396 591 479 C591 630 503 700 323 700 L73 700 L73 0 L221 0 L221 257 L270 257 C406 257 360 -7 562 -7 L562 -7 Z M221 369 L221 581 L317 581 C400 581 446 541 446 473 C446 405 394 369 307 369 L221 369 Z " />
<glyph glyph-name="racute" unicode="&#x155;" horiz-adv-x="396" d="M137 541 L259 541 L389 741 L218 741 L137 541 Z M72 0 L218 0 L218 249 C218 314 247 354 300 354 C321 354 337 350 349 342 L400 476 C387 487 358 494 330 494 C265 494 218 463 199 414 L198 417 C197 454 165 489 97 489 C71 489 45 486 32 481 L32 371 C60 371 72 359 72 330 L72 0 Z " />
<glyph glyph-name="uni0156" unicode="&#x156;" horiz-adv-x="661" d="M562 -7 C594 -7 626 -4 639 0 L639 121 L607 121 C525 121 524 262 453 299 C541 323 591 396 591 479 C591 630 503 700 323 700 L73 700 L73 0 L221 0 L221 257 L270 257 C406 257 360 -7 562 -7 L562 -7 Z M221 369 L221 581 L317 581 C400 581 446 541 446 473 C446 405 394 369 307 369 L221 369 Z M308 -274 C381 -254 427 -197 427 -119 C427 -64 395 -32 345 -32 C301 -32 269 -63 269 -106 C269 -146 295 -172 330 -175 C329 -194 312 -210 282 -220 L308 -274 Z " />
<glyph glyph-name="uni0157" unicode="&#x157;" horiz-adv-x="396" d="M72 0 L218 0 L218 249 C218 314 247 354 300 354 C321 354 337 350 349 342 L400 476 C387 487 358 494 330 494 C265 494 218 463 199 414 L198 417 C197 454 165 489 97 489 C71 489 45 486 32 481 L32 371 C60 371 72 359 72 330 L72 0 Z M115 -274 C188 -254 234 -197 234 -119 C234 -64 202 -32 152 -32 C108 -32 76 -63 76 -106 C76 -146 102 -172 137 -175 C136 -194 119 -210 89 -220 L115 -274 Z " />
<glyph glyph-name="Rcaron" unicode="&#x158;" horiz-adv-x="661" d="M246 741 L404 741 L493 902 L367 902 L325 830 L283 902 L157 902 L246 741 Z M562 -7 C594 -7 626 -4 639 0 L639 121 L607 121 C525 121 524 262 453 299 C541 323 591 396 591 479 C591 630 503 700 323 700 L73 700 L73 0 L221 0 L221 257 L270 257 C406 257 360 -7 562 -7 L562 -7 Z M221 369 L221 581 L317 581 C400 581 446 541 446 473 C446 405 394 369 307 369 L221 369 Z " />
<glyph glyph-name="rcaron" unicode="&#x159;" horiz-adv-x="396" d="M137 543 L293 543 L382 737 L257 737 L215 641 L173 737 L47 737 L137 543 Z M72 0 L218 0 L218 249 C218 314 247 354 300 354 C321 354 337 350 349 342 L400 476 C387 487 358 494 330 494 C265 494 218 463 199 414 L198 417 C197 454 165 489 97 489 C71 489 45 486 32 481 L32 371 C60 371 72 359 72 330 L72 0 Z " />
<glyph glyph-name="Sacute" unicode="&#x15a;" horiz-adv-x="608" d="M220 741 L348 741 L478 902 L301 902 L220 741 Z M299 -11 C468 -11 575 69 575 203 C575 340 477 384 350 412 C239 437 189 450 189 507 C189 560 229 586 306 586 C368 586 421 562 421 506 C421 496 421 490 419 480 L553 479 C557 494 558 507 558 522 C558 664 437 711 303 711 C145 711 42 624 42 501 C42 362 148 318 267 293 C385 268 428 249 428 192 C428 142 389 114 301 114 C227 114 164 141 113 201 L20 102 C78 26 169 -11 299 -11 L299 -11 Z " />
<glyph glyph-name="sacute" unicode="&#x15b;" horiz-adv-x="495" d="M175 541 L298 541 L427 741 L256 741 L175 541 Z M243 -13 C381 -13 464 37 464 140 C463 241 377 265 300 281 C221 298 181 305 181 341 C181 369 204 385 251 385 C294 385 317 368 317 337 C317 326 315 313 313 306 L445 306 C450 317 454 337 454 352 C454 445 378 496 253 496 C116 496 40 429 40 339 C40 228 129 201 218 181 C295 164 323 160 323 133 C323 112 302 100 250 100 C200 100 148 109 90 164 L17 64 C82 2 170 -13 243 -13 L243 -13 Z " />
<glyph glyph-name="Scircumflex" unicode="&#x15c;" horiz-adv-x="608" d="M128 741 L254 741 L296 812 L339 741 L465 741 L376 902 L218 902 L128 741 Z M299 -11 C468 -11 575 69 575 203 C575 340 477 384 350 412 C239 437 189 450 189 507 C189 560 229 586 306 586 C368 586 421 562 421 506 C421 496 421 490 419 480 L553 479 C557 494 558 507 558 522 C558 664 437 711 303 711 C145 711 42 624 42 501 C42 362 148 318 267 293 C385 268 428 249 428 192 C428 142 389 114 301 114 C227 114 164 141 113 201 L20 102 C78 26 169 -11 299 -11 L299 -11 Z " />
<glyph glyph-name="scircumflex" unicode="&#x15d;" horiz-adv-x="495" d="M85 543 L210 543 L252 639 L295 543 L420 543 L331 737 L175 737 L85 543 Z M243 -13 C381 -13 464 37 464 140 C463 241 377 265 300 281 C221 298 181 305 181 341 C181 369 204 385 251 385 C294 385 317 368 317 337 C317 326 315 313 313 306 L445 306 C450 317 454 337 454 352 C454 445 378 496 253 496 C116 496 40 429 40 339 C40 228 129 201 218 181 C295 164 323 160 323 133 C323 112 302 100 250 100 C200 100 148 109 90 164 L17 64 C82 2 170 -13 243 -13 L243 -13 Z " />
<glyph glyph-name="Scedilla" unicode="&#x15e;" horiz-adv-x="608" d="M575 203 C575 340 477 384 350 412 C239 437 189 450 189 507 C189 560 229 586 306 586 C368 586 421 562 421 506 C421 496 421 490 419 480 L553 479 C557 494 558 507 558 522 C558 664 437 711 303 711 C145 711 42 624 42 501 C42 362 148 318 267 293 C385 268 428 249 428 192 C428 142 389 114 301 114 C227 114 164 141 113 201 L20 102 C74 31 157 -6 273 -10 L247 -82 C291 -85 318 -97 318 -119 C318 -137 306 -145 283 -145 C262 -145 243 -136 229 -123 L187 -187 C208 -209 251 -221 290 -221 C375 -221 424 -183 424 -121 C424 -68 389 -44 342 -38 L352 -8 C490 7 575 84 575 203 L575 203 Z " />
<glyph glyph-name="scedilla" unicode="&#x15f;" horiz-adv-x="495" d="M464 140 C463 241 377 265 300 281 C221 298 181 305 181 341 C181 369 204 385 251 385 C294 385 317 368 317 337 C317 326 315 313 313 306 L445 306 C450 317 454 337 454 352 C454 445 378 496 253 496 C116 496 40 429 40 339 C40 228 129 201 218 181 C295 164 323 160 323 133 C323 112 302 100 250 100 C200 100 148 109 90 164 L17 64 C73 10 147 -8 212 -12 L187 -82 C231 -85 258 -97 258 -119 C258 -137 246 -145 223 -145 C202 -145 183 -136 169 -123 L127 -187 C148 -209 191 -221 230 -221 C315 -221 364 -183 364 -121 C364 -68 329 -44 282 -38 L291 -11 C400 0 464 50 464 140 L464 140 Z " />
<glyph glyph-name="Scaron" unicode="&#x160;" horiz-adv-x="608" d="M218 741 L376 741 L465 902 L340 902 L297 830 L255 902 L129 902 L218 741 Z M299 -11 C468 -11 575 69 575 203 C575 340 477 384 350 412 C239 437 189 450 189 507 C189 560 229 586 306 586 C368 586 421 562 421 506 C421 496 421 490 419 480 L553 479 C557 494 558 507 558 522 C558 664 437 711 303 711 C145 711 42 624 42 501 C42 362 148 318 267 293 C385 268 428 249 428 192 C428 142 389 114 301 114 C227 114 164 141 113 201 L20 102 C78 26 169 -11 299 -11 L299 -11 Z " />
<glyph glyph-name="scaron" unicode="&#x161;" horiz-adv-x="495" d="M175 543 L331 543 L420 737 L295 737 L253 641 L211 737 L85 737 L175 543 Z M243 -13 C381 -13 464 37 464 140 C463 241 377 265 300 281 C221 298 181 305 181 341 C181 369 204 385 251 385 C294 385 317 368 317 337 C317 326 315 313 313 306 L445 306 C450 317 454 337 454 352 C454 445 378 496 253 496 C116 496 40 429 40 339 C40 228 129 201 218 181 C295 164 323 160 323 133 C323 112 302 100 250 100 C200 100 148 109 90 164 L17 64 C82 2 170 -13 243 -13 L243 -13 Z " />
<glyph glyph-name="uni0162" unicode="&#x162;" horiz-adv-x="575" d="M366 0 L366 566 L564 566 L564 700 L13 700 L13 566 L218 566 L218 0 L257 0 L227 -82 C271 -85 298 -97 298 -119 C298 -137 286 -145 263 -145 C242 -145 223 -136 209 -123 L167 -187 C188 -209 231 -221 270 -221 C355 -221 404 -183 404 -121 C404 -68 369 -44 322 -38 L335 0 L366 0 Z " />
<glyph glyph-name="uni0163" unicode="&#x163;" horiz-adv-x="432" d="M295 -38 L306 -5 C353 -2 403 17 431 40 L386 148 C369 136 341 125 315 125 C266 125 242 156 242 221 L242 365 L402 365 L402 482 L242 482 L242 623 L100 623 L100 482 L13 482 L13 365 L96 365 L96 212 C96 89 139 20 229 0 L200 -82 C244 -85 271 -97 271 -119 C271 -137 258 -145 236 -145 C215 -145 196 -136 182 -123 L139 -187 C161 -209 204 -221 243 -221 C327 -221 377 -183 377 -121 C377 -68 342 -44 295 -38 L295 -38 Z " />
<glyph glyph-name="Tcaron" unicode="&#x164;" horiz-adv-x="575" d="M213 741 L371 741 L460 902 L334 902 L292 830 L250 902 L123 902 L213 741 Z M218 0 L366 0 L366 566 L564 566 L564 700 L13 700 L13 566 L218 566 L218 0 Z " />
<glyph glyph-name="tcaron" unicode="&#x165;" horiz-adv-x="432" d="M322 504 C400 528 445 592 445 672 C445 728 412 761 364 761 C318 761 288 727 288 687 C288 652 305 621 348 617 C347 599 338 576 297 562 L322 504 Z M291 -6 C342 -6 400 14 431 40 L386 148 C369 136 341 125 315 125 C266 125 242 156 242 221 L242 365 L402 365 L402 482 L242 482 L242 623 L100 623 L100 482 L13 482 L13 365 L96 365 L96 212 C96 64 158 -6 291 -6 L291 -6 Z " />
<glyph glyph-name="Tbar" unicode="&#x166;" horiz-adv-x="582" d="M567 566 L567 700 L16 700 L16 566 L221 566 L221 374 L133 374 L133 270 L221 270 L221 0 L369 0 L369 270 L456 270 L456 374 L369 374 L369 566 L567 566 Z " />
<glyph glyph-name="tbar" unicode="&#x167;" horiz-adv-x="436" d="M388 148 C371 136 343 125 317 125 C272 125 248 152 244 207 L364 207 L364 312 L244 312 L244 365 L404 365 L404 482 L244 482 L244 623 L102 623 L102 482 L15 482 L15 365 L98 365 L98 312 L41 312 L41 207 L98 207 C99 62 162 -6 293 -6 C344 -6 402 14 433 40 L388 148 Z " />
<glyph glyph-name="Utilde" unicode="&#x168;" horiz-adv-x="677" d="M171 742 L265 742 C261 747 259 754 259 762 C259 776 269 784 283 784 C313 784 354 744 420 744 C483 744 520 783 520 843 C520 861 515 885 506 900 L412 900 C415 895 418 888 418 881 C418 867 408 859 393 859 C359 859 315 899 255 899 C195 899 156 859 156 803 C156 780 162 757 171 742 L171 742 Z M340 -6 C488 -6 610 67 610 290 L610 700 L464 700 L464 278 C464 189 432 126 341 126 C249 126 214 189 214 278 L214 700 L67 700 L66 290 C65 67 191 -6 340 -6 L340 -6 Z " />
<glyph glyph-name="utilde" unicode="&#x169;" horiz-adv-x="561" d="M113 549 L203 549 C200 554 197 563 197 571 C197 585 207 594 224 594 C250 594 287 551 349 551 C410 551 447 591 447 651 C447 670 442 694 432 710 L344 710 C348 705 351 694 351 687 C351 673 339 666 325 666 C294 666 252 708 198 708 C135 708 98 668 98 611 C98 587 104 564 113 549 L113 549 Z M209 -13 C288 -13 332 16 361 70 L362 69 C368 21 400 -8 465 -8 C493 -8 519 -4 529 0 L529 110 C501 110 490 124 490 152 L490 482 L344 482 L344 201 C344 157 314 117 266 117 C223 117 199 139 199 197 L199 482 L53 482 L53 161 C53 46 107 -13 209 -13 L209 -13 Z " />
<glyph glyph-name="Umacron" unicode="&#x16a;" horiz-adv-x="677" d="M180 765 L497 765 L497 870 L180 870 L180 765 Z M340 -6 C488 -6 610 67 610 290 L610 700 L464 700 L464 278 C464 189 432 126 341 126 C249 126 214 189 214 278 L214 700 L67 700 L66 290 C65 67 191 -6 340 -6 L340 -6 Z " />
<glyph glyph-name="umacron" unicode="&#x16b;" horiz-adv-x="561" d="M122 584 L422 584 L422 693 L122 693 L122 584 Z M209 -13 C288 -13 332 16 361 70 L362 69 C368 21 400 -8 465 -8 C493 -8 519 -4 529 0 L529 110 C501 110 490 124 490 152 L490 482 L344 482 L344 201 C344 157 314 117 266 117 C223 117 199 139 199 197 L199 482 L53 482 L53 161 C53 46 107 -13 209 -13 L209 -13 Z " />
<glyph glyph-name="Ubreve" unicode="&#x16c;" horiz-adv-x="677" d="M338 743 C447 743 493 819 493 901 L386 901 C386 866 371 844 337 844 C304 844 289 866 289 901 L182 901 C182 819 228 743 338 743 L338 743 Z M340 -6 C488 -6 610 67 610 290 L610 700 L464 700 L464 278 C464 189 432 126 341 126 C249 126 214 189 214 278 L214 700 L67 700 L66 290 C65 67 191 -6 340 -6 L340 -6 Z " />
<glyph glyph-name="ubreve" unicode="&#x16d;" horiz-adv-x="561" d="M273 557 C394 557 427 640 427 723 L321 723 C321 682 306 663 273 663 C239 663 224 682 224 723 L117 723 C117 640 149 557 273 557 L273 557 Z M209 -13 C288 -13 332 16 361 70 L362 69 C368 21 400 -8 465 -8 C493 -8 519 -4 529 0 L529 110 C501 110 490 124 490 152 L490 482 L344 482 L344 201 C344 157 314 117 266 117 C223 117 199 139 199 197 L199 482 L53 482 L53 161 C53 46 107 -13 209 -13 L209 -13 Z " />
<glyph glyph-name="Uring" unicode="&#x16e;" horiz-adv-x="677" d="M338 710 C409 710 464 765 464 836 C464 907 409 962 338 962 C267 962 213 907 213 836 C213 765 267 710 338 710 L338 710 Z M338 791 C313 791 295 810 295 836 C295 862 313 880 338 880 C363 880 382 862 382 836 C382 810 363 791 338 791 L338 791 Z M340 -6 C488 -6 610 67 610 290 L610 700 L464 700 L464 278 C464 189 432 126 341 126 C249 126 214 189 214 278 L214 700 L67 700 L66 290 C65 67 191 -6 340 -6 L340 -6 Z " />
<glyph glyph-name="uring" unicode="&#x16f;" horiz-adv-x="561" d="M272 520 C340 520 393 573 393 641 C393 709 340 762 272 762 C204 762 151 709 151 641 C151 573 204 520 272 520 L272 520 Z M272 597 C248 597 230 616 230 641 C230 666 248 685 272 685 C296 685 314 666 314 641 C314 616 297 597 272 597 L272 597 Z M209 -13 C288 -13 332 16 361 70 L362 69 C368 21 400 -8 465 -8 C493 -8 519 -4 529 0 L529 110 C501 110 490 124 490 152 L490 482 L344 482 L344 201 C344 157 314 117 266 117 C223 117 199 139 199 197 L199 482 L53 482 L53 161 C53 46 107 -13 209 -13 L209 -13 Z " />
<glyph glyph-name="Uhungarumlaut" unicode="&#x170;" horiz-adv-x="677" d="M165 741 L277 741 L396 902 L234 902 L165 741 Z M370 741 L481 741 L600 902 L438 902 L370 741 Z M340 -6 C488 -6 610 67 610 290 L610 700 L464 700 L464 278 C464 189 432 126 341 126 C249 126 214 189 214 278 L214 700 L67 700 L66 290 C65 67 191 -6 340 -6 L340 -6 Z " />
<glyph glyph-name="uhungarumlaut" unicode="&#x171;" horiz-adv-x="561" d="M98 541 L209 541 L322 741 L162 741 L98 541 Z M303 541 L413 541 L526 741 L367 741 L303 541 Z M209 -13 C288 -13 332 16 361 70 L362 69 C368 21 400 -8 465 -8 C493 -8 519 -4 529 0 L529 110 C501 110 490 124 490 152 L490 482 L344 482 L344 201 C344 157 314 117 266 117 C223 117 199 139 199 197 L199 482 L53 482 L53 161 C53 46 107 -13 209 -13 L209 -13 Z " />
<glyph glyph-name="Uogonek" unicode="&#x172;" horiz-adv-x="677" d="M464 700 L464 278 C464 189 432 126 341 126 C249 126 214 189 214 278 L214 700 L67 700 L66 290 C65 88 169 9 299 -4 C272 -33 256 -66 256 -101 C256 -162 295 -197 370 -197 C408 -197 440 -187 459 -171 L425 -103 C419 -108 411 -112 398 -112 C379 -112 367 -102 367 -75 C367 -45 389 -15 428 4 C533 31 610 113 610 290 L610 700 L464 700 Z " />
<glyph glyph-name="uogonek" unicode="&#x173;" horiz-adv-x="561" d="M523 -109 C517 -114 509 -118 495 -118 C477 -118 464 -108 464 -81 C464 -50 487 -19 529 0 L529 110 C501 110 490 124 490 152 L490 482 L344 482 L344 201 C344 157 314 117 266 117 C223 117 199 139 199 197 L199 482 L53 482 L53 161 C53 46 107 -13 209 -13 C288 -13 332 16 361 70 L362 69 C366 37 381 14 410 2 C374 -29 353 -68 353 -107 C353 -168 393 -203 468 -203 C506 -203 537 -193 556 -177 L523 -109 Z " />
<glyph glyph-name="Wcircumflex" unicode="&#x174;" horiz-adv-x="945" d="M305 741 L430 741 L473 812 L515 741 L641 741 L552 902 L394 902 L305 741 Z M185 0 L354 0 L474 492 L590 0 L760 0 L938 700 L778 700 L672 158 L545 700 L408 700 L276 158 L175 700 L6 700 L185 0 Z " />
<glyph glyph-name="wcircumflex" unicode="&#x175;" horiz-adv-x="773" d="M386 639 L429 543 L554 543 L465 737 L309 737 L219 543 L344 543 L386 639 Z M618 482 L562 235 L543 125 L524 235 L468 482 L315 482 L258 235 L239 125 L220 235 L164 482 L6 482 L152 0 L306 0 L372 258 L390 350 L405 258 L463 0 L621 0 L767 482 L618 482 Z " />
<glyph glyph-name="Ycircumflex" unicode="&#x176;" horiz-adv-x="631" d="M148 741 L273 741 L316 812 L358 741 L484 741 L395 902 L237 902 L148 741 Z M242 0 L389 0 L389 283 L629 700 L465 700 L320 414 L175 700 L2 700 L242 280 L242 0 Z " />
<glyph glyph-name="ycircumflex" unicode="&#x177;" horiz-adv-x="525" d="M95 543 L221 543 L263 639 L305 543 L431 543 L341 737 L185 737 L95 543 Z M105 -247 C205 -247 264 -200 305 -93 L523 482 L369 482 L286 226 L269 160 L248 226 L156 482 L1 482 L198 0 L181 -46 C160 -102 134 -123 91 -123 C74 -123 51 -118 40 -109 L8 -227 C30 -239 71 -247 105 -247 L105 -247 Z " />
<glyph glyph-name="Ydieresis" unicode="&#x178;" horiz-adv-x="631" d="M192 741 C240 741 279 779 279 827 C279 875 240 915 192 915 C144 915 106 875 106 827 C106 779 144 741 192 741 L192 741 Z M443 741 C492 741 529 779 529 827 C529 875 492 915 443 915 C395 915 356 875 356 827 C356 779 395 741 443 741 L443 741 Z M242 0 L389 0 L389 283 L629 700 L465 700 L320 414 L175 700 L2 700 L242 280 L242 0 Z " />
<glyph glyph-name="Zacute" unicode="&#x179;" horiz-adv-x="602" d="M487 902 L310 902 L229 741 L357 741 L487 902 Z M206 123 L563 584 L563 700 L38 700 L38 577 L392 577 L33 116 L33 0 L570 0 L570 123 L206 123 Z " />
<glyph glyph-name="zacute" unicode="&#x17a;" horiz-adv-x="478" d="M157 541 L279 541 L409 741 L238 741 L157 541 Z M38 0 L447 0 L447 115 L214 115 L436 367 L436 482 L35 482 L35 367 L267 367 L38 115 L38 0 Z " />
<glyph glyph-name="Zdotaccent" unicode="&#x17b;" horiz-adv-x="602" d="M308 739 C356 739 395 778 395 827 C395 874 356 915 308 915 C260 915 219 874 219 827 C219 778 260 739 308 739 L308 739 Z M206 123 L563 584 L563 700 L38 700 L38 577 L392 577 L33 116 L33 0 L570 0 L570 123 L206 123 Z " />
<glyph glyph-name="zdotaccent" unicode="&#x17c;" horiz-adv-x="478" d="M235 552 C284 552 324 591 324 640 C324 689 284 730 235 730 C186 730 145 689 145 640 C145 591 186 552 235 552 L235 552 Z M38 0 L447 0 L447 115 L214 115 L436 367 L436 482 L35 482 L35 367 L267 367 L38 115 L38 0 Z " />
<glyph glyph-name="Zcaron" unicode="&#x17d;" horiz-adv-x="602" d="M385 741 L474 902 L348 902 L306 830 L264 902 L137 902 L227 741 L385 741 Z M206 123 L563 584 L563 700 L38 700 L38 577 L392 577 L33 116 L33 0 L570 0 L570 123 L206 123 Z " />
<glyph glyph-name="zcaron" unicode="&#x17e;" horiz-adv-x="478" d="M156 543 L312 543 L402 737 L277 737 L235 641 L193 737 L67 737 L156 543 Z M38 0 L447 0 L447 115 L214 115 L436 367 L436 482 L35 482 L35 367 L267 367 L38 115 L38 0 Z " />
<glyph glyph-name="uni018F" unicode="&#x18f;" horiz-adv-x="681" d="M644 355 C644 586 529 712 338 712 C185 712 101 634 59 556 L179 492 C209 542 248 578 332 578 C423 578 481 517 489 385 L34 385 C31 360 31 344 31 315 C31 109 153 -12 326 -12 C524 -12 645 128 644 355 L644 355 Z M333 118 C237 118 191 186 188 276 L485 276 C470 169 420 118 333 118 L333 118 Z " />
<glyph glyph-name="florin" unicode="&#x192;" horiz-adv-x="452" d="M69 -184 C190 -184 261 -110 261 27 L261 336 L387 336 L387 451 L261 451 L261 485 C261 544 285 571 330 571 C357 571 373 563 387 551 L441 655 C410 683 361 700 313 700 C184 700 114 626 114 489 L114 451 L44 451 L44 336 L114 336 L114 26 C114 -32 91 -55 50 -55 C29 -55 11 -46 -1 -30 L-67 -130 C-38 -163 5 -184 69 -184 L69 -184 Z " />
<glyph glyph-name="uni019D" unicode="&#x19d;" horiz-adv-x="691" d="M479 700 L479 231 L460 273 L204 700 L73 700 L73 -28 C73 -96 39 -120 -5 -120 C-28 -120 -51 -113 -65 -98 L-150 -209 C-119 -241 -66 -261 -7 -261 C127 -261 213 -183 213 -31 L213 460 L227 427 L488 0 L618 0 L618 700 L479 700 Z " />
<glyph glyph-name="Gcaron" unicode="&#x1e6;" horiz-adv-x="669" d="M269 741 L427 741 L516 902 L390 902 L348 830 L306 902 L179 902 L269 741 Z M359 -11 C502 -11 593 44 625 80 L625 361 L362 361 L362 243 L493 243 L493 149 C472 132 430 116 364 116 C251 116 192 193 192 350 C192 499 249 579 355 579 C433 579 470 537 470 482 C470 467 470 461 469 454 L609 454 C612 470 614 487 614 504 C614 637 509 711 360 711 C156 711 36 566 36 348 C36 116 150 -11 359 -11 L359 -11 Z " />
<glyph glyph-name="gcaron" unicode="&#x1e7;" horiz-adv-x="522" d="M175 543 L331 543 L421 737 L295 737 L253 641 L211 737 L86 737 L175 543 Z M250 -240 C467 -240 523 -159 523 -74 C523 24 450 70 348 70 L201 70 C173 70 154 77 154 99 C154 120 169 129 192 130 C212 125 238 120 269 120 C383 120 480 186 480 307 C480 371 454 418 417 446 C476 450 528 488 528 565 L407 589 C407 503 341 488 325 488 C305 492 290 494 267 494 C149 494 54 426 54 307 C54 251 75 207 99 182 C63 167 31 138 31 83 C31 40 53 11 87 -10 C52 -26 20 -61 20 -115 C20 -196 88 -240 250 -240 L250 -240 Z M267 229 C218 229 190 260 190 307 C190 353 220 384 268 384 C316 384 346 353 346 307 C346 260 316 229 267 229 L267 229 Z M258 -141 C174 -141 150 -126 150 -92 C150 -60 171 -43 216 -43 L325 -42 C373 -42 393 -56 393 -88 C393 -124 352 -141 258 -141 L258 -141 Z " />
<glyph glyph-name="uni01EA" unicode="&#x1ea;" horiz-adv-x="717" d="M438 -2 C577 29 681 145 681 349 C681 601 537 711 360 711 C182 711 36 591 36 348 C36 119 156 9 311 -9 C283 -37 267 -71 267 -106 C267 -168 306 -203 381 -203 C419 -203 451 -193 470 -176 L436 -108 C430 -113 422 -118 408 -118 C390 -118 378 -108 378 -81 C378 -51 398 -21 438 -2 L438 -2 Z M191 348 C191 520 270 579 360 579 C449 579 526 522 526 349 C526 179 448 118 357 118 C267 118 191 177 191 348 L191 348 Z " />
<glyph glyph-name="uni01EB" unicode="&#x1eb;" horiz-adv-x="543" d="M340 -5 C451 23 513 118 513 242 C513 392 430 496 275 496 C119 496 30 391 30 241 C30 108 94 11 218 -9 C190 -38 174 -72 174 -106 C174 -168 214 -203 289 -203 C326 -203 358 -193 377 -176 L344 -108 C338 -113 330 -118 316 -118 C298 -118 285 -108 285 -81 C285 -53 304 -23 340 -5 L340 -5 Z M179 241 C179 324 211 374 272 374 C332 374 365 324 365 241 C365 158 334 109 272 109 C209 109 179 158 179 241 L179 241 Z " />
<glyph glyph-name="Aringacute" unicode="&#x1fa;" horiz-adv-x="664" d="M511 0 L665 0 L412 690 C440 712 458 748 458 788 C458 831 438 868 407 890 L521 1031 L343 1031 L278 902 C235 883 206 839 206 788 C206 748 224 712 252 690 L-1 0 L152 0 L206 162 L458 162 L511 0 Z M332 832 C357 832 375 814 375 788 C375 762 357 743 332 743 C307 743 289 762 289 788 C289 814 307 832 332 832 L332 832 Z M244 277 L332 543 L420 277 L244 277 Z " />
<glyph glyph-name="aringacute" unicode="&#x1fb;" horiz-adv-x="524" d="M258 520 C326 520 378 573 378 641 C378 682 359 718 328 740 L431 899 L260 899 L199 747 C161 727 137 688 137 641 C137 573 189 520 258 520 L258 520 Z M258 597 C233 597 216 616 216 641 C216 666 233 685 258 685 C282 685 300 666 300 641 C300 616 283 597 258 597 L258 597 Z M458 152 L458 308 C458 426 396 496 252 496 C121 496 51 438 51 352 C51 317 60 300 62 297 L193 297 C189 304 186 315 186 328 C186 365 207 383 247 383 C289 383 312 360 312 313 L312 259 L217 259 C83 259 24 207 24 120 C24 43 80 -12 179 -12 C266 -12 310 30 331 69 C335 30 359 -8 434 -8 C457 -8 483 -4 498 0 L498 110 C468 110 458 124 458 152 L458 152 Z M223 97 C190 97 170 113 170 139 C170 165 189 184 231 184 L312 185 L312 165 C298 123 268 97 223 97 L223 97 Z " />
<glyph glyph-name="AEacute" unicode="&#x1fc;" horiz-adv-x="863" d="M421 741 L549 741 L679 902 L502 902 L421 741 Z M-2 0 L159 0 L215 168 L451 168 L508 0 L825 0 L825 125 L624 125 L567 278 L755 278 L755 401 L522 401 L458 575 L825 575 L825 700 L255 700 L-2 0 Z M254 285 L333 521 L413 285 L254 285 Z " />
<glyph glyph-name="aeacute" unicode="&#x1fd;" horiz-adv-x="780" d="M565 741 L394 741 L313 541 L435 541 L565 741 Z M677 165 C669 154 631 106 563 106 C501 106 465 141 460 219 L748 219 C750 239 750 249 750 265 C750 405 682 496 547 496 C487 496 439 475 402 443 C369 475 319 496 252 496 C121 496 51 438 51 352 C51 317 60 300 62 297 L193 297 C191 299 186 310 186 328 C186 365 207 383 247 383 C289 383 312 362 312 315 L312 259 L217 259 C83 259 24 208 24 121 C24 44 79 -12 178 -12 C256 -12 313 18 356 83 C395 22 462 -13 550 -13 C685 -13 742 74 752 90 L677 165 Z M543 381 C587 381 612 351 612 298 L463 298 C471 350 493 381 543 381 L543 381 Z M222 98 C187 98 171 115 171 141 C171 167 189 186 231 186 L312 186 L312 164 C299 126 270 98 222 98 L222 98 Z " />
<glyph glyph-name="Oslashacute" unicode="&#x1fe;" horiz-adv-x="717" d="M541 902 L363 902 L282 741 L411 741 L541 902 Z M593 618 L657 716 L536 716 L512 679 C467 701 415 711 360 711 C182 711 36 591 36 348 C36 228 69 141 123 82 L59 -16 L182 -16 L206 21 C251 -1 303 -11 358 -11 C535 -11 681 107 681 349 C681 470 648 559 593 618 L593 618 Z M191 348 C191 520 270 579 360 579 C387 579 413 574 436 562 L212 218 C199 252 191 294 191 348 L191 348 Z M358 118 C330 118 304 123 281 136 L505 482 C519 448 527 405 527 349 C527 179 448 118 358 118 L358 118 Z " />
<glyph glyph-name="oslashacute" unicode="&#x1ff;" horiz-adv-x="543" d="M438 741 L267 741 L185 541 L308 541 L438 741 Z M446 432 L503 517 L410 517 L382 475 C352 489 316 496 275 496 C119 496 30 391 30 241 C30 162 53 96 97 51 L39 -35 L133 -35 L161 7 C192 -6 228 -13 269 -13 C425 -13 513 94 513 242 C513 321 490 387 446 432 L446 432 Z M179 241 C179 324 211 374 272 374 C286 374 298 371 309 366 L185 183 C181 200 179 219 179 241 L179 241 Z M272 109 C258 109 245 111 234 116 L358 301 C363 283 365 263 365 241 C365 158 334 109 272 109 L272 109 Z " />
<glyph glyph-name="uni0218" unicode="&#x218;" horiz-adv-x="608" d="M299 -11 C468 -11 575 69 575 203 C575 340 477 384 350 412 C239 437 189 450 189 507 C189 560 229 586 306 586 C368 586 421 562 421 506 C421 496 421 490 419 480 L553 479 C557 494 558 507 558 522 C558 664 437 711 303 711 C145 711 42 624 42 501 C42 362 148 318 267 293 C385 268 428 249 428 192 C428 142 389 114 301 114 C227 114 164 141 113 201 L20 102 C78 26 169 -11 299 -11 L299 -11 Z M277 -274 C350 -254 396 -197 396 -119 C396 -64 364 -32 314 -32 C270 -32 238 -63 238 -106 C238 -146 264 -172 299 -175 C298 -194 281 -210 251 -220 L277 -274 Z " />
<glyph glyph-name="uni0219" unicode="&#x219;" horiz-adv-x="495" d="M243 -13 C381 -13 464 37 464 140 C463 241 377 265 300 281 C221 298 181 305 181 341 C181 369 204 385 251 385 C294 385 317 368 317 337 C317 326 315 313 313 306 L445 306 C450 317 454 337 454 352 C454 445 378 496 253 496 C116 496 40 429 40 339 C40 228 129 201 218 181 C295 164 323 160 323 133 C323 112 302 100 250 100 C200 100 148 109 90 164 L17 64 C82 2 170 -13 243 -13 L243 -13 Z M217 -274 C290 -254 336 -197 336 -119 C336 -64 304 -32 254 -32 C210 -32 178 -63 178 -106 C178 -146 204 -172 239 -175 C238 -194 221 -210 191 -220 L217 -274 Z " />
<glyph glyph-name="uni021A" unicode="&#x21a;" horiz-adv-x="575" d="M218 0 L366 0 L366 566 L564 566 L564 700 L13 700 L13 566 L218 566 L218 0 Z M257 -274 C330 -254 376 -197 376 -119 C376 -64 344 -32 294 -32 C250 -32 218 -63 218 -106 C218 -146 244 -172 279 -175 C278 -194 261 -210 231 -220 L257 -274 Z " />
<glyph glyph-name="uni021B" unicode="&#x21b;" horiz-adv-x="432" d="M291 -6 C342 -6 400 14 431 40 L386 148 C369 136 341 125 315 125 C266 125 242 156 242 221 L242 365 L402 365 L402 482 L242 482 L242 623 L100 623 L100 482 L13 482 L13 365 L96 365 L96 212 C96 64 158 -6 291 -6 L291 -6 Z M230 -274 C303 -254 349 -197 349 -119 C349 -64 317 -32 267 -32 C223 -32 191 -63 191 -106 C191 -146 217 -172 252 -175 C251 -194 234 -210 204 -220 L230 -274 Z " />
<glyph glyph-name="uni0232" unicode="&#x232;" horiz-adv-x="631" d="M158 765 L474 765 L474 870 L158 870 L158 765 Z M242 0 L389 0 L389 283 L629 700 L465 700 L320 414 L175 700 L2 700 L242 280 L242 0 Z " />
<glyph glyph-name="uni0233" unicode="&#x233;" horiz-adv-x="525" d="M114 584 L413 584 L413 693 L114 693 L114 584 Z M105 -247 C205 -247 264 -200 305 -93 L523 482 L369 482 L286 226 L269 160 L248 226 L156 482 L1 482 L198 0 L181 -46 C160 -102 134 -123 91 -123 C74 -123 51 -118 40 -109 L8 -227 C30 -239 71 -247 105 -247 L105 -247 Z " />
<glyph glyph-name="uni0237" unicode="&#x237;" horiz-adv-x="264" d="M9 -247 C149 -247 207 -158 207 -30 L207 482 L61 482 L61 -23 C61 -82 40 -118 -7 -118 C-32 -118 -48 -108 -48 -108 L-91 -215 C-91 -215 -61 -247 9 -247 L9 -247 Z " />
<glyph glyph-name="uni0259" unicode="&#x259;" horiz-adv-x="502" d="M244 495 C138 495 70 442 39 375 L145 320 C163 349 187 376 234 376 C286 376 319 348 323 265 L32 265 C30 248 29 239 29 217 C29 71 107 -14 241 -14 C385 -14 471 87 471 248 C471 413 383 495 244 495 L244 495 Z M243 101 C195 101 170 134 170 185 L321 185 C314 128 292 101 243 101 L243 101 Z " />
<glyph glyph-name="uni0272" unicode="&#x272;" horiz-adv-x="574" d="M509 153 L509 304 C509 426 447 496 339 496 C263 496 219 457 199 419 L199 420 C192 459 159 489 99 489 C71 489 45 486 32 481 L32 371 C60 371 72 359 72 330 L72 -32 C72 -101 36 -124 -8 -124 C-36 -124 -54 -113 -68 -100 L-152 -209 C-125 -240 -69 -261 -10 -261 C124 -261 218 -183 218 -31 L218 284 C218 333 248 365 293 365 C335 365 362 337 362 288 L362 118 C362 32 402 -7 484 -7 C509 -7 536 -3 548 1 L548 111 C521 111 509 124 509 153 L509 153 Z " />
<glyph glyph-name="circumflex" unicode="&#x2c6;" horiz-adv-x="391" d="M25 588 L151 588 L193 683 L236 588 L362 588 L273 789 L115 789 L25 588 Z " />
<glyph glyph-name="caron" unicode="&#x2c7;" horiz-adv-x="367" d="M103 557 L261 557 L350 757 L224 757 L182 662 L139 757 L14 757 L103 557 Z " />
<glyph glyph-name="breve" unicode="&#x2d8;" horiz-adv-x="362" d="M182 579 C303 579 336 657 336 736 L229 736 C229 693 215 675 181 675 C147 676 132 693 132 736 L25 736 C25 657 59 579 182 579 L182 579 Z " />
<glyph glyph-name="dotaccent" unicode="&#x2d9;" horiz-adv-x="205" d="M103 582 C143 582 176 614 176 654 C176 694 143 728 103 728 C63 728 30 694 30 654 C30 614 63 582 103 582 L103 582 Z " />
<glyph glyph-name="ring" unicode="&#x2da;" horiz-adv-x="288" d="M144 544 C203 544 249 589 249 649 C249 708 203 754 144 754 C85 754 39 708 39 649 C39 589 85 544 144 544 L144 544 Z M144 610 C122 610 106 626 106 649 C106 671 122 687 144 687 C166 687 182 671 182 649 C182 626 166 610 144 610 L144 610 Z " />
<glyph glyph-name="ogonek" unicode="&#x2db;" horiz-adv-x="287" d="M147 -188 C210 -188 244 -145 244 -145 L212 -85 C212 -85 195 -114 162 -114 C135 -114 120 -97 120 -75 C120 -19 193 2 193 2 L180 50 C180 50 43 18 43 -98 C43 -162 94 -188 147 -188 L147 -188 Z " />
<glyph glyph-name="tilde" unicode="&#x2dc;" horiz-adv-x="449" d="M49 541 L144 541 C144 541 129 556 129 581 C129 598 140 609 156 609 C192 609 238 566 319 566 C384 566 416 613 416 668 C416 702 403 730 403 730 L306 730 C306 730 321 707 321 684 C321 670 314 660 299 660 C257 660 202 703 134 703 C66 703 33 657 33 603 C33 563 49 541 49 541 L49 541 Z " />
<glyph glyph-name="hungarumlaut" unicode="&#x2dd;" horiz-adv-x="474" d="M24 555 L150 555 L280 756 L105 756 L24 555 Z M228 555 L354 555 L484 756 L309 756 L228 555 Z " />
<glyph glyph-name="gravecomb" unicode="&#x300;" d="M-152 541 L-30 541 L-111 741 L-282 741 L-152 541 Z " />
<glyph glyph-name="acutecomb" unicode="&#x301;" d="M-278 541 L-156 541 L-26 741 L-197 741 L-278 541 Z " />
<glyph glyph-name="uni0302" unicode="&#x302;" d="M-365 543 L-240 543 L-198 639 L-156 543 L-30 543 L-120 737 L-276 737 L-365 543 Z " />
<glyph glyph-name="tildecomb" unicode="&#x303;" d="M-383 549 L-292 549 C-296 554 -299 563 -299 571 C-299 585 -288 594 -272 594 C-246 594 -209 551 -147 551 C-85 551 -48 591 -48 651 C-48 670 -53 694 -63 710 L-152 710 C-147 705 -145 694 -145 687 C-145 673 -156 666 -171 666 C-202 666 -243 708 -297 708 C-360 708 -398 668 -398 611 C-398 587 -392 564 -383 549 L-383 549 Z " />
<glyph glyph-name="uni0304" unicode="&#x304;" d="M-361 584 L-62 584 L-62 693 L-361 693 L-361 584 Z " />
<glyph glyph-name="uni0306" unicode="&#x306;" d="M-180 557 C-59 557 -26 640 -26 723 L-132 723 C-132 682 -147 663 -181 663 C-214 663 -229 682 -229 723 L-337 723 C-337 640 -304 557 -180 557 L-180 557 Z " />
<glyph glyph-name="uni0307" unicode="&#x307;" d="M-101 552 C-52 552 -12 591 -12 640 C-12 689 -52 730 -101 730 C-149 730 -191 689 -191 640 C-191 591 -149 552 -101 552 L-101 552 Z " />
<glyph glyph-name="uni0308" unicode="&#x308;" d="M-326 544 C-279 544 -241 583 -241 629 C-241 675 -279 715 -326 715 C-373 715 -412 675 -412 629 C-412 583 -373 544 -326 544 L-326 544 Z M-101 544 C-54 544 -16 583 -16 629 C-16 675 -54 715 -101 715 C-148 715 -187 675 -187 629 C-187 583 -148 544 -101 544 L-101 544 Z " />
<glyph glyph-name="uni030A" unicode="&#x30a;" d="M-147 520 C-78 520 -26 573 -26 641 C-26 709 -78 762 -147 762 C-215 762 -268 709 -268 641 C-268 573 -215 520 -147 520 L-147 520 Z M-147 597 C-171 597 -189 616 -189 641 C-189 666 -171 685 -147 685 C-122 685 -104 666 -104 641 C-104 616 -122 597 -147 597 L-147 597 Z " />
<glyph glyph-name="uni030B" unicode="&#x30b;" d="M-436 541 L-325 541 L-213 741 L-372 741 L-436 541 Z M-231 541 L-121 541 L-9 741 L-168 741 L-231 541 Z " />
<glyph glyph-name="uni030C" unicode="&#x30c;" d="M-263 543 L-108 543 L-18 737 L-143 737 L-185 641 L-227 737 L-353 737 L-263 543 Z " />
<glyph glyph-name="uni0312" unicode="&#x312;" d="M-101 544 C-58 544 -29 575 -29 613 C-29 652 -52 679 -91 681 C-90 696 -70 719 -38 728 L-71 783 C-136 764 -182 694 -182 629 C-182 574 -151 544 -101 544 L-101 544 Z " />
<glyph glyph-name="dotbelowcomb" unicode="&#x323;" d="M-101 -215 C-52 -215 -12 -175 -12 -126 C-12 -78 -52 -36 -101 -36 C-149 -36 -191 -78 -191 -126 C-191 -175 -149 -215 -101 -215 L-101 -215 Z " />
<glyph glyph-name="uni0326" unicode="&#x326;" d="M-147 -274 C-74 -254 -28 -197 -28 -119 C-28 -64 -60 -32 -109 -32 C-154 -32 -185 -63 -185 -106 C-185 -146 -160 -172 -125 -175 C-125 -194 -142 -210 -173 -220 L-147 -274 Z " />
<glyph glyph-name="uni0327" unicode="&#x327;" d="M-150 -221 C-66 -221 -16 -183 -16 -121 C-16 -68 -51 -44 -98 -38 L-84 3 L-163 3 L-193 -82 C-149 -85 -122 -97 -122 -119 C-122 -137 -135 -145 -158 -145 C-179 -145 -197 -136 -211 -123 L-254 -187 C-232 -209 -189 -221 -150 -221 L-150 -221 Z " />
<glyph glyph-name="uni0328" unicode="&#x328;" d="M-149 -201 C-111 -201 -79 -191 -60 -175 L-93 -107 C-99 -112 -108 -116 -121 -116 C-139 -116 -152 -106 -152 -79 C-152 -48 -129 -17 -87 2 L-130 49 C-211 19 -263 -42 -263 -105 C-263 -166 -223 -201 -149 -201 L-149 -201 Z " />
<glyph glyph-name="uni0335" unicode="&#x335;" d="M-344 299 L-22 299 L-22 404 L-344 404 L-344 299 Z " />
<glyph glyph-name="uni0336" unicode="&#x336;" d="M-709 499 L-15 499 L-15 595 L-709 595 L-709 499 Z " />
<glyph glyph-name="uni0337" unicode="&#x337;" d="M-332 252 L-14 437 L-70 530 L-385 345 L-332 252 Z " />
<glyph glyph-name="uni0338" unicode="&#x338;" d="M-463 -34 L-369 -34 L1 518 L-92 518 L-463 -34 Z " />
<glyph glyph-name="Wgrave" unicode="&#x1e80;" horiz-adv-x="945" d="M412 741 L541 741 L460 902 L282 902 L412 741 Z M185 0 L354 0 L474 492 L590 0 L760 0 L938 700 L778 700 L672 158 L545 700 L408 700 L276 158 L175 700 L6 700 L185 0 Z " />
<glyph glyph-name="wgrave" unicode="&#x1e81;" horiz-adv-x="773" d="M449 541 L368 741 L197 741 L327 541 L449 541 Z M618 482 L562 235 L543 125 L524 235 L468 482 L315 482 L258 235 L239 125 L220 235 L164 482 L6 482 L152 0 L306 0 L372 258 L390 350 L405 258 L463 0 L621 0 L767 482 L618 482 Z " />
<glyph glyph-name="Wacute" unicode="&#x1e82;" horiz-adv-x="945" d="M396 741 L524 741 L654 902 L477 902 L396 741 Z M185 0 L354 0 L474 492 L590 0 L760 0 L938 700 L778 700 L672 158 L545 700 L408 700 L276 158 L175 700 L6 700 L185 0 Z " />
<glyph glyph-name="wacute" unicode="&#x1e83;" horiz-adv-x="773" d="M561 741 L390 741 L309 541 L432 541 L561 741 Z M618 482 L562 235 L543 125 L524 235 L468 482 L315 482 L258 235 L239 125 L220 235 L164 482 L6 482 L152 0 L306 0 L372 258 L390 350 L405 258 L463 0 L621 0 L767 482 L618 482 Z " />
<glyph glyph-name="Wdieresis" unicode="&#x1e84;" horiz-adv-x="945" d="M349 741 C397 741 435 779 435 827 C435 875 397 915 349 915 C301 915 262 875 262 827 C262 779 301 741 349 741 L349 741 Z M600 741 C648 741 686 779 686 827 C686 875 648 915 600 915 C552 915 513 875 513 827 C513 779 552 741 600 741 L600 741 Z M185 0 L354 0 L474 492 L590 0 L760 0 L938 700 L778 700 L672 158 L545 700 L408 700 L276 158 L175 700 L6 700 L185 0 Z " />
<glyph glyph-name="wdieresis" unicode="&#x1e85;" horiz-adv-x="773" d="M274 552 C322 552 359 591 359 638 C359 684 322 724 274 724 C228 724 189 684 189 638 C189 591 228 552 274 552 L274 552 Z M500 552 C547 552 585 591 585 638 C585 684 547 724 500 724 C453 724 414 684 414 638 C414 591 453 552 500 552 L500 552 Z M618 482 L562 235 L543 125 L524 235 L468 482 L315 482 L258 235 L239 125 L220 235 L164 482 L6 482 L152 0 L306 0 L372 258 L390 350 L405 258 L463 0 L621 0 L767 482 L618 482 Z " />
<glyph glyph-name="uni1E9E" unicode="&#x1e9e;" horiz-adv-x="682" d="M465 394 L603 539 L603 624 C538 683 451 706 353 706 C187 706 67 619 67 445 L67 0 L214 0 L214 435 C214 526 269 575 352 575 C395 575 428 568 455 554 L315 400 L319 291 C466 289 504 245 504 192 C504 144 471 114 409 114 C366 114 340 124 310 147 L241 40 C277 6 339 -11 416 -11 C559 -11 651 63 651 195 C651 293 610 370 465 394 L465 394 Z " />
<glyph glyph-name="uni1EA0" unicode="&#x1ea0;" horiz-adv-x="664" d="M665 0 L408 700 L256 700 L-1 0 L152 0 L206 162 L458 162 L511 0 L665 0 Z M244 277 L332 543 L420 277 L244 277 Z M332 -36 C284 -36 242 -78 242 -126 C242 -175 284 -215 332 -215 C381 -215 421 -175 421 -126 C421 -78 381 -36 332 -36 L332 -36 Z " />
<glyph glyph-name="uni1EA1" unicode="&#x1ea1;" horiz-adv-x="524" d="M458 152 L458 308 C458 426 396 496 252 496 C121 496 51 438 51 352 C51 317 60 300 62 297 L193 297 C189 304 186 315 186 328 C186 365 207 383 247 383 C289 383 312 360 312 313 L312 259 L217 259 C83 259 24 207 24 120 C24 43 80 -12 179 -12 C266 -12 310 30 331 69 C335 30 359 -8 434 -8 C457 -8 483 -4 498 0 L498 110 C468 110 458 124 458 152 L458 152 Z M223 97 C190 97 170 113 170 139 C170 165 189 184 231 184 L312 185 L312 165 C298 123 268 97 223 97 L223 97 Z M268 -36 C220 -36 179 -78 179 -126 C179 -175 220 -215 268 -215 C318 -215 357 -175 357 -126 C357 -78 318 -36 268 -36 L268 -36 Z " />
<glyph glyph-name="uni1EB8" unicode="&#x1eb8;" horiz-adv-x="570" d="M73 0 L530 0 L530 126 L221 126 L221 291 L486 291 L486 417 L221 417 L221 575 L528 575 L528 700 L73 700 L73 0 Z M319 -215 C368 -215 408 -175 408 -126 C408 -78 368 -36 319 -36 C271 -36 229 -78 229 -126 C229 -175 271 -215 319 -215 L319 -215 Z " />
<glyph glyph-name="uni1EB9" unicode="&#x1eb9;" horiz-adv-x="503" d="M389 161 C366 129 340 106 282 106 C218 106 183 142 177 217 L469 217 C471 234 471 243 471 265 C471 412 397 496 266 496 C119 496 30 398 30 238 C30 83 121 -13 268 -13 C365 -13 441 31 474 92 L389 161 Z M261 381 C308 381 331 348 331 297 L180 297 C189 352 213 381 261 381 L261 381 Z M258 -36 C210 -36 168 -78 168 -126 C168 -175 210 -215 258 -215 C307 -215 347 -175 347 -126 C347 -78 307 -36 258 -36 L258 -36 Z " />
<glyph glyph-name="uni1EBC" unicode="&#x1ebc;" horiz-adv-x="570" d="M144 742 L238 742 C235 747 232 754 232 762 C232 776 242 784 257 784 C286 784 327 744 394 744 C456 744 494 783 494 843 C494 861 488 885 479 900 L385 900 C389 895 391 888 391 881 C391 867 381 859 366 859 C332 859 289 899 229 899 C168 899 130 859 130 803 C130 780 136 757 144 742 L144 742 Z M73 0 L530 0 L530 126 L221 126 L221 291 L486 291 L486 417 L221 417 L221 575 L528 575 L528 700 L73 700 L73 0 Z " />
<glyph glyph-name="uni1EBD" unicode="&#x1ebd;" horiz-adv-x="503" d="M192 549 C188 554 185 563 185 571 C185 585 195 594 212 594 C238 594 275 551 337 551 C398 551 436 591 436 651 C436 670 430 694 420 710 L332 710 C336 705 339 694 339 687 C339 673 328 666 313 666 C282 666 240 708 186 708 C124 708 86 668 86 611 C86 587 92 564 101 549 L192 549 Z M389 161 C366 129 340 106 282 106 C218 106 183 142 177 217 L469 217 C471 234 471 243 471 265 C471 412 397 496 266 496 C119 496 30 398 30 238 C30 83 121 -13 268 -13 C365 -13 441 31 474 92 L389 161 Z M261 381 C308 381 331 348 331 297 L180 297 C189 352 213 381 261 381 L261 381 Z " />
<glyph glyph-name="uni1ECA" unicode="&#x1eca;" horiz-adv-x="295" d="M73 0 L221 0 L221 700 L73 700 L73 0 Z M148 -215 C197 -215 236 -175 236 -126 C236 -78 197 -36 148 -36 C99 -36 58 -78 58 -126 C58 -175 99 -215 148 -215 L148 -215 Z " />
<glyph glyph-name="uni1ECB" unicode="&#x1ecb;" horiz-adv-x="260" d="M130 552 C179 552 219 591 219 640 C219 689 179 730 130 730 C82 730 40 689 40 640 C40 591 82 552 130 552 L130 552 Z M57 0 L203 0 L203 482 L57 482 L57 0 Z M130 -215 C179 -215 219 -175 219 -126 C219 -78 179 -36 130 -36 C82 -36 40 -78 40 -126 C40 -175 82 -215 130 -215 L130 -215 Z " />
<glyph glyph-name="uni1ECC" unicode="&#x1ecc;" horiz-adv-x="717" d="M357 -11 C535 -11 681 107 681 349 C681 601 537 711 360 711 C182 711 36 591 36 348 C36 97 180 -11 357 -11 L357 -11 Z M357 118 C267 118 191 177 191 348 C191 520 270 579 360 579 C449 579 526 522 526 349 C526 179 448 118 357 118 L357 118 Z M359 -215 C408 -215 448 -175 448 -126 C448 -78 408 -36 359 -36 C310 -36 269 -78 269 -126 C269 -175 310 -215 359 -215 L359 -215 Z " />
<glyph glyph-name="uni1ECD" unicode="&#x1ecd;" horiz-adv-x="543" d="M269 -13 C425 -13 513 94 513 242 C513 392 430 496 275 496 C119 496 30 391 30 241 C30 91 112 -13 269 -13 L269 -13 Z M272 109 C209 109 179 158 179 241 C179 324 211 374 272 374 C332 374 365 324 365 241 C365 158 334 109 272 109 L272 109 Z M272 -215 C321 -215 361 -175 361 -126 C361 -78 321 -36 272 -36 C223 -36 182 -78 182 -126 C182 -175 223 -215 272 -215 L272 -215 Z " />
<glyph glyph-name="uni1EE4" unicode="&#x1ee4;" horiz-adv-x="677" d="M340 -6 C488 -6 610 67 610 290 L610 700 L464 700 L464 278 C464 189 432 126 341 126 C249 126 214 189 214 278 L214 700 L67 700 L66 290 C65 67 191 -6 340 -6 L340 -6 Z M338 -215 C387 -215 427 -175 427 -126 C427 -78 387 -36 338 -36 C290 -36 249 -78 249 -126 C249 -175 290 -215 338 -215 L338 -215 Z " />
<glyph glyph-name="uni1EE5" unicode="&#x1ee5;" horiz-adv-x="561" d="M209 -13 C288 -13 332 16 361 70 L362 69 C368 21 400 -8 465 -8 C493 -8 519 -4 529 0 L529 110 C501 110 490 124 490 152 L490 482 L344 482 L344 201 C344 157 314 117 266 117 C223 117 199 139 199 197 L199 482 L53 482 L53 161 C53 46 107 -13 209 -13 L209 -13 Z M281 -215 C330 -215 370 -175 370 -126 C370 -78 330 -36 281 -36 C233 -36 192 -78 192 -126 C192 -175 233 -215 281 -215 L281 -215 Z " />
<glyph glyph-name="Ygrave" unicode="&#x1ef2;" horiz-adv-x="631" d="M255 741 L385 741 L303 902 L126 902 L255 741 Z M242 0 L389 0 L389 283 L629 700 L465 700 L320 414 L175 700 L2 700 L242 280 L242 0 Z " />
<glyph glyph-name="ygrave" unicode="&#x1ef3;" horiz-adv-x="525" d="M203 541 L325 541 L245 741 L74 741 L203 541 Z M105 -247 C205 -247 264 -200 305 -93 L523 482 L369 482 L286 226 L269 160 L248 226 L156 482 L1 482 L198 0 L181 -46 C160 -102 134 -123 91 -123 C74 -123 51 -118 40 -109 L8 -227 C30 -239 71 -247 105 -247 L105 -247 Z " />
<glyph glyph-name="uni1EF8" unicode="&#x1ef8;" horiz-adv-x="631" d="M148 742 L242 742 C239 747 236 754 236 762 C236 776 246 784 261 784 C290 784 331 744 398 744 C461 744 498 783 498 843 C498 861 492 885 483 900 L389 900 C393 895 395 888 395 881 C395 867 386 859 370 859 C336 859 293 899 233 899 C173 899 134 859 134 803 C134 780 140 757 148 742 L148 742 Z M242 0 L389 0 L389 283 L629 700 L465 700 L320 414 L175 700 L2 700 L242 280 L242 0 Z " />
<glyph glyph-name="uni1EF9" unicode="&#x1ef9;" horiz-adv-x="525" d="M104 549 L195 549 C191 554 188 563 188 571 C188 585 198 594 215 594 C241 594 278 551 340 551 C402 551 439 591 439 651 C439 670 433 694 424 710 L335 710 C340 705 342 694 342 687 C342 673 331 666 316 666 C285 666 244 708 189 708 C127 708 89 668 89 611 C89 587 95 564 104 549 L104 549 Z M105 -247 C205 -247 264 -200 305 -93 L523 482 L369 482 L286 226 L269 160 L248 226 L156 482 L1 482 L198 0 L181 -46 C160 -102 134 -123 91 -123 C74 -123 51 -118 40 -109 L8 -227 C30 -239 71 -247 105 -247 L105 -247 Z " />
<glyph glyph-name="endash" unicode="&#x2013;" horiz-adv-x="547" d="M50 219 L498 219 L498 324 L50 324 L50 219 Z " />
<glyph glyph-name="emdash" unicode="&#x2014;" horiz-adv-x="878" d="M50 219 L828 219 L828 324 L50 324 L50 219 Z " />
<glyph glyph-name="quoteleft" unicode="&#x2018;" horiz-adv-x="238" d="M155 714 C71 678 31 607 31 518 C31 448 68 414 123 414 C172 414 207 452 207 500 C207 547 175 583 123 583 C124 608 154 639 194 657 L155 714 Z " />
<glyph glyph-name="quoteright" unicode="&#x2019;" horiz-adv-x="235" d="M84 408 C168 444 208 515 208 604 C208 674 170 708 115 708 C67 708 31 669 31 622 C31 575 63 539 115 539 C115 514 84 483 44 465 L84 408 Z " />
<glyph glyph-name="quotesinglbase" unicode="&#x201a;" horiz-adv-x="248" d="M87 -137 C171 -100 211 -29 211 59 C211 129 174 164 119 164 C70 164 34 125 34 77 C34 30 66 -6 119 -6 C118 -31 87 -62 47 -80 L87 -137 Z " />
<glyph glyph-name="quotedblleft" unicode="&#x201c;" horiz-adv-x="454" d="M155 715 C71 678 31 607 31 518 C31 449 68 414 123 414 C172 414 207 453 207 501 C207 548 175 584 123 584 C124 608 154 640 194 657 L155 715 Z M371 715 C287 678 247 607 247 518 C247 449 284 414 339 414 C388 414 423 453 423 501 C423 548 391 584 339 584 C340 608 370 640 410 657 L371 715 Z " />
<glyph glyph-name="quotedblright" unicode="&#x201d;" horiz-adv-x="451" d="M84 408 C168 444 208 515 208 604 C208 674 170 708 115 708 C67 708 31 669 31 622 C31 575 63 539 115 539 C115 514 84 483 44 465 L84 408 Z M300 408 C384 444 424 515 424 604 C424 674 386 708 331 708 C283 708 247 669 247 622 C247 575 279 539 331 539 C331 514 300 483 260 465 L300 408 Z " />
<glyph glyph-name="quotedblbase" unicode="&#x201e;" horiz-adv-x="464" d="M87 -137 C171 -100 211 -29 211 59 C211 129 174 164 119 164 C70 164 34 125 34 77 C34 30 66 -6 119 -6 C118 -31 87 -62 47 -80 L87 -137 Z M303 -137 C387 -100 427 -29 427 59 C427 129 390 164 335 164 C286 164 250 125 250 77 C250 30 282 -6 335 -6 C334 -31 303 -62 263 -80 L303 -137 Z " />
<glyph glyph-name="dagger" unicode="&#x2020;" horiz-adv-x="409" d="M157 66 L251 66 L269 482 L375 482 L375 564 L269 564 L269 731 L140 731 L140 564 L35 564 L35 482 L140 482 L157 66 Z " />
<glyph glyph-name="daggerdbl" unicode="&#x2021;" horiz-adv-x="409" d="M157 73 L251 73 L259 262 L374 262 L374 345 L264 345 L269 482 L375 482 L375 564 L269 564 L269 731 L140 731 L140 564 L35 564 L35 482 L140 482 L145 345 L36 345 L36 262 L149 262 L157 73 Z " />
<glyph glyph-name="bullet" unicode="&#x2022;" horiz-adv-x="390" d="M195 150 C272 150 335 212 335 290 C335 367 272 430 195 430 C117 430 55 367 55 290 C55 212 117 150 195 150 L195 150 Z " />
<glyph glyph-name="ellipsis" unicode="&#x2026;" horiz-adv-x="604" d="M107 -6 C147 -6 179 26 179 67 C179 107 147 140 107 140 C66 140 33 107 33 67 C33 26 66 -6 107 -6 L107 -6 Z M302 -6 C342 -6 374 26 374 67 C374 107 342 140 302 140 C262 140 229 107 229 67 C229 26 262 -6 302 -6 L302 -6 Z M498 -6 C538 -6 570 26 570 67 C570 107 538 140 498 140 C458 140 425 107 425 67 C425 26 458 -6 498 -6 L498 -6 Z " />
<glyph glyph-name="perthousand" unicode="&#x2030;" horiz-adv-x="953" d="M150 423 C237 423 281 479 281 562 C281 644 237 701 150 701 C67 701 23 644 23 562 C23 479 67 423 150 423 L150 423 Z M172 0 L271 0 L481 700 L384 700 L172 0 Z M150 493 C118 493 105 517 105 562 C105 605 118 627 150 627 C182 627 196 605 196 562 C196 517 182 493 150 493 L150 493 Z M501 -2 C587 -2 631 54 631 137 C631 219 588 276 501 276 C417 276 374 219 374 137 C374 54 417 -2 501 -2 L501 -2 Z M800 -2 C886 -2 930 54 930 137 C930 219 887 276 800 276 C716 276 673 219 673 137 C673 54 716 -2 800 -2 L800 -2 Z M501 68 C469 68 456 92 456 137 C456 180 469 202 501 202 C533 202 546 180 546 137 C546 92 533 68 501 68 L501 68 Z M800 68 C768 68 755 92 755 137 C755 180 768 202 800 202 C832 202 845 180 845 137 C845 92 832 68 800 68 L800 68 Z " />
<glyph glyph-name="guilsinglleft" unicode="&#x2039;" horiz-adv-x="304" d="M200 60 L273 142 L145 261 L273 381 L200 463 L34 320 L34 202 L200 60 Z " />
<glyph glyph-name="guilsinglright" unicode="&#x203a;" horiz-adv-x="304" d="M104 60 L270 202 L270 320 L104 463 L31 381 L159 261 L31 141 L104 60 Z " />
<glyph glyph-name="fraction" unicode="&#x2044;" horiz-adv-x="106" d="M-103 0 L-2 0 L218 727 L117 727 L-103 0 Z " />
<glyph glyph-name="Euro" unicode="&#x20ac;" horiz-adv-x="670" d="M548 213 C522 175 471 144 420 144 C351 144 304 164 280 221 L455 221 L455 318 L262 318 C261 326 261 334 261 343 C261 352 261 360 262 368 L455 368 L455 465 L279 465 C301 525 343 556 403 556 C459 556 495 529 515 493 L639 582 C596 655 517 700 401 700 C249 700 142 612 107 465 L32 465 L32 368 L94 368 L94 349 C94 338 94 328 95 318 L32 318 L32 221 L110 221 C150 79 261 0 419 0 C518 0 605 51 645 115 L548 213 Z " />
<glyph glyph-name="trademark" unicode="&#x2122;" horiz-adv-x="835" d="M136 333 L249 333 L249 630 L353 630 L353 717 L25 717 L25 630 L136 630 L136 333 Z M378 333 L472 333 L472 530 L543 379 L605 379 L679 531 L679 333 L772 333 L772 717 L673 717 L575 502 L478 717 L378 717 L378 333 Z " />
<glyph glyph-name="minus" unicode="&#x2212;" horiz-adv-x="483" d="M53 216 L430 216 L430 321 L53 321 L53 216 Z " />
<glyph glyph-name="uni2215" unicode="&#x2215;" horiz-adv-x="411" d="M-18 0 L126 0 L430 726 L288 726 L-18 0 Z " />
<glyph glyph-name="uni2219" unicode="&#x2219;" horiz-adv-x="317" d="M159 206 C199 206 231 237 231 277 C231 317 199 350 159 350 C119 350 87 317 87 277 C87 237 119 206 159 206 L159 206 Z " />
<glyph glyph-name="approxequal" unicode="&#x2248;" horiz-adv-x="507" d="M64 263 L155 263 C155 263 140 279 140 306 C140 324 152 336 174 336 C215 336 268 281 361 281 C427 281 460 334 460 395 C460 428 446 457 446 457 L353 457 C353 457 368 433 368 409 C368 394 359 382 340 382 C292 382 229 437 151 437 C82 437 48 385 48 326 C48 286 64 263 64 263 L64 263 Z M64 69 L155 69 C155 69 140 85 140 112 C140 128 152 141 174 141 C215 141 268 86 361 86 C427 86 460 140 460 200 C460 234 446 263 446 263 L353 263 C353 263 368 239 368 214 C368 199 359 187 340 187 C292 187 229 243 151 243 C82 243 48 190 48 132 C48 91 64 69 64 69 L64 69 Z " />
<glyph glyph-name="notequal" unicode="&#x2260;" horiz-adv-x="509" d="M131 47 L248 47 L265 102 L457 102 L457 206 L297 206 L329 314 L457 314 L457 418 L361 418 L383 490 L266 490 L243 418 L53 418 L53 314 L212 314 L179 206 L53 206 L53 102 L147 102 L131 47 Z " />
<glyph glyph-name="lessequal" unicode="&#x2264;" horiz-adv-x="462" d="M401 118 L401 243 L174 370 L401 499 L401 624 L46 427 L46 314 L401 118 Z M31 -22 L423 -22 L423 82 L31 82 L31 -22 Z " />
<glyph glyph-name="greaterequal" unicode="&#x2265;" horiz-adv-x="462" d="M62 117 L416 313 L416 427 L62 624 L62 498 L288 370 L62 243 L62 117 Z M39 -23 L431 -23 L431 81 L39 81 L39 -23 Z " />
<glyph glyph-name="uniF8FF" unicode="&#xf8ff;" horiz-adv-x="1451" d="M752 522 C787 522 814 549 814 583 C814 618 787 645 752 645 C718 645 691 618 691 583 C691 549 718 522 752 522 L752 522 Z M100 270 L219 270 C219 425 211 544 209 584 L109 584 C107 544 100 423 100 270 L100 270 Z M604 264 C633 264 662 268 672 279 L672 353 C668 349 660 348 654 348 C647 348 641 350 639 352 L636 417 L697 417 C695 380 694 332 694 270 L812 270 C812 351 809 464 802 509 L624 509 L623 526 L504 496 L504 417 L526 417 C526 411 522 351 522 330 C522 287 550 264 604 264 L604 264 Z M328 265 C376 265 395 290 403 331 L411 270 L494 270 L494 397 C494 471 455 514 370 514 C278 514 236 464 236 379 C236 301 271 265 328 265 L328 265 Z M834 270 L948 270 C948 316 945 343 945 363 C945 380 947 392 963 392 C976 392 978 383 978 363 C978 343 976 316 976 270 L1090 270 L1087 408 C1085 479 1069 514 1010 514 C944 514 932 450 930 433 C930 453 927 487 924 509 L844 509 C837 464 834 351 834 270 L834 270 Z M1228 265 C1313 265 1351 312 1351 391 C1351 454 1327 514 1230 514 C1132 514 1106 453 1106 389 C1106 313 1143 265 1228 265 L1228 265 Z M366 345 C351 345 344 356 344 375 C344 394 351 401 366 401 C381 401 390 394 390 375 C390 356 381 345 366 345 L366 345 Z M1228 345 C1214 345 1207 356 1207 375 C1207 394 1214 401 1228 401 C1242 401 1251 394 1251 375 C1251 356 1242 345 1228 345 L1228 345 Z M390 -50 C505 -50 542 -6 542 100 C542 153 536 217 532 238 L428 238 L428 119 C428 99 424 92 412 92 C400 92 397 98 397 119 L397 238 L220 238 L221 256 L104 227 L104 147 L122 147 C121 133 119 81 119 66 C119 18 139 -5 200 -5 C250 -5 263 6 268 10 L268 83 C266 81 261 78 250 78 C242 78 238 80 235 82 L232 147 L287 147 L287 134 C287 77 318 51 377 51 C407 51 420 58 426 62 C426 56 418 34 372 34 C329 34 308 46 302 50 L302 -33 C310 -38 331 -50 390 -50 L390 -50 Z M558 -44 L677 -44 C677 -37 677 -20 676 -5 C768 -5 813 40 813 130 C813 204 782 243 733 243 C670 243 656 176 653 162 C653 180 648 226 646 238 L568 238 C566 210 558 126 558 -44 L558 -44 Z M970 -5 C1013 -5 1038 4 1048 11 L1048 86 C1034 78 1012 74 993 74 C962 74 948 84 943 92 L1067 92 C1069 101 1070 116 1070 127 C1070 202 1027 243 954 243 C874 243 829 195 829 117 C829 38 875 -5 970 -5 L970 -5 Z M938 109 C938 127 947 136 961 136 C974 136 980 127 978 109 L938 109 Z M670 72 C669 75 665 85 665 101 C665 123 673 132 687 132 C699 132 707 125 707 109 C707 78 677 72 670 72 L670 72 Z M1098 -10 C1112 -10 1122 -1 1122 13 C1122 27 1112 36 1098 36 C1084 36 1074 27 1074 13 C1074 -1 1084 -10 1098 -10 L1098 -10 Z M1098 -5 C1087 -5 1080 1 1080 13 C1080 25 1087 31 1098 31 C1109 31 1116 25 1116 13 C1116 1 1109 -5 1098 -5 L1098 -5 Z M1088 2 L1093 2 L1093 11 L1098 11 L1102 2 L1108 2 L1102 11 C1105 11 1109 13 1109 18 C1109 22 1106 25 1099 25 L1088 25 L1088 2 Z M1093 15 L1093 21 L1100 21 C1103 21 1104 20 1104 18 C1104 16 1103 15 1100 15 L1093 15 Z " />
<glyph glyph-name="fi" unicode="&#xfb01;" horiz-adv-x="572" d="M90 0 L236 0 L236 366 L369 366 L369 0 L516 0 L516 482 L236 482 L236 529 C236 574 259 602 299 602 C312 602 319 601 326 597 L345 723 C330 729 310 732 288 732 C161 732 91 648 91 514 L91 482 L20 482 L20 366 L90 366 L90 0 Z M442 552 C492 552 531 590 531 640 C531 692 490 730 442 730 C395 730 353 691 353 640 C353 590 393 552 442 552 L442 552 Z " />
<glyph glyph-name="fl" unicode="&#xfb02;" horiz-adv-x="586" d="M511 162 L511 726 L365 726 L365 482 L236 482 L236 526 C236 576 259 602 299 602 C312 602 319 600 326 597 L344 723 C329 729 308 732 288 732 C161 732 91 648 91 514 L91 482 L20 482 L20 366 L90 366 L90 0 L236 0 L236 366 L365 366 L365 122 C365 29 405 -7 491 -7 C518 -7 544 -3 558 2 L558 111 C518 111 511 125 511 162 L511 162 Z " />
</font>
</svg>
